<?xml version="1.0" standalone="no"?>
<!DOCTYPE svg PUBLIC "-//W3C//DTD SVG 1.1//EN" "http://www.w3.org/Graphics/SVG/1.1/DTD/svg11.dtd" >
<svg xmlns="http://www.w3.org/2000/svg" xmlns:xlink="http://www.w3.org/1999/xlink" version="1.1">
<metadata>
Created by FontForge 20161003 at Thu Oct  4 07:10:47 2018
 By www-data
Copyright (c) 2009 by Hannes von Dhren. All rights reserved.
</metadata>
<defs>
<font id="BrandonGrotesque-LightItalic" horiz-adv-x="451" >
  <font-face 
    font-family="Brandon Grotesque Light"
    font-weight="330"
    font-style="italic"
    font-stretch="normal"
    units-per-em="1000"
    panose-1="2 11 3 3 2 2 3 13 2 2"
    ascent="700"
    descent="-300"
    x-height="400"
    cap-height="700"
    bbox="-195.046 -346.385 927 1025.89"
    underline-thickness="50"
    underline-position="-100"
    slope="-8"
    stemh="42"
    stemv="44"
    unicode-range="U+0020-FB02"
  />
<missing-glyph horiz-adv-x="599" 
d="M50 30v640c0 21 9 30 30 30h439c21 0 30 -9 30 -30v-640c0 -21 -9 -30 -30 -30h-439c-21 0 -30 9 -30 30zM262 314c0 -7 7 -12 14 -12h36c9 0 15 4 15 13v26c0 48 105 63 105 150c0 65 -54 111 -125 111c-87 0 -130 -61 -130 -61c-4 -6 -6 -13 0 -18l22 -22
c6 -4 11 -4 17 0c13 12 36 41 84 41c40 0 61 -25 61 -52c0 -63 -99 -72 -99 -147v-29zM245 156c0 -26 22 -48 48 -48c27 0 49 22 49 48s-22 48 -49 48c-26 0 -48 -22 -48 -48z" />
    <glyph glyph-name="fi" unicode="fi" horiz-adv-x="479" 
d="M18 -287l91 648h-58c-10 0 -12 7 -11 15l2 11c1 7 7 13 14 13h58l19 133c17 118 95 177 172 177c66 0 109 -37 124 -54c4 -4 3 -10 -1 -15l-13 -16c-5 -6 -10 -6 -16 -1c-16 14 -47 45 -94 45c-58 0 -116 -44 -129 -136l-19 -133h252c7 0 12 -6 11 -13l-53 -374
c-1 -8 -9 -13 -15 -13h-18c-6 0 -12 6 -11 13l49 348h-221l-91 -648c-1 -7 -7 -13 -14 -13h-17c-7 0 -12 6 -11 13z" />
    <glyph glyph-name="fl" unicode="fl" horiz-adv-x="482" 
d="M18 -287l91 648h-59c-9 0 -12 7 -11 13l2 13c1 7 7 13 14 13h59l19 138c16 118 94 172 171 172c66 0 109 -44 116 -54l9 32c3 7 6 12 18 12h7c7 0 12 -6 11 -13l-95 -674c-1 -8 -9 -13 -15 -13h-18c-6 0 -11 6 -10 13l83 592c-6 9 -40 62 -106 62
c-55 0 -115 -37 -128 -129l-19 -138h126c8 0 12 -5 11 -12l-2 -15c-1 -7 -5 -12 -14 -12h-127l-91 -648c-1 -7 -7 -13 -14 -13h-18c-7 0 -11 6 -10 13z" />
    <glyph glyph-name="f_f" unicode="ff" horiz-adv-x="535" 
d="M17 -287l91 648h-55c-9 0 -11 7 -11 13l2 13c1 7 8 13 15 13h55l16 113c18 132 98 187 184 187c60 0 94 -30 109 -46c29 38 69 56 113 56c45 0 81 -24 95 -43c4 -6 3 -12 -1 -16l-12 -12c-5 -5 -11 -6 -17 0c-11 11 -39 31 -65 31c-58 0 -104 -41 -117 -133l-19 -137h128
c8 0 12 -5 11 -12l-2 -15c-1 -7 -6 -12 -14 -12h-129l-90 -648c-1 -8 -9 -13 -16 -13h-16c-7 0 -12 6 -11 13l91 648h-201l-91 -648c-1 -8 -9 -13 -16 -13h-16c-7 0 -12 6 -11 13zM156 400h201l20 137c4 31 11 57 21 79c-11 17 -48 44 -91 44c-69 0 -120 -45 -135 -148z" />
    <glyph glyph-name="f_f_i" unicode="ffi" horiz-adv-x="722" 
d="M17 -287l91 648h-55c-9 0 -12 7 -11 13l2 13c1 7 7 13 14 13h55l16 113c19 131 98 187 183 187c63 0 98 -32 113 -47c32 38 78 57 123 57c66 0 109 -37 124 -54c4 -4 3 -10 -1 -15l-13 -16c-5 -6 -10 -6 -16 -1c-16 14 -47 45 -94 45c-67 0 -118 -50 -130 -137l-19 -132
h253c7 0 12 -6 11 -13l-53 -374c-1 -8 -9 -13 -15 -13h-18c-6 0 -12 6 -11 13l49 348h-221l-91 -648c-1 -8 -9 -13 -16 -13h-16c-7 0 -12 6 -11 13l91 648h-201l-91 -648c-1 -8 -8 -13 -15 -13h-16c-7 0 -12 6 -11 13zM156 400h201l18 133c5 31 13 60 25 83
c-12 17 -49 44 -89 44c-72 0 -125 -45 -139 -147z" />
    <glyph glyph-name="f_f_l" unicode="ffl" horiz-adv-x="725" 
d="M17 -287l91 648h-54c-9 0 -11 7 -10 15l1 11c1 7 8 13 14 13h54l16 113c19 132 99 187 185 187c60 0 95 -32 110 -47c32 38 76 57 125 57c66 0 107 -44 114 -54l9 32c3 7 6 12 18 12h7c7 0 12 -6 11 -13l-95 -674c-1 -8 -9 -13 -15 -13h-18c-6 0 -11 6 -10 13l83 592
c-6 9 -40 62 -106 62c-52 0 -115 -37 -128 -129l-19 -138h126c8 0 12 -5 11 -12l-2 -15c-1 -7 -5 -12 -14 -12h-127l-91 -648c-1 -7 -5 -13 -14 -13h-18c-6 0 -11 6 -10 13l91 648h-200l-92 -648c-1 -10 -8 -13 -16 -13h-16c-7 0 -12 6 -11 13zM157 400h200l19 138
c5 30 12 55 23 76c-12 18 -49 46 -91 46c-70 0 -121 -45 -135 -149z" />
    <glyph glyph-name="f_f_h" unicode="ffh" horiz-adv-x="993" 
d="M17 -287l91 648h-54c-9 0 -11 7 -10 15l1 11c1 7 8 13 14 13h54l16 113c19 132 99 187 185 187c60 0 95 -32 110 -47c32 38 76 57 125 57c66 0 107 -44 114 -54l9 32c3 7 6 12 18 12h7c7 0 12 -6 11 -13l-48 -339c11 13 66 62 138 62c92 0 135 -64 118 -183l-30 -214
c-1 -7 -8 -13 -15 -13h-18c-7 0 -12 6 -11 13l30 214c13 92 -17 140 -82 140c-74 0 -133 -65 -137 -70l-40 -284c-1 -8 -6 -13 -15 -13h-19c-7 0 -10 6 -9 13l83 592c-6 9 -40 62 -106 62c-52 0 -115 -37 -128 -129l-19 -138h126c8 0 12 -5 11 -12l-2 -15
c-1 -7 -5 -12 -14 -12h-127l-91 -648c-1 -7 -5 -13 -14 -13h-18c-6 0 -11 6 -10 13l91 648h-200l-92 -648c-1 -10 -8 -13 -16 -13h-16c-7 0 -12 6 -11 13zM157 400h200l19 138c5 30 12 55 23 76c-12 18 -49 46 -91 46c-70 0 -121 -45 -135 -149z" />
    <glyph glyph-name="f_k" unicode="fk" horiz-adv-x="682" 
d="M18 -287l91 648h-59c-9 0 -12 7 -11 13l2 13c1 7 7 13 14 13h59l19 138c16 118 94 172 171 172c66 0 109 -44 116 -54l9 32c3 7 6 12 18 12h7c7 0 12 -6 11 -13l-63 -448l203 155c5 4 11 6 16 6h33c10 0 11 -10 3 -16l-218 -164l181 -203c7 -7 0 -17 -8 -17h-23
c-8 0 -12 0 -19 8l-173 199l-27 -194c-1 -8 -6 -13 -15 -13h-19c-7 0 -10 6 -9 13l83 592c-6 9 -40 62 -106 62c-55 0 -115 -37 -128 -129l-19 -138h126c8 0 12 -5 11 -12l-2 -15c-1 -7 -5 -12 -14 -12h-127l-91 -648c-1 -7 -7 -13 -14 -13h-18c-7 0 -11 6 -10 13z" />
    <glyph glyph-name="f_j" unicode="fj" horiz-adv-x="489" 
d="M18 -287l91 648h-58c-10 0 -12 7 -11 15l2 11c1 7 7 13 14 13h58l19 133c17 118 95 177 172 177c66 0 109 -37 124 -54c4 -4 3 -10 -1 -15l-13 -16c-5 -6 -10 -6 -16 -1c-16 14 -47 45 -94 45c-58 0 -116 -44 -129 -136l-19 -133h262c7 0 12 -6 11 -13l-75 -524
c-17 -118 -68 -173 -144 -173c-27 0 -51 8 -68 19c-5 3 -13 8 -6 17l9 14c9 12 16 6 20 4c13 -8 28 -15 46 -15c52 0 87 41 100 134l70 498h-231l-91 -648c-1 -7 -7 -13 -14 -13h-17c-7 0 -12 6 -11 13z" />
    <glyph glyph-name="f_f_j" unicode="ffj" horiz-adv-x="731" 
d="M17 -287l91 648h-55c-9 0 -12 7 -11 13l2 13c1 7 7 13 14 13h55l16 113c19 131 98 187 183 187c63 0 98 -32 113 -47c32 38 78 57 123 57c66 0 109 -37 124 -54c4 -4 3 -10 -1 -15l-13 -16c-5 -6 -10 -6 -16 -1c-16 14 -47 45 -94 45c-67 0 -117 -50 -130 -137l-19 -132
h262c7 0 12 -6 11 -13l-75 -524c-17 -118 -68 -173 -144 -173c-27 0 -51 8 -68 19c-5 3 -13 8 -6 17l9 14c9 12 16 6 20 4c13 -8 28 -15 46 -15c52 0 87 41 100 134l70 498h-230l-91 -648c-1 -8 -9 -13 -16 -13h-16c-7 0 -12 6 -11 13l91 648h-201l-91 -648
c-1 -8 -8 -13 -15 -13h-16c-7 0 -12 6 -11 13zM156 400h201l18 133c5 31 13 60 25 83c-12 17 -49 44 -89 44c-72 0 -125 -45 -139 -147z" />
    <glyph glyph-name="f_b" unicode="fb" horiz-adv-x="741" 
d="M18 -287l91 648h-59c-9 0 -12 7 -11 13l2 13c1 7 7 13 14 13h59l19 138c16 118 94 172 171 172c66 0 109 -44 116 -54l9 32c3 7 6 12 18 12h7c7 0 12 -6 11 -13l-45 -317s48 40 115 40c80 0 149 -78 149 -177c0 -133 -89 -243 -198 -243c-69 0 -107 45 -114 59l-8 -36
c-3 -9 -8 -13 -16 -13h-10c-7 0 -12 6 -11 13l83 592c-6 9 -40 62 -106 62c-55 0 -115 -37 -128 -129l-19 -138h126c8 0 12 -5 11 -12l-2 -15c-1 -7 -5 -12 -14 -12h-127l-91 -648c-1 -7 -7 -13 -14 -13h-18c-7 0 -11 6 -10 13zM383 101c1 -4 30 -71 105 -71
c83 0 152 91 152 196c0 80 -45 141 -116 141c-62 0 -109 -42 -109 -42z" />
    <glyph glyph-name="f_f_k" unicode="ffk" horiz-adv-x="925" 
d="M17 -287l91 648h-54c-9 0 -11 7 -10 15l1 11c1 7 8 13 14 13h54l16 113c19 132 99 187 185 187c60 0 95 -32 110 -47c32 38 76 57 125 57c66 0 107 -44 114 -54l9 32c3 7 6 12 18 12h7c7 0 12 -6 11 -13l-63 -448l203 155c5 4 11 6 16 6h33c10 0 11 -10 3 -16l-218 -164
l181 -203c7 -7 0 -17 -8 -17h-23c-8 0 -12 0 -19 8l-173 199l-27 -194c-1 -8 -6 -13 -15 -13h-19c-7 0 -10 6 -9 13l83 592c-6 9 -40 62 -106 62c-52 0 -115 -37 -128 -129l-19 -138h126c8 0 12 -5 11 -12l-2 -15c-1 -7 -5 -12 -14 -12h-127l-91 -648c-1 -7 -5 -13 -14 -13
h-18c-6 0 -11 6 -10 13l91 648h-200l-92 -648c-1 -10 -8 -13 -16 -13h-16c-7 0 -12 6 -11 13zM157 400h200l19 138c5 30 12 55 23 76c-12 18 -49 46 -91 46c-70 0 -121 -45 -135 -149z" />
    <glyph glyph-name="f_h" unicode="fh" horiz-adv-x="750" 
d="M18 -287l91 648h-59c-9 0 -12 7 -11 13l2 13c1 7 7 13 14 13h59l19 138c16 118 94 172 171 172c66 0 109 -44 116 -54l9 32c3 7 6 12 18 12h7c7 0 12 -6 11 -13l-48 -339c11 13 66 62 138 62c85 0 135 -64 118 -183l-30 -214c-1 -7 -8 -13 -15 -13h-18c-7 0 -12 6 -11 13
l30 214c13 92 -17 140 -81 140c-75 0 -134 -65 -138 -70l-40 -284c-1 -8 -6 -13 -15 -13h-19c-7 0 -10 6 -9 13l83 592c-6 9 -40 62 -106 62c-55 0 -115 -37 -128 -129l-19 -138h126c8 0 12 -5 11 -12l-2 -15c-1 -7 -5 -12 -14 -12h-127l-91 -648c-1 -7 -7 -13 -14 -13h-18
c-7 0 -11 6 -10 13z" />
    <glyph glyph-name="f_f_b" unicode="ffb" horiz-adv-x="984" 
d="M17 -287l91 648h-54c-9 0 -11 7 -10 15l1 11c1 7 8 13 14 13h54l16 113c19 132 99 187 185 187c60 0 95 -32 110 -47c32 38 76 57 125 57c66 0 107 -44 114 -54l9 32c3 7 6 12 18 12h7c7 0 12 -6 11 -13l-45 -317s48 40 115 40c84 0 149 -78 149 -177
c0 -133 -85 -243 -198 -243c-69 0 -107 45 -114 59l-8 -36c-3 -9 -8 -13 -16 -13h-10c-7 0 -12 6 -11 13l83 592c-6 9 -40 62 -106 62c-52 0 -115 -37 -128 -129l-19 -138h126c8 0 12 -5 11 -12l-2 -15c-1 -7 -5 -12 -14 -12h-127l-91 -648c-1 -7 -5 -13 -14 -13h-18
c-6 0 -11 6 -10 13l91 648h-200l-92 -648c-1 -10 -8 -13 -16 -13h-16c-7 0 -12 6 -11 13zM157 400h200l19 138c5 30 12 55 23 76c-12 18 -49 46 -91 46c-70 0 -121 -45 -135 -149zM626 101c1 -4 30 -71 105 -71c83 0 152 91 152 196c0 80 -45 141 -116 141
c-62 0 -109 -42 -109 -42z" />
    <glyph glyph-name=".notdef" horiz-adv-x="599" 
d="M50 30v640c0 21 9 30 30 30h439c21 0 30 -9 30 -30v-640c0 -21 -9 -30 -30 -30h-439c-21 0 -30 9 -30 30zM262 314c0 -7 7 -12 14 -12h36c9 0 15 4 15 13v26c0 48 105 63 105 150c0 65 -54 111 -125 111c-87 0 -130 -61 -130 -61c-4 -6 -6 -13 0 -18l22 -22
c6 -4 11 -4 17 0c13 12 36 41 84 41c40 0 61 -25 61 -52c0 -63 -99 -72 -99 -147v-29zM245 156c0 -26 22 -48 48 -48c27 0 49 22 49 48s-22 48 -49 48c-26 0 -48 -22 -48 -48z" />
    <glyph glyph-name=".null" horiz-adv-x="0" 
 />
    <glyph glyph-name="CR" horiz-adv-x="0" 
 />
    <glyph glyph-name="space" unicode=" " horiz-adv-x="221" 
 />
    <glyph glyph-name="exclam" unicode="!" horiz-adv-x="297" 
d="M145 269c-7 0 -12 6 -11 12l47 406c1 11 9 13 16 13h26c7 0 12 -6 11 -13l-67 -406c-2 -6 -8 -12 -14 -12h-8zM76 25c0 26 22 45 45 45c20 0 33 -15 33 -35c0 -25 -20 -45 -44 -45c-20 0 -34 16 -34 35z" />
    <glyph glyph-name="quotedbl" unicode="&#x22;" horiz-adv-x="284" 
d="M229 496c-4 0 -8 3 -7 11l26 180c1 7 7 13 14 13h22c8 0 12 -6 9 -16l-42 -177c-1 -6 -6 -11 -11 -11h-11zM94 496c-5 0 -8 3 -7 11l25 180c1 7 8 13 15 13h22c7 0 11 -6 9 -16l-42 -177c-2 -6 -6 -11 -11 -11h-11z" />
    <glyph glyph-name="numbersign" unicode="#" horiz-adv-x="506" 
d="M66 15l55 191h-74c-6 0 -10 6 -9 13l1 7c1 7 6 11 13 11h77l53 182h-78c-7 0 -12 6 -11 13l1 6c1 7 7 13 14 13h83l68 238c2 8 8 11 14 11h6c8 0 11 -7 9 -15l-67 -234h145l68 238c2 8 8 11 14 11h5c8 0 11 -7 9 -15l-66 -234h73c7 0 11 -6 10 -13l-1 -6
c-1 -7 -6 -13 -13 -13h-77l-53 -182h77c7 0 12 -6 11 -13l-1 -7c-1 -7 -6 -11 -13 -11h-83l-56 -195c-2 -6 -8 -11 -14 -11h-6c-9 0 -13 4 -9 15l55 191h-146l-55 -195c-2 -6 -8 -11 -14 -11h-6c-8 0 -13 4 -9 15zM160 237h145l52 182h-144z" />
    <glyph glyph-name="dollar" unicode="$" horiz-adv-x="494" 
d="M34 72c-4 5 -10 14 -1 22l14 13c8 7 15 5 21 -3c15 -19 54 -65 136 -71l42 300c-94 36 -155 93 -155 183c0 78 64 185 208 193l5 37c1 9 9 13 15 13h4c7 0 12 -5 11 -13l-6 -38c80 -5 132 -50 132 -50c2 -2 7 -8 2 -15l-17 -24c-3 -5 -10 -5 -16 0c-11 10 -48 40 -107 46
c-13 -98 -28 -200 -42 -298c96 -40 156 -89 156 -179c0 -114 -103 -192 -210 -198l-15 -108c-1 -8 -8 -12 -15 -12c-8 0 -15 3 -14 12l16 108c-112 10 -155 71 -164 82zM253 379l40 287c-109 -6 -155 -88 -155 -146c0 -73 45 -112 115 -141zM232 33c81 5 155 68 155 151
c0 65 -44 105 -114 136z" />
    <glyph glyph-name="percent" unicode="%" horiz-adv-x="630" 
d="M190 434c-61 0 -106 53 -106 119c0 87 70 157 145 157c61 0 106 -53 106 -119c0 -87 -70 -157 -145 -157zM77 14l435 679c4 7 10 7 14 7h18c8 0 11 -6 6 -14l-433 -676c-7 -10 -13 -10 -17 -10h-17c-8 0 -11 6 -6 14zM195 471c53 0 101 52 101 115c0 47 -30 86 -72 86
c-54 0 -101 -52 -101 -114c0 -48 29 -87 72 -87zM304 109c0 86 69 157 145 157c61 0 105 -54 105 -120c0 -86 -70 -157 -144 -157c-63 0 -106 54 -106 120zM342 113c0 -48 30 -86 73 -86c52 0 101 51 101 114c0 47 -30 86 -73 86c-53 0 -101 -52 -101 -114z" />
    <glyph glyph-name="ampersand" unicode="&#x26;" horiz-adv-x="613" 
d="M66 147c0 122 89 188 163 230l-18 23c-35 45 -57 89 -47 155c11 69 69 155 176 155c86 0 128 -63 128 -130c0 -103 -98 -168 -179 -214l149 -199c48 54 83 149 84 224c0 5 3 9 8 9h22c9 0 10 -5 10 -11c0 -80 -32 -173 -97 -255l77 -101c7 -7 12 -18 3 -24l-16 -12
c-10 -8 -16 -3 -20 2l-73 99s-96 -108 -217 -108c-98 0 -153 73 -153 157zM266 397c71 40 156 95 156 177c0 48 -27 97 -90 97c-75 0 -119 -61 -127 -117c-7 -47 11 -92 39 -129zM110 153c0 -69 48 -123 115 -123c103 0 186 101 186 101l-159 216
c-67 -39 -142 -95 -142 -194z" />
    <glyph glyph-name="quotesingle" unicode="'" horiz-adv-x="149" 
d="M94 496c-4 0 -8 3 -7 11l26 180c1 7 7 13 14 13h22c8 0 11 -6 9 -16l-42 -177c-2 -6 -6 -11 -11 -11h-11z" />
    <glyph glyph-name="parenleft" unicode="(" horiz-adv-x="328" 
d="M66 207c0 370 153 496 280 503c7 0 11 -3 11 -9l-1 -15c0 -7 -5 -12 -9 -12c-143 -21 -237 -170 -237 -466c0 -158 52 -236 136 -249c5 -1 8 -5 6 -12l-4 -17c-1 -6 -6 -8 -12 -8c-87 6 -170 79 -170 285z" />
    <glyph glyph-name="parenright" unicode=")" horiz-adv-x="327" 
d="M-7 -40c145 21 236 168 236 463c0 157 -51 238 -135 251c-6 0 -9 6 -7 13l3 14c1 6 6 9 14 9c86 -5 168 -81 168 -287c0 -370 -150 -496 -278 -501c-9 0 -12 2 -12 8l1 18c0 7 5 11 10 12z" />
    <glyph glyph-name="asterisk" unicode="*" horiz-adv-x="314" 
d="M171 410c-7 0 -12 6 -11 13l15 103l-83 -55c-7 -4 -15 -2 -17 4l-3 8c-2 6 -2 13 5 17l88 55l-73 55c-4 3 -6 12 -1 17l7 8c4 5 10 8 16 4l69 -55l14 103c1 7 8 13 14 13h8c7 0 12 -6 11 -13l-16 -103l84 56c7 5 15 2 17 -4l3 -8c2 -6 1 -13 -6 -17l-88 -56l73 -56
c5 -3 5 -11 2 -16l-6 -9c-4 -6 -13 -8 -18 -4l-69 56l-13 -103c-1 -7 -6 -13 -15 -13h-7z" />
    <glyph glyph-name="plus" unicode="+" horiz-adv-x="461" 
d="M193 155l24 171h-153c-7 0 -12 6 -11 13l3 16c1 7 7 13 14 13h153l24 172c1 7 7 12 14 12h16c7 0 12 -5 11 -12l-24 -172h152c7 0 12 -6 11 -13l-3 -16c-1 -7 -7 -13 -14 -13h-152l-24 -171c-1 -7 -7 -13 -14 -13h-17c-6 0 -11 6 -10 13z" />
    <glyph glyph-name="comma" unicode="," horiz-adv-x="224" 
d="M40 24c0 28 17 45 44 45c23 0 43 -22 43 -68c0 -97 -64 -153 -88 -165c-8 -4 -14 -5 -17 0l-6 10c-3 5 -2 11 6 16c6 4 50 34 64 95c3 15 4 28 2 38c-5 -3 -9 -5 -14 -5c-23 0 -34 16 -34 34z" />
    <glyph glyph-name="hyphen" unicode="-" horiz-adv-x="452" 
d="M117 231c-7 0 -11 6 -10 13l1 11c1 8 7 13 14 13h200c7 0 12 -5 11 -13l-1 -11c-1 -7 -6 -13 -15 -13h-200z" />
    <glyph glyph-name="period" unicode="." horiz-adv-x="220" 
d="M40 25c0 26 22 45 45 45c20 0 33 -15 33 -35c0 -25 -20 -45 -44 -45c-20 0 -34 16 -34 35z" />
    <glyph glyph-name="slash" unicode="/" horiz-adv-x="310" 
d="M7 14l290 678c2 5 7 8 13 8h16c9 0 13 -6 9 -14l-291 -677c-2 -6 -9 -9 -13 -9h-15c-8 0 -13 5 -9 14z" />
    <glyph glyph-name="zero" unicode="0" horiz-adv-x="600" 
d="M260 -10c-117 0 -179 103 -179 263c0 262 107 439 277 439c117 0 179 -103 179 -263c0 -262 -106 -439 -277 -439zM266 31c141 0 226 159 226 395c0 137 -48 224 -140 224c-141 0 -227 -160 -227 -395c0 -138 48 -224 141 -224z" />
    <glyph glyph-name="one" unicode="1" horiz-adv-x="300" 
d="M113 13l87 592h-1l-112 -92c-5 -4 -10 -4 -14 1l-13 17c-4 5 -2 9 4 15l159 135h20c5 0 9 -5 8 -12l-92 -656c-1 -7 -8 -13 -15 -13h-20c-7 0 -12 6 -11 13z" />
    <glyph glyph-name="two" unicode="2" horiz-adv-x="483" 
d="M6 12l2 18l273 266c82 79 128 144 128 220c0 66 -35 131 -128 131c-74 0 -129 -66 -142 -81c-6 -7 -13 -9 -19 -4l-15 12c-5 4 -5 11 1 18c0 0 71 99 179 99c117 0 172 -79 172 -168c0 -104 -63 -173 -146 -255l-231 -227h293c7 0 12 -6 11 -13l-2 -15
c-1 -7 -8 -13 -14 -13h-351c-7 0 -11 6 -11 12z" />
    <glyph glyph-name="three" unicode="3" horiz-adv-x="504" 
d="M26 84c-3 6 -1 11 3 14l18 12c5 4 12 2 16 -5c12 -20 45 -75 138 -75c97 0 177 68 177 168c0 84 -73 128 -136 128h-85c-11 0 -12 5 -11 11l3 20c1 8 5 12 15 12h80c76 0 164 60 164 159c0 71 -47 120 -113 120c-82 0 -138 -62 -151 -75c-5 -5 -11 -5 -16 0l-13 14
c-5 4 -4 12 1 17c0 0 76 87 183 87c93 0 157 -63 157 -153c0 -94 -61 -162 -125 -190v-2c47 -18 94 -74 94 -144c0 -117 -94 -212 -230 -212c-110 0 -154 68 -169 94z" />
    <glyph glyph-name="four" unicode="4" horiz-adv-x="536" 
d="M18 156c-11 0 -15 4 -14 12l2 20l438 504h16c5 0 9 -2 8 -12l-67 -485h69c7 0 12 -5 11 -12l-2 -13c-1 -7 -8 -13 -14 -13h-70l-20 -144c-1 -7 -5 -13 -14 -13h-20c-11 0 -11 7 -10 14l19 142h-332zM64 196h294l59 407z" />
    <glyph glyph-name="five" unicode="5" horiz-adv-x="509" 
d="M38 84c-3 6 -1 11 3 14l19 12c5 4 12 2 16 -5c12 -20 44 -75 137 -75c109 0 195 105 195 219c0 81 -46 137 -143 137h-147c-12 0 -18 11 -16 21l36 261c1 7 7 13 15 13h281c6 0 11 -6 10 -13l-2 -16c-1 -7 -7 -13 -14 -13h-252l-30 -211h125c121 0 184 -64 184 -178
c0 -141 -111 -260 -247 -260c-110 0 -155 68 -170 94z" />
    <glyph glyph-name="six" unicode="6" horiz-adv-x="515" 
d="M56 217c0 314 266 450 360 487c7 2 11 -1 14 -11l4 -11c3 -8 -2 -15 -13 -19c-54 -20 -240 -114 -297 -295h1c18 22 86 72 173 72c92 0 169 -75 169 -188c0 -144 -116 -262 -236 -262s-175 102 -175 227zM237 30c94 0 185 99 185 215c0 89 -57 153 -132 153
c-104 0 -178 -96 -181 -100c0 0 -10 -29 -10 -76c0 -99 42 -192 138 -192z" />
    <glyph glyph-name="seven" unicode="7" horiz-adv-x="422" 
d="M60 16l343 623h-323c-9 0 -14 3 -12 15l2 15c1 9 8 12 15 12h364c9 0 12 -8 12 -14v-6l-353 -649c-4 -7 -7 -12 -16 -12h-27c-10 0 -8 10 -5 16z" />
    <glyph glyph-name="eight" unicode="8" horiz-adv-x="536" 
d="M50 151c0 106 81 175 156 196c0 1 0 1 1 2c-51 18 -94 71 -94 139c0 106 81 201 211 201c107 0 164 -71 164 -157c0 -95 -71 -161 -139 -183v-2c57 -17 109 -70 109 -147c0 -129 -97 -210 -233 -210c-107 0 -175 61 -175 161zM281 373c99 8 162 65 162 154
c0 66 -44 124 -126 124c-97 0 -161 -78 -161 -156c0 -72 46 -116 125 -122zM93 158c0 -88 61 -130 138 -130c98 0 181 57 181 164c0 66 -51 124 -138 132c-108 -10 -181 -82 -181 -166z" />
    <glyph glyph-name="nine" unicode="9" horiz-adv-x="514" 
d="M99 4c-4 11 2 15 13 19c54 20 240 114 297 295h-1c-18 -22 -86 -72 -173 -72c-92 0 -169 75 -169 188c0 144 116 262 236 262s175 -102 175 -227c0 -314 -266 -450 -360 -487c-7 -2 -11 1 -13 7zM243 288c104 0 178 96 181 100c0 0 10 29 10 76c0 99 -42 192 -138 192
c-94 0 -185 -99 -185 -215c0 -89 57 -153 132 -153z" />
    <glyph glyph-name="colon" unicode=":" horiz-adv-x="261" 
d="M139 329c-20 0 -35 17 -35 36c0 25 23 45 46 45c20 0 33 -16 33 -35c0 -25 -20 -46 -44 -46zM57 25c0 26 22 45 45 45c20 0 33 -15 33 -35c0 -25 -20 -45 -44 -45c-20 0 -34 16 -34 35z" />
    <glyph glyph-name="semicolon" unicode=";" horiz-adv-x="263" 
d="M138 329c-20 0 -34 17 -34 35c0 26 22 46 45 46c20 0 33 -16 33 -35c0 -25 -20 -46 -44 -46zM56 24c0 28 17 45 44 45c23 0 43 -22 43 -68c0 -97 -64 -153 -88 -165c-8 -4 -14 -5 -17 0l-6 10c-3 5 -2 11 6 16c6 4 50 34 64 95c3 15 4 28 2 38c-5 -3 -9 -5 -14 -5
c-23 0 -34 16 -34 34z" />
    <glyph glyph-name="less" unicode="&#x3c;" horiz-adv-x="401" 
d="M27 215c-6 5 -8 9 -8 13v2c0 5 3 10 12 16l350 224c8 5 16 2 15 -10l-2 -26c0 -4 -2 -9 -11 -15l-300 -191l247 -187c7 -5 7 -13 6 -17l-3 -16c-2 -12 -11 -15 -19 -10z" />
    <glyph glyph-name="equal" unicode="=" horiz-adv-x="528" 
d="M135 366c-11 0 -12 6 -11 13l2 17c1 7 4 13 15 13h281c6 0 11 -6 10 -13l-2 -17c-1 -7 -7 -13 -14 -13h-281zM105 158c-11 0 -11 6 -10 13l2 17c1 7 3 13 14 13h281c7 0 12 -6 11 -13l-2 -17c-1 -7 -6 -13 -15 -13h-281z" />
    <glyph glyph-name="greater" unicode="&#x3e;" horiz-adv-x="401" 
d="M8 -2c-8 -5 -17 -2 -16 10l3 26c1 6 3 11 10 15l299 184l-246 192c-6 4 -7 10 -6 16l3 19c2 12 12 16 20 10l285 -224c6 -5 8 -10 8 -15v-1c0 -6 -5 -11 -12 -15z" />
    <glyph glyph-name="question" unicode="?" horiz-adv-x="440" 
d="M190 273c-8 0 -13 4 -12 14l8 58c5 39 30 67 64 92c53 40 115 77 115 146c0 41 -29 86 -87 86c-78 0 -122 -54 -132 -69c-3 -5 -8 -8 -17 -2l-14 10c-10 7 -5 13 -1 19c0 0 51 83 169 83c81 0 128 -56 128 -120c0 -98 -89 -148 -137 -185c-28 -22 -42 -40 -45 -61l-8 -57
c-1 -9 -6 -14 -14 -14h-17zM129 25c0 26 21 45 44 45c20 0 35 -15 35 -35c0 -25 -22 -45 -46 -45c-19 0 -33 16 -33 35z" />
    <glyph glyph-name="at" unicode="@" horiz-adv-x="909" 
d="M38 155c0 314 197 555 488 555c213 0 327 -153 327 -352c0 -143 -57 -368 -233 -368c-58 0 -83 35 -88 79c-18 -27 -71 -79 -141 -79c-84 0 -139 74 -139 175c0 149 103 245 209 245c65 0 96 -35 102 -43l6 21c3 8 5 12 15 12h10c7 0 12 -6 11 -13l-36 -251
c-10 -76 12 -109 58 -109c115 0 186 161 186 327c0 180 -98 319 -293 319c-259 0 -442 -216 -442 -513c0 -160 79 -287 196 -348c9 -4 9 -7 4 -16l-9 -16c-4 -7 -8 -9 -15 -6c-129 65 -216 205 -216 381zM297 171c0 -82 40 -139 103 -139c76 0 115 72 124 92l27 189
c-1 4 -25 56 -93 56c-83 0 -161 -77 -161 -198z" />
    <glyph glyph-name="A" unicode="A" horiz-adv-x="601" 
d="M9 0h-29c-7 0 -9 6 -5 14l375 694c2 4 5 7 13 7h3c5 0 10 0 12 -7l177 -696c2 -6 0 -12 -11 -12h-26c-9 0 -12 5 -13 9l-46 184h-338l-96 -184c-2 -4 -7 -9 -16 -9zM144 232h304l-93 403h-3z" />
    <glyph glyph-name="B" unicode="B" horiz-adv-x="580" 
d="M67 13l95 674c1 7 8 13 14 13h193c100 0 163 -62 163 -155c0 -94 -57 -162 -122 -190c52 -17 95 -63 95 -140c0 -127 -98 -215 -226 -215h-201c-7 0 -12 6 -11 13zM165 376h156c93 0 161 71 161 164c0 72 -45 116 -119 116h-159zM117 42h170c92 0 167 72 167 168
c0 76 -55 123 -137 123h-159z" />
    <glyph glyph-name="C" unicode="C" horiz-adv-x="659" 
d="M65 301c0 230 176 409 379 409c91 0 157 -34 207 -93c4 -5 4 -13 -1 -18l-17 -15c-7 -6 -11 -5 -17 1c-42 51 -105 80 -177 80c-170 0 -323 -164 -323 -359c0 -148 96 -267 234 -267c77 0 142 36 195 84c7 6 13 5 16 2l19 -21c4 -4 3 -12 -2 -17
c-71 -65 -152 -97 -232 -97c-162 0 -281 138 -281 311z" />
    <glyph glyph-name="D" unicode="D" horiz-adv-x="684" 
d="M67 13l95 674c1 7 7 13 13 13h193c153 0 271 -137 271 -304c0 -218 -173 -396 -369 -396h-193c-6 0 -11 6 -10 13zM118 43h149c172 0 322 153 322 351c0 148 -95 263 -236 263h-149z" />
    <glyph glyph-name="E" unicode="E" horiz-adv-x="555" 
d="M67 13l95 674c1 7 8 13 14 13h360c7 0 12 -6 11 -13l-2 -17c-1 -7 -8 -13 -15 -13h-324l-39 -276h280c7 0 12 -6 11 -13l-2 -17c-1 -7 -8 -13 -15 -13h-280l-42 -296h325c7 0 12 -6 11 -13l-3 -16c-1 -7 -7 -13 -14 -13h-360c-7 0 -12 6 -11 13z" />
    <glyph glyph-name="F" unicode="F" horiz-adv-x="536" 
d="M67 13l95 674c1 7 8 13 14 13h360c7 0 12 -6 11 -13l-2 -17c-1 -7 -8 -13 -15 -13h-324l-43 -304h284c7 0 12 -6 11 -13l-2 -17c-1 -7 -8 -13 -15 -13h-284l-43 -297c-2 -9 -7 -13 -15 -13h-21c-7 0 -12 6 -11 13z" />
    <glyph glyph-name="G" unicode="G" horiz-adv-x="685" 
d="M65 306c0 225 177 404 381 404c90 0 155 -34 205 -93c4 -5 4 -13 -2 -18l-18 -16c-7 -7 -12 -6 -17 0c-41 52 -104 82 -176 82c-169 0 -322 -162 -322 -357c0 -149 95 -270 234 -270c112 0 191 64 191 64l24 177h-143c-11 0 -12 4 -11 13l3 20c1 8 3 12 14 12h179
c7 0 12 -6 11 -12l-30 -215c-2 -17 -9 -24 -17 -31c-19 -16 -113 -76 -226 -76c-158 0 -280 138 -280 316z" />
    <glyph glyph-name="H" unicode="H" horiz-adv-x="700" 
d="M67 13l95 674c1 7 6 13 14 13h22c8 0 12 -6 11 -13l-44 -307h398l43 307c1 7 6 13 14 13h22c8 0 12 -6 11 -13l-95 -674c-1 -7 -7 -13 -14 -13h-22c-7 0 -12 6 -11 13l46 325h-397l-46 -325c-1 -7 -7 -13 -15 -13h-21c-7 0 -12 6 -11 13z" />
    <glyph glyph-name="I" unicode="I" horiz-adv-x="256" 
d="M67 13l94 674c1 7 6 13 15 13h22c7 0 12 -6 11 -13l-94 -674c-2 -8 -9 -13 -16 -13h-21c-7 0 -12 6 -11 13z" />
    <glyph glyph-name="J" unicode="J" horiz-adv-x="374" 
d="M-45 65c-3 6 -2 12 3 17l14 11c6 5 12 7 17 0c15 -22 43 -61 100 -61c72 0 136 59 153 178l67 477c1 8 7 13 15 13h21c7 0 12 -6 11 -13l-67 -476c-20 -140 -96 -221 -204 -221c-79 0 -118 54 -130 75z" />
    <glyph glyph-name="K" unicode="K" horiz-adv-x="550" 
d="M67 13l95 672c1 9 8 15 16 15h19c9 0 14 -6 13 -15l-44 -309l345 317c9 7 11 7 20 7h30c11 0 11 -11 4 -17l-356 -327l273 -339c5 -5 1 -17 -13 -17h-24c-9 0 -13 2 -20 10l-264 332l-46 -329c-1 -10 -9 -13 -17 -13h-20c-8 0 -12 5 -11 13z" />
    <glyph glyph-name="L" unicode="L" horiz-adv-x="446" 
d="M67 13l95 674c1 7 8 13 14 13h23c6 0 11 -6 10 -13l-91 -645h283c12 0 12 -6 11 -13l-3 -18c-1 -7 -7 -11 -14 -11h-317c-7 0 -12 6 -11 13z" />
    <glyph glyph-name="M" unicode="M" horiz-adv-x="785" 
d="M13 13l227 690c1 4 3 7 10 7h9c5 0 6 -2 7 -7l94 -602h2l275 602c2 5 5 7 9 7h9c4 0 8 -3 8 -7l33 -690c0 -10 -4 -13 -13 -13h-24c-6 0 -10 5 -10 11l-20 572h-2l-264 -585c-3 -6 -6 -8 -12 -8h-4c-5 0 -9 1 -10 8l-93 585h-2l-183 -572c-2 -6 -7 -11 -13 -11h-24
c-9 0 -12 3 -9 13z" />
    <glyph glyph-name="N" unicode="N" horiz-adv-x="713" 
d="M67 13l96 684c2 8 8 13 16 13h15l343 -621h2l82 598c1 7 8 13 15 13h20c7 0 12 -6 11 -13l-96 -684c-1 -9 -9 -13 -17 -13h-16l-341 623h-1l-84 -600c-2 -13 -15 -13 -25 -13h-9c-7 0 -12 6 -11 13z" />
    <glyph glyph-name="O" unicode="O" horiz-adv-x="767" 
d="M65 300c0 226 172 410 379 410c158 0 278 -140 278 -313c0 -226 -172 -407 -379 -407c-158 0 -278 138 -278 310zM111 306c0 -150 98 -272 238 -272c170 0 327 160 327 357c0 151 -98 275 -238 275c-171 0 -327 -162 -327 -360z" />
    <glyph glyph-name="P" unicode="P" horiz-adv-x="553" 
d="M67 13l95 674c1 7 8 13 14 13h195c96 0 174 -88 174 -195c0 -140 -111 -256 -237 -256h-161l-33 -236c-1 -7 -8 -13 -18 -13h-18c-7 0 -12 6 -11 13zM154 295h158c94 0 184 93 184 205c0 85 -56 153 -135 153h-157z" />
    <glyph glyph-name="Q" unicode="Q" horiz-adv-x="768" 
d="M65 300c0 226 172 410 379 410c158 0 278 -140 278 -313c0 -177 -104 -325 -252 -384l80 -191c2 -5 -1 -15 -9 -15h-33c-3 0 -9 2 -12 10l-73 183c-25 -7 -55 -10 -80 -10c-158 0 -278 138 -278 310zM112 306c0 -150 97 -272 237 -272c170 0 327 160 327 357
c0 151 -98 275 -238 275c-171 0 -326 -162 -326 -360z" />
    <glyph glyph-name="R" unicode="R" horiz-adv-x="604" 
d="M67 13l95 674c1 7 6 13 14 13h225c94 0 172 -81 172 -186c0 -115 -77 -210 -177 -237l93 -259c4 -8 1 -18 -10 -18h-29c-7 0 -10 3 -12 9l-92 262c-12 -1 -25 -1 -37 -1h-159l-36 -257c-1 -7 -8 -13 -18 -13h-18c-7 0 -12 6 -11 13zM157 312h187c92 0 179 86 179 196
c0 82 -55 146 -131 146h-187z" />
    <glyph glyph-name="S" unicode="S" horiz-adv-x="507" 
d="M41 72c-5 5 -10 10 0 21l12 12c7 9 15 10 21 2c8 -9 64 -75 145 -75c94 0 176 65 176 151c0 74 -61 109 -150 154c-87 44 -149 85 -149 177c0 90 65 196 224 196c88 0 147 -51 147 -51c3 -3 10 -9 1 -21l-9 -12c-6 -8 -13 -11 -22 -5c-3 2 -56 46 -123 46
c-117 0 -171 -83 -171 -149c0 -70 53 -105 126 -140c105 -50 174 -95 174 -190c0 -118 -104 -198 -228 -198c-102 0 -163 70 -174 82z" />
    <glyph glyph-name="T" unicode="T" horiz-adv-x="422" 
d="M148 13l91 644h-170c-10 0 -11 6 -10 15l2 15c1 8 8 13 14 13h386c8 0 12 -6 11 -13l-2 -17c-1 -7 -7 -13 -15 -13h-170l-90 -644c-1 -7 -7 -13 -17 -13h-19c-7 0 -12 6 -11 13z" />
    <glyph glyph-name="U" unicode="U" horiz-adv-x="666" 
d="M94 255l61 432c1 7 8 13 14 13h22c7 0 12 -6 11 -13l-60 -427c-19 -129 39 -224 157 -224s203 94 221 223l61 428c1 8 5 13 15 13h21c6 0 11 -6 10 -13l-60 -432c-22 -153 -128 -265 -275 -265c-137 0 -219 112 -198 265z" />
    <glyph glyph-name="V" unicode="V" horiz-adv-x="597" 
d="M242 -1l-175 688c-2 8 0 13 10 13h27c5 0 8 -3 9 -7l152 -609h2l328 609c2 3 4 7 12 7h28c9 0 12 -5 7 -14l-372 -687c-3 -5 -7 -9 -13 -9h-4c-7 0 -10 4 -11 9z" />
    <glyph glyph-name="W" unicode="W" horiz-adv-x="817" 
d="M181 -3l-84 690c-1 10 4 13 13 13h24c6 0 9 -5 10 -11l66 -571h2l240 583c3 6 5 9 11 9h6c6 0 9 -3 10 -9l80 -582h2l225 570c2 6 7 11 13 11h26c9 0 13 -3 10 -13l-276 -690c-2 -4 -5 -7 -9 -7h-7c-6 0 -8 2 -9 7l-82 595h-2l-244 -595c-2 -5 -4 -7 -9 -7h-7
c-6 0 -9 3 -9 7z" />
    <glyph glyph-name="X" unicode="X" horiz-adv-x="524" 
d="M6 0c-10 0 -12 7 -6 15l244 344l-139 326c-3 8 1 15 11 15h24c4 0 9 -2 11 -6l124 -298h1l205 298c3 5 9 6 14 6h31c10 0 13 -7 7 -15l-232 -327l149 -343c4 -8 0 -15 -10 -15h-26c-5 0 -10 1 -12 6l-134 312h-1l-216 -312c-3 -4 -8 -6 -13 -6h-32z" />
    <glyph glyph-name="Y" unicode="Y" horiz-adv-x="512" 
d="M192 13l45 327l-181 347c-4 8 0 13 9 13h28c7 0 10 -4 11 -6l160 -307l248 307c4 4 9 6 14 6h33c10 0 14 -7 7 -15l-282 -344l-46 -328c-1 -7 -8 -13 -15 -13h-20c-7 0 -12 4 -11 13z" />
    <glyph glyph-name="Z" unicode="Z" horiz-adv-x="491" 
d="M7 0c-10 0 -13 5 -12 12l2 18l444 623v3h-315c-8 0 -11 5 -10 13l2 22c1 7 6 9 13 9h370c9 0 12 -5 11 -12l-2 -17l-445 -624v-3h325c8 0 12 -6 11 -13l-2 -18c-1 -7 -7 -13 -15 -13h-377z" />
    <glyph glyph-name="bracketleft" unicode="[" horiz-adv-x="307" 
d="M48 -259h144c7 0 12 -6 11 -13l-2 -15c-1 -7 -7 -13 -15 -13h-174c-7 0 -12 6 -11 13l137 974c1 7 8 13 15 13h174c7 0 12 -6 11 -13l-2 -15c-1 -7 -7 -13 -15 -13h-144z" />
    <glyph glyph-name="backslash" unicode="\" horiz-adv-x="303" 
d="M186 9l-101 681c-1 7 0 10 9 10h18c6 0 10 -3 11 -8l100 -682c1 -6 -1 -10 -9 -10h-17c-5 0 -10 3 -11 9z" />
    <glyph glyph-name="bracketright" unicode="]" horiz-adv-x="307" 
d="M-36 -259h143l129 918h-143c-7 0 -12 6 -11 13l2 15c1 7 8 13 15 13h173c7 0 12 -6 11 -13l-137 -974c-1 -7 -8 -13 -15 -13h-173c-7 0 -12 6 -11 13l2 15c1 7 8 13 15 13z" />
    <glyph glyph-name="asciicircum" unicode="^" horiz-adv-x="472" 
d="M59 400c-10 0 -10 7 -3 16l229 291c3 4 7 7 11 7h1c5 0 7 -3 9 -7l151 -291c5 -8 2 -16 -8 -16h-21c-8 0 -13 4 -15 8l-122 240h-1l-189 -240c-3 -4 -9 -8 -16 -8h-26z" />
    <glyph glyph-name="underscore" unicode="_" horiz-adv-x="359" 
d="M-1 -10h281c7 0 12 -6 11 -13l-2 -10c-1 -7 -7 -12 -14 -12h-281c-8 0 -12 5 -11 12l1 10c1 7 7 13 15 13z" />
    <glyph glyph-name="grave" unicode="`" horiz-adv-x="272" 
d="M239 560l-142 79c-5 3 -5 9 -1 15l12 19c4 7 12 7 17 3l132 -90c6 -4 6 -9 4 -14l-6 -9c-4 -5 -7 -7 -16 -3z" />
    <glyph glyph-name="a" unicode="a" 
d="M391 387l-52 -374c-1 -7 -7 -13 -14 -13h-11c-8 0 -13 5 -12 14l2 34c-11 -13 -61 -58 -130 -58c-82 0 -139 79 -139 178c0 133 93 242 204 242c66 0 102 -38 109 -48l8 27c2 8 8 11 14 11h11c6 0 11 -6 10 -13zM308 103l30 210c-2 4 -32 55 -100 55
c-92 0 -159 -88 -159 -194c0 -77 39 -143 104 -143c73 0 123 68 125 72z" />
    <glyph glyph-name="b" unicode="b" horiz-adv-x="452" 
d="M38 13l95 674c1 7 6 13 13 13h19c7 0 12 -6 11 -13l-45 -317s48 40 115 40c85 0 149 -78 149 -177c0 -133 -90 -243 -198 -243c-69 0 -107 45 -114 59l-8 -36c-3 -9 -8 -13 -16 -13h-10c-7 0 -12 6 -11 13zM94 101c1 -4 30 -70 105 -70c83 0 152 90 152 195
c0 80 -45 141 -116 141c-62 0 -109 -42 -109 -42z" />
    <glyph glyph-name="c" unicode="c" horiz-adv-x="423" 
d="M35 171c0 141 104 239 220 239c68 0 107 -39 123 -62c4 -6 1 -12 -5 -18l-8 -7c-8 -7 -15 -4 -20 2c-9 11 -41 43 -94 43c-87 0 -171 -83 -171 -192c0 -82 51 -145 121 -145c64 0 104 49 115 61c8 8 13 8 19 2l12 -11c5 -4 6 -10 1 -16c-19 -24 -74 -77 -152 -77
c-87 0 -161 78 -161 181z" />
    <glyph glyph-name="d" unicode="d" horiz-adv-x="452" 
d="M36 168c0 135 90 242 209 242c66 0 102 -40 102 -40l45 317c2 10 5 13 13 13h19c6 0 11 -6 10 -13l-94 -674c-1 -7 -7 -13 -14 -13h-11c-8 0 -13 5 -12 14l2 34c-11 -13 -61 -58 -130 -58c-82 0 -139 79 -139 178zM184 31c73 0 123 68 125 72l32 220s-35 45 -98 45
c-90 0 -163 -86 -163 -197c0 -77 39 -140 104 -140z" />
    <glyph glyph-name="e" unicode="e" horiz-adv-x="414" 
d="M35 167c0 131 86 243 209 243c70 0 125 -41 125 -103c0 -149 -290 -120 -290 -120c-8 -86 37 -156 115 -156c46 0 90 25 109 39c9 6 12 5 16 -2l9 -15c3 -5 4 -10 -3 -16c-13 -12 -71 -47 -140 -47c-93 0 -150 79 -150 177zM84 225c109 -9 242 5 242 80
c0 35 -36 63 -87 63c-76 0 -138 -61 -155 -143z" />
    <glyph glyph-name="f" unicode="f" horiz-adv-x="292" 
d="M16 -287l92 648h-54c-9 0 -12 7 -11 13l2 13c1 7 8 13 14 13h54l20 142c16 114 77 168 160 168c45 0 81 -24 95 -43c4 -6 3 -12 -1 -16l-12 -12c-5 -5 -11 -6 -17 0c-11 11 -39 31 -65 31c-60 0 -104 -41 -117 -133l-19 -137h128c8 0 12 -5 11 -12l-2 -15
c-1 -7 -6 -12 -14 -12h-128l-92 -648c-1 -7 -8 -13 -15 -13h-18c-7 0 -12 6 -11 13z" />
    <glyph glyph-name="g" unicode="g" 
d="M35 168c0 133 93 242 204 242c66 0 102 -38 109 -48l8 27c2 8 8 11 14 11h11c6 0 11 -6 10 -13l-62 -457c-20 -142 -94 -190 -177 -190c-69 0 -119 52 -131 66c-6 6 -7 12 1 20l9 9c5 5 11 9 21 -1c6 -6 48 -54 103 -54c50 0 113 25 132 157l12 91
c-10 -10 -51 -38 -111 -38c-94 0 -153 79 -153 178zM79 173c0 -79 45 -142 119 -142c60 0 103 42 107 47l33 234c-2 4 -32 56 -100 56c-92 0 -159 -89 -159 -195z" />
    <glyph glyph-name="h" unicode="h" horiz-adv-x="461" 
d="M38 13l95 674c1 7 7 13 15 13h17c7 0 12 -6 11 -13l-48 -339c11 13 66 62 138 62c87 0 135 -64 118 -183l-30 -214c-1 -7 -8 -13 -15 -13h-18c-7 0 -12 6 -11 13l30 214c13 92 -17 141 -81 141c-75 0 -134 -66 -138 -71l-40 -284c-1 -8 -6 -13 -15 -13h-19
c-7 0 -10 6 -9 13z" />
    <glyph glyph-name="i" unicode="i" horiz-adv-x="193" 
d="M141 596c-17 0 -28 13 -28 29c0 21 18 39 38 39c16 0 28 -14 28 -31c0 -20 -18 -37 -38 -37zM37 13l53 374c1 7 8 13 15 13h18c7 0 12 -6 11 -13l-53 -374c-1 -8 -5 -13 -14 -13h-21c-7 0 -10 6 -9 13z" />
    <glyph glyph-name="j" unicode="j" horiz-adv-x="192" 
d="M141 596c-17 0 -28 13 -28 29c0 21 18 39 37 39c17 0 29 -14 29 -31c0 -20 -18 -37 -38 -37zM17 -137l74 524c1 7 7 13 14 13h17c7 0 12 -6 11 -13l-73 -524c-17 -118 -71 -173 -155 -173c-46 0 -83 27 -97 43c-5 6 -3 10 0 14l12 15c4 6 11 6 16 0c14 -13 40 -31 73 -31
c54 0 95 39 108 132z" />
    <glyph glyph-name="k" unicode="k" horiz-adv-x="393" 
d="M38 13l95 674c1 7 6 13 13 13h19c7 0 12 -6 11 -13l-63 -448l203 155c5 4 11 6 16 6h33c10 0 11 -10 3 -16l-218 -164l181 -203c7 -7 0 -17 -8 -17h-23c-8 0 -12 0 -19 8l-173 199l-27 -194c-1 -8 -6 -13 -15 -13h-19c-7 0 -10 6 -9 13z" />
    <glyph glyph-name="l" unicode="l" horiz-adv-x="194" 
d="M38 13l95 674c1 7 6 13 12 13h21c6 0 12 -6 11 -13l-95 -674c-1 -8 -6 -13 -15 -13h-20c-7 0 -10 6 -9 13z" />
    <glyph glyph-name="m" unicode="m" horiz-adv-x="702" 
d="M38 13l52 374c1 7 8 13 15 13h12c6 0 9 -4 9 -10l-1 -40c11 15 59 60 132 60c55 0 88 -27 104 -70c12 16 75 70 148 70c94 0 131 -71 115 -183l-30 -214c-1 -7 -8 -13 -15 -13h-20c-6 0 -10 5 -9 13l30 214c13 92 -15 141 -78 141c-68 0 -114 -53 -129 -69
c3 -21 2 -45 -2 -72l-30 -214c-1 -7 -8 -13 -15 -13h-19c-7 0 -11 5 -10 13l30 214c13 92 -16 141 -77 141c-76 0 -124 -62 -128 -70l-40 -285c-2 -8 -6 -13 -15 -13h-20c-7 0 -10 6 -9 13z" />
    <glyph glyph-name="n" unicode="n" horiz-adv-x="460" 
d="M37 13l53 374c1 7 8 13 15 13h10c7 0 11 -4 11 -10l-2 -40c12 14 68 60 141 60c96 0 134 -71 118 -183l-30 -214c-1 -7 -8 -13 -15 -13h-18c-7 0 -12 6 -11 13l30 214c13 92 -17 141 -83 141c-72 0 -132 -65 -136 -70l-40 -285c-1 -8 -6 -13 -15 -13h-19
c-7 0 -10 6 -9 13z" />
    <glyph glyph-name="o" unicode="o" horiz-adv-x="458" 
d="M35 171c0 130 96 239 213 239c87 0 153 -82 153 -181c0 -131 -97 -239 -212 -239c-87 0 -154 81 -154 181zM79 175c0 -80 46 -144 115 -144c85 0 162 87 162 194c0 79 -46 143 -114 143c-86 0 -163 -87 -163 -193z" />
    <glyph glyph-name="p" unicode="p" horiz-adv-x="452" 
d="M82 31l-44 -318c-1 -7 -8 -13 -15 -13h-17c-7 0 -12 6 -11 13l95 674c1 8 8 13 15 13h11c7 0 11 -3 11 -10l-1 -27c10 10 57 47 122 47c87 0 147 -80 147 -178c0 -135 -97 -242 -213 -242c-59 0 -93 31 -100 41zM91 80c1 -4 33 -49 92 -49c94 0 167 88 167 198
c0 77 -40 139 -111 139c-68 0 -113 -50 -116 -55z" />
    <glyph glyph-name="q" unicode="q" 
d="M35 168c0 133 90 242 204 242c66 0 102 -38 109 -48l8 27c2 8 8 11 14 11h11c6 0 11 -6 10 -13l-94 -674c-1 -7 -8 -13 -14 -13h-18c-7 0 -12 6 -11 13l45 315c-10 -10 -51 -38 -111 -38c-89 0 -153 79 -153 178zM79 173c0 -79 45 -142 119 -142c60 0 103 42 107 47
l33 234c-2 4 -32 56 -100 56c-92 0 -159 -89 -159 -195z" />
    <glyph glyph-name="r" unicode="r" horiz-adv-x="305" 
d="M37 13l53 374c1 7 8 13 14 13h13c5 0 10 -4 10 -11l-2 -38c9 14 52 59 120 59c27 0 45 -8 53 -12s12 -10 8 -18l-10 -20c-4 -7 -10 -9 -17 -5c-5 3 -21 13 -43 13c-70 0 -112 -64 -115 -70l-40 -285c-1 -8 -5 -13 -14 -13h-21c-7 0 -10 6 -9 13z" />
    <glyph glyph-name="s" unicode="s" horiz-adv-x="346" 
d="M24 35c-3 3 -6 9 -2 14l13 16c3 5 11 7 17 1c7 -8 39 -37 89 -37c53 0 95 34 95 78c0 39 -37 57 -88 82c-52 25 -94 54 -94 107s40 114 132 114c48 0 81 -19 98 -32c6 -4 7 -11 2 -18l-9 -13c-5 -7 -12 -8 -18 -3c-7 5 -39 25 -77 25c-59 0 -85 -40 -85 -70
c0 -34 30 -54 74 -75c57 -27 109 -50 109 -112c0 -71 -62 -122 -142 -122c-60 0 -96 28 -114 45z" />
    <glyph glyph-name="t" unicode="t" horiz-adv-x="309" 
d="M64 103l37 258h-44c-10 0 -11 5 -9 13l2 16c1 7 6 10 13 10h43l15 109c1 8 8 13 15 13l17 1c7 0 12 -6 11 -13l-15 -110h121c8 0 12 -6 11 -13l-2 -13c-1 -8 -7 -13 -14 -13h-122l-36 -255c-6 -47 -5 -73 31 -73c33 0 71 20 84 28c8 5 12 1 15 -4l7 -13
c4 -7 2 -12 -5 -17c-16 -11 -59 -37 -109 -37c-70 0 -75 49 -66 113z" />
    <glyph glyph-name="u" unicode="u" 
d="M172 -10c-96 0 -133 69 -117 182l30 215c1 7 8 13 14 13h19c7 0 12 -6 11 -13l-31 -215c-13 -93 18 -141 83 -141c74 0 124 66 127 71l40 285c1 8 6 13 14 13h19c6 0 11 -6 10 -13l-52 -374c-1 -7 -8 -13 -15 -13h-12c-7 0 -10 6 -10 12l2 36c-10 -14 -60 -58 -132 -58z
" />
    <glyph glyph-name="v" unicode="v" horiz-adv-x="376" 
d="M131 -1l-100 386c-2 8 0 15 9 15h21c4 0 9 -2 11 -9l79 -321h1l174 321c4 7 9 9 14 9h23c9 0 11 -7 6 -15l-210 -386c-3 -6 -8 -9 -13 -9h-5c-5 0 -9 5 -10 9z" />
    <glyph glyph-name="w" unicode="w" horiz-adv-x="556" 
d="M106 -1l-55 385c-2 9 2 16 10 16h20c4 0 10 -2 11 -9l40 -301h2l147 311c3 7 7 9 12 9h4c4 0 8 -2 9 -9l63 -311h1l123 301c3 7 9 9 14 9h23c9 0 10 -7 6 -16l-163 -385c-3 -6 -7 -9 -12 -9h-4c-3 0 -7 3 -8 9l-64 322h-1l-154 -322c-3 -6 -7 -9 -12 -9h-4
c-3 0 -7 3 -8 9z" />
    <glyph glyph-name="x" unicode="x" horiz-adv-x="387" 
d="M5 0c-8 0 -12 7 -5 14l159 193l-99 179c-5 7 0 14 8 14h25c4 0 9 -3 12 -9l81 -151h1l123 151c5 6 10 9 16 9h28c8 0 12 -7 5 -14l-151 -182l105 -190c5 -7 0 -14 -8 -14h-27c-4 0 -8 3 -11 9l-86 164h-1l-131 -164c-5 -6 -10 -9 -16 -9h-28z" />
    <glyph glyph-name="y" unicode="y" horiz-adv-x="408" 
d="M145 4l-116 380c-2 8 1 16 10 16h21c5 0 9 -3 11 -9l100 -339h2l186 339c3 6 9 9 14 9h22c9 0 12 -8 7 -16l-376 -676c-3 -5 -8 -8 -14 -8h-21c-8 0 -12 5 -7 14z" />
    <glyph glyph-name="z" unicode="z" horiz-adv-x="343" 
d="M8 0c-9 0 -11 5 -10 11l2 11l255 337v1h-180c-7 0 -11 6 -10 13l2 14c2 9 6 13 13 13h232c10 0 15 -10 8 -19l-254 -339v-2h180c8 0 12 -5 11 -13l-2 -14c-1 -7 -7 -13 -14 -13h-233z" />
    <glyph glyph-name="braceleft" unicode="{" horiz-adv-x="340" 
d="M52 -68l23 164c9 64 -37 81 -53 89c-6 3 -8 8 -7 12l2 11c1 5 4 8 11 10c21 6 69 31 77 90l22 160c25 184 141 242 234 242c7 0 13 -3 12 -10l-3 -17c-1 -5 -4 -8 -10 -9c-99 -8 -171 -70 -190 -207l-22 -159c-10 -70 -65 -107 -73 -110v-1c5 -4 53 -33 43 -101l-23 -163
c-19 -137 35 -199 132 -207c5 -1 9 -5 8 -12l-2 -13c-1 -7 -7 -11 -15 -11c-94 0 -192 58 -166 242z" />
    <glyph glyph-name="bar" unicode="|" horiz-adv-x="190" 
d="M0 -288l145 1034c2 8 8 13 15 13h6c6 0 11 -5 9 -13l-145 -1034c-1 -7 -7 -12 -14 -12h-5c-7 0 -12 5 -11 12z" />
    <glyph glyph-name="braceright" unicode="}" horiz-adv-x="344" 
d="M150 -67l23 166c9 68 63 99 70 103v1c-7 3 -50 38 -40 108l25 156c20 137 -35 198 -132 206c-5 1 -7 4 -7 9l3 18c1 7 8 10 15 10c93 0 192 -58 164 -242l-24 -160c-8 -59 32 -84 52 -90c6 -2 8 -5 8 -10l-1 -13c0 -4 -4 -7 -11 -10c-18 -7 -69 -25 -78 -89l-24 -164
c-27 -184 -142 -242 -236 -242c-8 0 -13 4 -12 11l2 15c1 7 6 11 12 12c99 8 172 77 191 205z" />
    <glyph glyph-name="asciitilde" unicode="~" horiz-adv-x="532" 
d="M75 239l-11 10c-4 4 -4 9 0 16c0 0 50 95 131 95c42 0 72 -32 90 -54c14 -17 35 -44 64 -44c53 0 90 66 96 76c5 8 11 7 17 3l15 -9c5 -4 4 -8 0 -16c0 0 -49 -95 -131 -95c-42 0 -70 32 -88 53c-16 18 -35 45 -66 45c-53 0 -92 -66 -98 -77c-4 -7 -13 -8 -19 -3z" />
    <glyph glyph-name="uni00A0" unicode="&#xa0;" horiz-adv-x="243" 
d="M223 558l-141 77c-7 4 -11 10 -6 18l12 20c4 7 12 6 16 3l136 -87c6 -4 8 -8 4 -14l-8 -13c-4 -6 -7 -7 -13 -4z" />
    <glyph glyph-name="Agrave" unicode="&#xc0;" horiz-adv-x="601" 
d="M9 0h-29c-7 0 -9 6 -5 14l375 694c2 4 5 7 13 7h3c5 0 10 0 12 -7l177 -696c2 -6 0 -12 -11 -12h-26c-9 0 -12 5 -13 9l-46 184h-338l-96 -184c-2 -4 -7 -9 -16 -9zM144 232h304l-93 403h-3zM445 783l-142 79c-5 3 -5 9 -1 15l12 19c4 7 11 7 17 3l132 -90
c6 -4 6 -9 4 -14l-6 -9c-4 -5 -7 -7 -16 -3z" />
    <glyph glyph-name="Aacute" unicode="&#xc1;" horiz-adv-x="601" 
d="M9 0h-29c-7 0 -9 6 -5 14l375 694c2 4 5 7 13 7h3c5 0 10 0 12 -7l177 -696c2 -6 0 -12 -11 -12h-26c-9 0 -12 5 -13 9l-46 184h-338l-96 -184c-2 -4 -7 -9 -16 -9zM144 232h304l-93 403h-3zM309 781c-9 -4 -13 -3 -15 3l-4 11c-2 5 0 10 8 14l157 90c4 2 13 4 16 -3
l9 -21c2 -6 0 -12 -6 -15z" />
    <glyph glyph-name="Acircumflex" unicode="&#xc2;" horiz-adv-x="601" 
d="M9 0h-29c-7 0 -9 6 -5 14l375 694c2 4 5 7 13 7h3c5 0 10 0 12 -7l177 -696c2 -6 0 -12 -11 -12h-26c-9 0 -12 5 -13 9l-46 184h-338l-96 -184c-2 -4 -7 -9 -16 -9zM144 232h304l-93 403h-3zM272 768c-9 -6 -12 -2 -15 2l-7 11c-3 5 -1 10 4 14l123 98c5 4 9 5 12 5
c4 0 6 -2 9 -5l96 -98c4 -4 7 -9 2 -14l-7 -8c-4 -4 -8 -8 -15 -2l-89 81z" />
    <glyph glyph-name="Atilde" unicode="&#xc3;" horiz-adv-x="601" 
d="M9 0h-29c-7 0 -9 6 -5 14l375 694c2 4 5 7 13 7h3c5 0 10 0 12 -7l177 -696c2 -6 0 -12 -11 -12h-26c-9 0 -12 5 -13 9l-46 184h-338l-96 -184c-2 -4 -7 -9 -16 -9zM144 232h304l-93 403h-3zM261 799l-11 5c-6 2 -7 8 -4 14c9 18 34 86 94 86c62 0 51 -91 91 -91
c32 0 49 41 56 59c3 7 9 10 15 7l12 -4c3 -2 7 -5 4 -13s-29 -86 -93 -86c-60 0 -54 92 -91 92c-34 0 -52 -45 -59 -63c-2 -6 -8 -9 -14 -6z" />
    <glyph glyph-name="Adieresis" unicode="&#xc4;" horiz-adv-x="601" 
d="M9 0h-29c-7 0 -9 6 -5 14l375 694c2 4 5 7 13 7h3c5 0 10 0 12 -7l177 -696c2 -6 0 -12 -11 -12h-26c-9 0 -12 5 -13 9l-46 184h-338l-96 -184c-2 -4 -7 -9 -16 -9zM144 232h304l-93 403h-3zM470 801c-16 0 -28 13 -28 29c0 22 18 39 38 39c17 0 29 -13 29 -30
c0 -21 -18 -38 -39 -38zM282 801c-17 0 -28 13 -28 29c0 22 18 39 38 39c17 0 29 -13 29 -30c0 -21 -18 -38 -39 -38z" />
    <glyph glyph-name="Amacron" unicode="&#x100;" horiz-adv-x="601" 
d="M9 0h-29c-7 0 -9 6 -5 14l375 694c2 4 5 7 13 7h3c5 0 10 0 12 -7l177 -696c2 -6 0 -12 -11 -12h-26c-9 0 -12 5 -13 9l-46 184h-338l-96 -184c-2 -4 -7 -9 -16 -9zM144 232h304l-93 403h-3zM260 831c-8 0 -12 6 -11 13l2 12c1 8 6 13 14 13h243c6 0 12 -5 10 -13l-1 -12
c-1 -7 -8 -13 -15 -13h-242z" />
    <glyph glyph-name="Abreve" unicode="&#x102;" horiz-adv-x="601" 
d="M9 0h-29c-7 0 -9 6 -5 14l375 694c2 4 5 7 13 7h3c5 0 10 0 12 -7l177 -696c2 -6 0 -12 -11 -12h-26c-9 0 -12 5 -13 9l-46 184h-338l-96 -184c-2 -4 -7 -9 -16 -9zM144 232h304l-93 403h-3zM376 775c-58 0 -104 49 -103 111c0 7 3 14 11 14h11c7 0 9 -6 10 -12
c6 -44 31 -78 74 -78c39 0 78 34 94 78c3 7 7 12 13 12h16c7 0 10 -7 8 -14c-19 -63 -69 -111 -134 -111z" />
    <glyph glyph-name="Aring" unicode="&#xc5;" horiz-adv-x="601" 
d="M9 0h-29c-7 0 -9 6 -5 14l375 694c2 4 5 7 13 7h3c5 0 10 0 12 -7l177 -696c2 -6 0 -12 -11 -12h-26c-9 0 -12 5 -13 9l-46 184h-338l-96 -184c-2 -4 -7 -9 -16 -9zM144 232h304l-93 403h-3zM372 754c-49 0 -83 40 -83 91c0 68 49 122 113 122c48 0 82 -41 82 -92
c0 -68 -48 -121 -112 -121zM377 786c42 0 73 39 73 84c0 34 -22 64 -52 64c-43 0 -76 -38 -76 -83c0 -35 23 -65 55 -65z" />
    <glyph glyph-name="Aringacute" unicode="&#x1fa;" horiz-adv-x="601" 
d="M312 909l-4 11c-2 5 0 10 8 14l157 90c4 2 13 4 16 -3l9 -21c2 -6 0 -12 -6 -15l-165 -79c-9 -4 -13 -3 -15 3zM9 0h-29c-7 0 -9 6 -5 14l365 676c-35 11 -58 46 -58 88c0 68 49 122 113 122c48 0 82 -41 82 -92c0 -62 -40 -111 -94 -120l172 -676c2 -6 0 -12 -11 -12
h-26c-9 0 -12 5 -13 9l-46 184h-338l-96 -184c-2 -4 -7 -9 -16 -9zM370 719c42 0 73 39 73 84c0 34 -22 64 -52 64c-43 0 -76 -38 -76 -83c0 -35 23 -65 55 -65zM144 232h304l-93 403h-3z" />
    <glyph glyph-name="Aogonek" unicode="&#x104;" horiz-adv-x="601" 
d="M9 0h-29c-7 0 -9 6 -5 14l375 694c2 4 5 7 13 7h3c5 0 10 0 12 -7l177 -696c2 -6 0 -12 -11 -12h-26c-9 0 -12 5 -13 9l-46 184h-338l-96 -184c-2 -4 -7 -9 -16 -9zM144 232h304l-93 403h-3zM511 12l31 -4s-6 -3 -13 -8c-29 -18 -73 -62 -73 -124c0 -37 26 -56 56 -56
c26 0 46 10 57 15c9 4 10 -2 10 -14c0 -10 -4 -15 -11 -20c-13 -10 -38 -17 -66 -17c-46 0 -85 24 -85 82c0 60 40 119 94 146z" />
    <glyph glyph-name="AE" unicode="&#xc6;" horiz-adv-x="835" 
d="M-6 0h-29c-9 0 -8 8 -1 17l472 666c7 9 13 17 28 17h352c8 0 12 -6 11 -13l-2 -16c-1 -7 -7 -13 -15 -13h-328l-39 -277h282c10 0 17 -5 15 -15l-2 -13c-1 -8 -6 -15 -16 -15h-285l-41 -296h328c8 0 13 -6 11 -15l-3 -14c-1 -7 -7 -13 -14 -13h-359c-7 0 -12 6 -11 13
l25 180h-235l-127 -184c-6 -7 -12 -9 -17 -9zM166 232h213l53 382z" />
    <glyph glyph-name="AEacute" unicode="&#x1fc;" horiz-adv-x="835" 
d="M-6 0h-29c-9 0 -8 8 -1 17l472 666c7 9 13 17 28 17h352c8 0 12 -6 11 -13l-2 -16c-1 -7 -7 -13 -15 -13h-328l-39 -277h282c10 0 17 -5 15 -15l-2 -13c-1 -8 -6 -15 -16 -15h-285l-41 -296h328c8 0 13 -6 11 -15l-3 -14c-1 -7 -7 -13 -14 -13h-359c-7 0 -12 6 -11 13
l25 180h-235l-127 -184c-6 -7 -12 -9 -17 -9zM166 232h213l53 382zM583 782c-9 -4 -13 -3 -15 3l-4 11c-2 5 0 10 8 14l157 90c4 2 13 4 16 -3l9 -21c2 -6 0 -12 -6 -15z" />
    <glyph glyph-name="Cacute" unicode="&#x106;" horiz-adv-x="659" 
d="M65 301c0 230 176 409 379 409c91 0 157 -34 207 -93c4 -5 4 -13 -1 -18l-17 -15c-7 -6 -11 -5 -17 1c-42 51 -105 80 -177 80c-170 0 -323 -164 -323 -359c0 -148 96 -267 234 -267c77 0 142 36 195 84c7 6 13 5 16 2l19 -21c4 -4 3 -12 -2 -17
c-71 -65 -152 -97 -232 -97c-162 0 -281 138 -281 311zM390 781c-9 -4 -13 -3 -15 3l-4 11c-2 5 0 10 8 14l157 90c4 2 13 4 16 -3l9 -21c2 -6 0 -12 -6 -15z" />
    <glyph glyph-name="Ccircumflex" unicode="&#x108;" horiz-adv-x="659" 
d="M65 301c0 230 176 409 379 409c91 0 157 -34 207 -93c4 -5 4 -13 -1 -18l-17 -15c-7 -6 -11 -5 -17 1c-42 51 -105 80 -177 80c-170 0 -323 -164 -323 -359c0 -148 96 -267 234 -267c77 0 142 36 195 84c7 6 13 5 16 2l19 -21c4 -4 3 -12 -2 -17
c-71 -65 -152 -97 -232 -97c-162 0 -281 138 -281 311zM356 768c-9 -6 -12 -2 -15 2l-7 11c-3 5 -1 10 4 14l123 98c5 4 9 5 12 5c4 0 6 -2 9 -5l96 -98c4 -4 7 -9 2 -14l-7 -8c-4 -4 -8 -8 -15 -2l-89 81z" />
    <glyph glyph-name="Ccaron" unicode="&#x10c;" horiz-adv-x="659" 
d="M65 301c0 230 176 409 379 409c91 0 157 -34 207 -93c4 -5 4 -13 -1 -18l-17 -15c-7 -6 -11 -5 -17 1c-42 51 -105 80 -177 80c-170 0 -323 -164 -323 -359c0 -148 96 -267 234 -267c77 0 142 36 195 84c7 6 13 5 16 2l19 -21c4 -4 3 -12 -2 -17
c-71 -65 -152 -97 -232 -97c-162 0 -281 138 -281 311zM455 762c-4 0 -6 2 -9 5l-96 98c-4 4 -7 9 -2 14l7 8c4 4 8 8 15 2l89 -81l113 84c9 6 12 2 15 -2l7 -11c3 -5 1 -10 -4 -14l-123 -98c-5 -4 -9 -5 -12 -5z" />
    <glyph glyph-name="Cdotaccent" unicode="&#x10a;" horiz-adv-x="659" 
d="M65 301c0 230 176 409 379 409c91 0 157 -34 207 -93c4 -5 4 -13 -1 -18l-17 -15c-7 -6 -11 -5 -17 1c-42 51 -105 80 -177 80c-170 0 -323 -164 -323 -359c0 -148 96 -267 234 -267c77 0 142 36 195 84c7 6 13 5 16 2l19 -21c4 -4 3 -12 -2 -17
c-71 -65 -152 -97 -232 -97c-162 0 -281 138 -281 311zM463 810c-19 0 -32 15 -32 33c0 24 20 43 43 43c18 0 32 -15 32 -33c0 -24 -21 -43 -43 -43z" />
    <glyph glyph-name="Ccedilla" unicode="&#xc7;" horiz-adv-x="661" 
d="M291 -71l9 65c-138 24 -234 151 -234 307c0 230 176 409 379 409c91 0 157 -34 207 -93c4 -5 4 -13 -1 -18l-17 -15c-7 -6 -11 -5 -17 1c-42 51 -105 80 -177 80c-170 0 -323 -164 -323 -359c0 -148 96 -267 234 -267c77 0 142 36 195 84c7 6 13 5 16 2l19 -21
c4 -4 3 -12 -2 -17c-71 -65 -152 -97 -232 -97c-4 0 -8 1 -12 1l-6 -45c41 -5 84 -34 84 -84c0 -60 -41 -110 -104 -110c-36 0 -60 19 -66 34c-3 8 -3 14 3 18l10 8c8 6 10 1 15 -6c6 -8 16 -18 43 -18c37 0 60 32 60 68c0 41 -39 55 -73 60c-9 2 -11 7 -10 13z" />
    <glyph glyph-name="Dcaron" unicode="&#x10e;" horiz-adv-x="684" 
d="M67 13l95 674c1 7 7 13 13 13h193c153 0 271 -137 271 -304c0 -218 -173 -396 -369 -396h-193c-6 0 -11 6 -10 13zM118 43h149c172 0 322 153 322 351c0 148 -95 263 -236 263h-149zM360 762c-4 0 -6 2 -9 5l-96 98c-4 4 -7 9 -2 14l7 8c4 4 8 8 15 2l89 -81l113 84
c9 6 12 2 15 -2l7 -11c3 -5 1 -10 -4 -14l-123 -98c-5 -4 -9 -5 -12 -5z" />
    <glyph glyph-name="Dcroat" unicode="&#x110;" horiz-adv-x="694" 
d="M69 13l45 319h-31c-7 0 -11 6 -10 13l1 7c1 7 7 11 14 11h30l46 324c1 7 6 13 13 13h200c158 0 272 -137 272 -304c0 -218 -179 -396 -370 -396h-200c-7 0 -11 6 -10 13zM120 43h157c171 0 320 153 320 351c0 148 -95 263 -234 263h-157l-41 -294h219c7 0 12 -4 11 -11
l-1 -8c-1 -7 -8 -12 -14 -12h-219z" />
    <glyph glyph-name="Eth" unicode="&#xd0;" horiz-adv-x="694" 
d="M69 13l45 319h-31c-7 0 -11 6 -10 13l1 7c1 7 7 11 14 11h30l46 324c1 7 6 13 13 13h200c158 0 272 -137 272 -304c0 -218 -179 -396 -370 -396h-200c-7 0 -11 6 -10 13zM120 43h157c171 0 320 153 320 351c0 148 -95 263 -234 263h-157l-41 -294h219c7 0 12 -4 11 -11
l-1 -8c-1 -7 -8 -12 -14 -12h-219z" />
    <glyph glyph-name="Egrave" unicode="&#xc8;" horiz-adv-x="555" 
d="M67 13l95 674c1 7 8 13 14 13h360c7 0 12 -6 11 -13l-2 -17c-1 -7 -8 -13 -15 -13h-324l-39 -276h280c7 0 12 -6 11 -13l-2 -17c-1 -7 -8 -13 -15 -13h-280l-42 -296h325c7 0 12 -6 11 -13l-3 -16c-1 -7 -7 -13 -14 -13h-360c-7 0 -12 6 -11 13zM431 783l-142 79
c-5 3 -5 9 -1 15l12 19c4 7 11 7 17 3l132 -90c6 -4 6 -9 4 -14l-6 -9c-4 -5 -7 -7 -16 -3z" />
    <glyph glyph-name="Eacute" unicode="&#xc9;" horiz-adv-x="555" 
d="M67 13l95 674c1 7 8 13 14 13h360c7 0 12 -6 11 -13l-2 -17c-1 -7 -8 -13 -15 -13h-324l-39 -276h280c7 0 12 -6 11 -13l-2 -17c-1 -7 -8 -13 -15 -13h-280l-42 -296h325c7 0 12 -6 11 -13l-3 -16c-1 -7 -7 -13 -14 -13h-360c-7 0 -12 6 -11 13zM295 781
c-9 -4 -13 -3 -15 3l-4 11c-2 5 0 10 8 14l157 90c4 2 13 4 16 -3l9 -21c2 -6 0 -12 -6 -15z" />
    <glyph glyph-name="Ecircumflex" unicode="&#xca;" horiz-adv-x="555" 
d="M67 13l95 674c1 7 8 13 14 13h360c7 0 12 -6 11 -13l-2 -17c-1 -7 -8 -13 -15 -13h-324l-39 -276h280c7 0 12 -6 11 -13l-2 -17c-1 -7 -8 -13 -15 -13h-280l-42 -296h325c7 0 12 -6 11 -13l-3 -16c-1 -7 -7 -13 -14 -13h-360c-7 0 -12 6 -11 13zM254 768
c-9 -6 -12 -2 -15 2l-7 11c-3 5 -1 10 4 14l123 98c5 4 9 5 12 5c4 0 6 -2 9 -5l96 -98c4 -4 7 -9 2 -14l-7 -8c-4 -4 -8 -8 -15 -2l-89 81z" />
    <glyph glyph-name="Ecaron" unicode="&#x11a;" horiz-adv-x="555" 
d="M67 13l95 674c1 7 8 13 14 13h360c7 0 12 -6 11 -13l-2 -17c-1 -7 -8 -13 -15 -13h-324l-39 -276h280c7 0 12 -6 11 -13l-2 -17c-1 -7 -8 -13 -15 -13h-280l-42 -296h325c7 0 12 -6 11 -13l-3 -16c-1 -7 -7 -13 -14 -13h-360c-7 0 -12 6 -11 13zM360 762c-4 0 -6 2 -9 5
l-96 98c-4 4 -7 9 -2 14l7 8c4 4 8 8 15 2l89 -81l113 84c9 6 12 2 15 -2l7 -11c3 -5 1 -10 -4 -14l-123 -98c-5 -4 -9 -5 -12 -5z" />
    <glyph glyph-name="Edieresis" unicode="&#xcb;" horiz-adv-x="555" 
d="M67 13l95 674c1 7 8 13 14 13h360c7 0 12 -6 11 -13l-2 -17c-1 -7 -8 -13 -15 -13h-324l-39 -276h280c7 0 12 -6 11 -13l-2 -17c-1 -7 -8 -13 -15 -13h-280l-42 -296h325c7 0 12 -6 11 -13l-3 -16c-1 -7 -7 -13 -14 -13h-360c-7 0 -12 6 -11 13zM456 801
c-16 0 -28 13 -28 29c0 22 18 39 38 39c17 0 29 -13 29 -30c0 -21 -18 -38 -39 -38zM268 801c-17 0 -28 13 -28 29c0 22 18 39 38 39c17 0 29 -13 29 -30c0 -21 -18 -38 -39 -38z" />
    <glyph glyph-name="Emacron" unicode="&#x112;" horiz-adv-x="555" 
d="M67 13l95 674c1 7 8 13 14 13h360c7 0 12 -6 11 -13l-2 -17c-1 -7 -8 -13 -15 -13h-324l-39 -276h280c7 0 12 -6 11 -13l-2 -17c-1 -7 -8 -13 -15 -13h-280l-42 -296h325c7 0 12 -6 11 -13l-3 -16c-1 -7 -7 -13 -14 -13h-360c-7 0 -12 6 -11 13zM250 831
c-8 0 -12 6 -11 13l2 12c1 8 6 13 14 13h243c6 0 12 -5 10 -13l-1 -12c-1 -7 -8 -13 -15 -13h-242z" />
    <glyph glyph-name="Ebreve" unicode="&#x114;" horiz-adv-x="555" 
d="M67 13l95 674c1 7 8 13 14 13h360c7 0 12 -6 11 -13l-2 -17c-1 -7 -8 -13 -15 -13h-324l-39 -276h280c7 0 12 -6 11 -13l-2 -17c-1 -7 -8 -13 -15 -13h-280l-42 -296h325c7 0 12 -6 11 -13l-3 -16c-1 -7 -7 -13 -14 -13h-360c-7 0 -12 6 -11 13zM367 775
c-58 0 -104 49 -103 111c0 7 3 14 11 14h11c7 0 9 -6 10 -12c6 -44 31 -78 74 -78c39 0 78 34 94 78c3 7 7 12 13 12h16c7 0 10 -7 8 -14c-19 -63 -69 -111 -134 -111z" />
    <glyph glyph-name="Edotaccent" unicode="&#x116;" horiz-adv-x="555" 
d="M67 13l95 674c1 7 8 13 14 13h360c7 0 12 -6 11 -13l-2 -17c-1 -7 -8 -13 -15 -13h-324l-39 -276h280c7 0 12 -6 11 -13l-2 -17c-1 -7 -8 -13 -15 -13h-280l-42 -296h325c7 0 12 -6 11 -13l-3 -16c-1 -7 -7 -13 -14 -13h-360c-7 0 -12 6 -11 13zM365 810
c-19 0 -32 15 -32 33c0 24 20 43 43 43c18 0 32 -15 32 -33c0 -24 -21 -43 -43 -43z" />
    <glyph glyph-name="Eogonek" unicode="&#x118;" horiz-adv-x="555" 
d="M67 13l95 674c1 7 8 13 14 13h360c7 0 12 -6 11 -13l-2 -17c-1 -7 -8 -13 -15 -13h-324l-39 -276h280c7 0 12 -6 11 -13l-2 -17c-1 -7 -8 -13 -15 -13h-280l-42 -296h325c7 0 12 -6 11 -13l-2 -12c-2 -9 -7 -13 -16 -17c-29 -18 -73 -62 -73 -124c0 -37 26 -56 56 -56
c26 0 46 10 57 15c9 4 10 -2 10 -14c0 -10 -4 -15 -11 -20c-13 -10 -38 -17 -66 -17c-46 0 -85 24 -85 82c0 69 47 114 75 134h-322c-7 0 -12 6 -11 13z" />
    <glyph glyph-name="Gcircumflex" unicode="&#x11c;" horiz-adv-x="685" 
d="M65 306c0 225 177 404 381 404c90 0 155 -34 205 -93c4 -5 4 -13 -2 -18l-18 -16c-7 -7 -12 -6 -17 0c-41 52 -104 82 -176 82c-169 0 -322 -162 -322 -357c0 -149 95 -270 234 -270c112 0 191 64 191 64l24 177h-143c-11 0 -12 4 -11 13l3 20c1 8 3 12 14 12h179
c7 0 12 -6 11 -12l-30 -215c-2 -17 -9 -24 -17 -31c-19 -16 -113 -76 -226 -76c-158 0 -280 138 -280 316zM355 768c-9 -6 -12 -2 -15 2l-7 11c-3 5 -1 10 4 14l123 98c5 4 9 5 12 5c4 0 6 -2 9 -5l96 -98c4 -4 7 -9 2 -14l-7 -8c-4 -4 -8 -8 -15 -2l-89 81z" />
    <glyph glyph-name="Gbreve" unicode="&#x11e;" horiz-adv-x="685" 
d="M65 306c0 225 177 404 381 404c90 0 155 -34 205 -93c4 -5 4 -13 -2 -18l-18 -16c-7 -7 -12 -6 -17 0c-41 52 -104 82 -176 82c-169 0 -322 -162 -322 -357c0 -149 95 -270 234 -270c112 0 191 64 191 64l24 177h-143c-11 0 -12 4 -11 13l3 20c1 8 3 12 14 12h179
c7 0 12 -6 11 -12l-30 -215c-2 -17 -9 -24 -17 -31c-19 -16 -113 -76 -226 -76c-158 0 -280 138 -280 316zM463 775c-58 0 -104 49 -103 111c0 7 3 14 11 14h11c7 0 9 -6 10 -12c6 -44 31 -78 74 -78c39 0 78 34 94 78c3 7 7 12 13 12h16c7 0 10 -7 8 -14
c-19 -63 -69 -111 -134 -111z" />
    <glyph glyph-name="Gdotaccent" unicode="&#x120;" horiz-adv-x="685" 
d="M65 306c0 225 177 404 381 404c90 0 155 -34 205 -93c4 -5 4 -13 -2 -18l-18 -16c-7 -7 -12 -6 -17 0c-41 52 -104 82 -176 82c-169 0 -322 -162 -322 -357c0 -149 95 -270 234 -270c112 0 191 64 191 64l24 177h-143c-11 0 -12 4 -11 13l3 20c1 8 3 12 14 12h179
c7 0 12 -6 11 -12l-30 -215c-2 -17 -9 -24 -17 -31c-19 -16 -113 -76 -226 -76c-158 0 -280 138 -280 316zM461 810c-19 0 -32 15 -32 33c0 24 20 43 43 43c18 0 32 -15 32 -33c0 -24 -21 -43 -43 -43z" />
    <glyph glyph-name="Gcommaaccent" unicode="&#x122;" horiz-adv-x="685" 
d="M65 306c0 225 177 404 381 404c90 0 155 -34 205 -93c4 -5 4 -13 -2 -18l-18 -16c-7 -7 -12 -6 -17 0c-41 52 -104 82 -176 82c-169 0 -322 -162 -322 -357c0 -149 95 -270 234 -270c112 0 191 64 191 64l24 177h-143c-11 0 -12 4 -11 13l3 20c1 8 3 12 14 12h179
c7 0 12 -6 11 -12l-30 -215c-2 -17 -9 -24 -17 -31c-19 -16 -113 -76 -226 -76c-158 0 -280 138 -280 316zM286 -147c0 28 19 45 46 45c23 0 40 -22 40 -68c0 -97 -64 -153 -88 -165c-7 -4 -13 -5 -16 0l-7 10c-3 5 -1 11 6 16c6 4 50 34 65 95c3 15 3 28 2 38
c-5 -3 -10 -5 -15 -5c-23 0 -33 16 -33 34z" />
    <glyph glyph-name="Hcircumflex" unicode="&#x124;" horiz-adv-x="700" 
d="M67 13l95 674c1 7 6 13 14 13h22c8 0 12 -6 11 -13l-44 -307h398l43 307c1 7 6 13 14 13h22c8 0 12 -6 11 -13l-95 -674c-1 -7 -7 -13 -14 -13h-22c-7 0 -12 6 -11 13l46 325h-397l-46 -325c-1 -7 -7 -13 -15 -13h-21c-7 0 -12 6 -11 13zM320 768c-9 -6 -12 -2 -15 2
l-7 11c-3 5 -1 10 4 14l123 98c5 4 9 5 12 5c4 0 6 -2 9 -5l96 -98c4 -4 7 -9 2 -14l-7 -8c-4 -4 -8 -8 -15 -2l-89 81z" />
    <glyph glyph-name="Hbar" unicode="&#x126;" horiz-adv-x="702" 
d="M68 13l74 529h-23c-8 0 -10 6 -9 14l1 6c1 7 6 11 13 11h23l16 114c1 7 8 13 14 13h22c8 0 12 -6 11 -13l-16 -114h397l16 114c2 14 11 13 17 13h20c7 0 12 -6 11 -13l-16 -114h22c9 0 12 -4 11 -12l-1 -7c-1 -7 -6 -12 -14 -12h-22l-75 -529c-1 -7 -8 -13 -14 -13h-21
c-12 0 -14 8 -13 18l46 320h-397l-46 -325c-2 -11 -8 -13 -18 -13h-18c-7 0 -12 6 -11 13zM167 381h397l23 161h-398z" />
    <glyph glyph-name="Igrave" unicode="&#xcc;" horiz-adv-x="256" 
d="M67 13l94 674c1 7 6 13 15 13h22c7 0 12 -6 11 -13l-94 -674c-2 -8 -9 -13 -16 -13h-21c-7 0 -12 6 -11 13zM267 783l-142 79c-5 3 -5 9 -1 15l12 19c4 7 11 7 17 3l132 -90c6 -4 6 -9 4 -14l-6 -9c-4 -5 -7 -7 -16 -3z" />
    <glyph glyph-name="Iacute" unicode="&#xcd;" horiz-adv-x="256" 
d="M67 13l94 674c1 7 6 13 15 13h22c7 0 12 -6 11 -13l-94 -674c-2 -8 -9 -13 -16 -13h-21c-7 0 -12 6 -11 13zM129 781c-9 -4 -13 -3 -15 3l-4 11c-2 5 0 10 8 14l157 90c4 2 13 4 16 -3l9 -21c2 -6 0 -12 -6 -15z" />
    <glyph glyph-name="Ibreve" unicode="&#x12c;" horiz-adv-x="256" 
d="M67 13l94 674c1 7 6 13 15 13h22c7 0 12 -6 11 -13l-94 -674c-2 -8 -9 -13 -16 -13h-21c-7 0 -12 6 -11 13zM199 775c-58 0 -104 49 -103 111c0 7 3 14 11 14h11c7 0 9 -6 10 -12c6 -44 31 -78 74 -78c39 0 78 34 94 78c3 7 7 12 13 12h16c7 0 10 -7 8 -14
c-19 -63 -69 -111 -134 -111z" />
    <glyph glyph-name="Icircumflex" unicode="&#xce;" horiz-adv-x="256" 
d="M67 13l94 674c1 7 6 13 15 13h22c7 0 12 -6 11 -13l-94 -674c-2 -8 -9 -13 -16 -13h-21c-7 0 -12 6 -11 13zM93 768c-9 -6 -12 -2 -15 2l-7 11c-3 5 -1 10 4 14l123 98c5 4 9 5 12 5c4 0 6 -2 9 -5l96 -98c4 -4 7 -9 2 -14l-7 -8c-4 -4 -8 -8 -15 -2l-89 81z" />
    <glyph glyph-name="Itilde" unicode="&#x128;" horiz-adv-x="256" 
d="M67 13l94 674c1 7 6 13 15 13h22c7 0 12 -6 11 -13l-94 -674c-2 -8 -9 -13 -16 -13h-21c-7 0 -12 6 -11 13zM84 799l-11 5c-6 2 -7 8 -4 14c9 18 34 86 94 86c62 0 51 -91 91 -91c32 0 49 41 56 59c3 7 9 10 15 7l12 -4c3 -2 7 -5 4 -13s-29 -86 -93 -86
c-60 0 -54 92 -91 92c-34 0 -52 -45 -59 -63c-2 -6 -8 -9 -14 -6z" />
    <glyph glyph-name="Idieresis" unicode="&#xcf;" horiz-adv-x="256" 
d="M67 13l94 674c1 7 6 13 15 13h22c7 0 12 -6 11 -13l-94 -674c-2 -8 -9 -13 -16 -13h-21c-7 0 -12 6 -11 13zM293 801c-16 0 -28 13 -28 29c0 22 18 39 38 39c17 0 29 -13 29 -30c0 -21 -18 -38 -39 -38zM105 801c-17 0 -28 13 -28 29c0 22 18 39 38 39
c17 0 29 -13 29 -30c0 -21 -18 -38 -39 -38z" />
    <glyph glyph-name="Imacron" unicode="&#x12a;" horiz-adv-x="256" 
d="M67 13l94 674c1 7 6 13 15 13h22c7 0 12 -6 11 -13l-94 -674c-2 -8 -9 -13 -16 -13h-21c-7 0 -12 6 -11 13zM82 831c-8 0 -12 6 -11 13l2 12c1 8 6 13 14 13h243c6 0 12 -5 10 -13l-1 -12c-1 -7 -8 -13 -15 -13h-242z" />
    <glyph glyph-name="Idotaccent" unicode="&#x130;" horiz-adv-x="256" 
d="M67 13l94 674c1 7 6 13 15 13h22c7 0 12 -6 11 -13l-94 -674c-2 -8 -9 -13 -16 -13h-21c-7 0 -12 6 -11 13zM201 810c-19 0 -32 15 -32 33c0 24 20 43 43 43c18 0 32 -15 32 -33c0 -24 -21 -43 -43 -43z" />
    <glyph glyph-name="Iogonek" unicode="&#x12e;" horiz-adv-x="257" 
d="M67 10l95 677c1 7 6 13 15 13h22c7 0 12 -6 11 -13l-94 -674c-2 -8 -9 -13 -16 -13h-11c-29 -18 -73 -62 -73 -124c0 -37 26 -56 56 -56c26 0 46 10 57 15c9 4 10 -2 10 -14c0 -10 -4 -15 -11 -20c-13 -10 -38 -17 -66 -17c-46 0 -85 24 -85 82c0 59 37 117 90 144z" />
    <glyph glyph-name="Jcircumflex" unicode="&#x134;" horiz-adv-x="374" 
d="M-45 65c-3 6 -2 12 3 17l14 11c6 5 12 7 17 0c15 -22 43 -61 100 -61c72 0 136 59 153 178l67 477c1 8 7 13 15 13h21c7 0 12 -6 11 -13l-67 -476c-20 -140 -96 -221 -204 -221c-79 0 -118 54 -130 75zM244 768c-9 -6 -12 -2 -15 2l-7 11c-3 5 -1 10 4 14l123 98
c5 4 9 5 12 5c4 0 6 -2 9 -5l96 -98c4 -4 7 -9 2 -14l-7 -8c-4 -4 -8 -8 -15 -2l-89 81z" />
    <glyph glyph-name="Kcommaaccent" unicode="&#x136;" horiz-adv-x="549" 
d="M67 13l95 672c1 9 8 15 16 15h19c9 0 14 -6 13 -15l-44 -309l345 317c9 7 11 7 20 7h30c11 0 11 -11 4 -17l-356 -327l273 -339c5 -5 1 -17 -13 -17h-24c-9 0 -13 2 -20 10l-264 332l-46 -329c-1 -10 -9 -13 -17 -13h-20c-8 0 -12 5 -11 13zM185 -147c0 28 19 45 46 45
c23 0 40 -22 40 -68c0 -97 -64 -153 -88 -165c-7 -4 -13 -5 -16 0l-7 10c-3 5 -1 11 6 16c6 4 50 34 65 95c3 15 3 28 2 38c-5 -3 -10 -5 -15 -5c-23 0 -33 16 -33 34z" />
    <glyph glyph-name="Lacute" unicode="&#x139;" horiz-adv-x="446" 
d="M67 13l95 674c1 7 8 13 14 13h23c6 0 11 -6 10 -13l-91 -645h283c12 0 12 -6 11 -13l-3 -18c-1 -7 -7 -11 -14 -11h-317c-7 0 -12 6 -11 13zM132 781c-9 -4 -13 -3 -15 3l-4 11c-2 5 0 10 8 14l157 90c4 2 13 4 16 -3l9 -21c2 -6 0 -12 -6 -15z" />
    <glyph glyph-name="Lcaron" unicode="&#x13d;" horiz-adv-x="446" 
d="M67 13l95 674c1 7 8 13 14 13h23c6 0 11 -6 10 -13l-91 -645h283c12 0 12 -6 11 -13l-3 -18c-1 -7 -7 -11 -14 -11h-317c-7 0 -12 6 -11 13zM338 666c0 28 19 45 46 45c23 0 40 -22 40 -68c0 -97 -64 -153 -88 -165c-7 -4 -13 -5 -16 0l-7 10c-3 5 -1 11 6 16
c6 4 50 34 65 95c3 15 3 28 2 38c-5 -3 -10 -5 -15 -5c-23 0 -33 16 -33 34z" />
    <glyph glyph-name="Lcommaaccent" unicode="&#x13b;" horiz-adv-x="446" 
d="M67 13l95 674c1 7 8 13 14 13h23c6 0 11 -6 10 -13l-91 -645h283c12 0 12 -6 11 -13l-3 -18c-1 -7 -7 -11 -14 -11h-317c-7 0 -12 6 -11 13zM175 -147c0 28 19 45 46 45c23 0 40 -22 40 -68c0 -97 -64 -153 -88 -165c-7 -4 -13 -5 -16 0l-7 10c-3 5 -1 11 6 16
c6 4 50 34 65 95c3 15 3 28 2 38c-5 -3 -10 -5 -15 -5c-23 0 -33 16 -33 34z" />
    <glyph glyph-name="Lslash" unicode="&#x141;" horiz-adv-x="457" 
d="M71 13l43 307l-30 -16c-6 -4 -13 -2 -15 4l-2 8c-1 6 0 12 6 15l46 24l47 332c1 7 7 13 15 13h21c7 0 12 -6 11 -13l-43 -305l137 74c6 4 13 2 15 -5l2 -6c2 -6 -1 -13 -7 -16l-152 -83l-43 -304h290c12 0 12 -6 11 -15l-2 -14c-1 -7 -8 -13 -15 -13h-324
c-8 0 -12 6 -11 13z" />
    <glyph glyph-name="Ldot" unicode="&#x13f;" horiz-adv-x="497" 
d="M67 13l95 674c1 7 8 13 14 13h23c6 0 11 -6 10 -13l-91 -645h283c12 0 12 -6 11 -13l-3 -18c-1 -7 -7 -11 -14 -11h-317c-7 0 -12 6 -11 13zM415 316c-19 0 -32 15 -32 33c0 24 20 43 43 43c18 0 32 -15 32 -33c0 -24 -21 -43 -43 -43z" />
    <glyph glyph-name="Nacute" unicode="&#x143;" horiz-adv-x="713" 
d="M67 13l96 684c2 8 8 13 16 13h15l343 -621h2l82 598c1 7 8 13 15 13h20c7 0 12 -6 11 -13l-96 -684c-1 -9 -9 -13 -17 -13h-16l-341 623h-1l-84 -600c-2 -13 -15 -13 -25 -13h-9c-7 0 -12 6 -11 13zM365 781c-9 -4 -13 -3 -15 3l-4 11c-2 5 0 10 8 14l157 90
c4 2 13 4 16 -3l9 -21c2 -6 0 -12 -6 -15z" />
    <glyph glyph-name="Ncaron" unicode="&#x147;" horiz-adv-x="713" 
d="M67 13l96 684c2 8 8 13 16 13h15l343 -621h2l82 598c1 7 8 13 15 13h20c7 0 12 -6 11 -13l-96 -684c-1 -9 -9 -13 -17 -13h-16l-341 623h-1l-84 -600c-2 -13 -15 -13 -25 -13h-9c-7 0 -12 6 -11 13zM431 762c-4 0 -6 2 -9 5l-96 98c-4 4 -7 9 -2 14l7 8c4 4 8 8 15 2
l89 -81l113 84c9 6 12 2 15 -2l7 -11c3 -5 1 -10 -4 -14l-123 -98c-5 -4 -9 -5 -12 -5z" />
    <glyph glyph-name="Ntilde" unicode="&#xd1;" horiz-adv-x="713" 
d="M67 13l96 684c2 8 8 13 16 13h15l343 -621h2l82 598c1 7 8 13 15 13h20c7 0 12 -6 11 -13l-96 -684c-1 -9 -9 -13 -17 -13h-16l-341 623h-1l-84 -600c-2 -13 -15 -13 -25 -13h-9c-7 0 -12 6 -11 13zM317 799l-11 5c-6 2 -7 8 -4 14c9 18 34 86 94 86c62 0 51 -91 91 -91
c32 0 49 41 56 59c3 7 9 10 15 7l12 -4c3 -2 7 -5 4 -13s-29 -86 -93 -86c-60 0 -54 92 -91 92c-34 0 -52 -45 -59 -63c-2 -6 -8 -9 -14 -6z" />
    <glyph glyph-name="Ncommaaccent" unicode="&#x145;" horiz-adv-x="713" 
d="M67 13l96 684c2 8 8 13 16 13h15l343 -621h2l82 598c1 7 8 13 15 13h20c7 0 12 -6 11 -13l-96 -684c-1 -9 -9 -13 -17 -13h-16l-341 623h-1l-84 -600c-2 -13 -15 -13 -25 -13h-9c-7 0 -12 6 -11 13zM263 -147c0 28 19 45 46 45c23 0 40 -22 40 -68
c0 -97 -64 -153 -88 -165c-7 -4 -13 -5 -16 0l-7 10c-3 5 -1 11 6 16c6 4 50 34 65 95c3 15 3 28 2 38c-5 -3 -10 -5 -15 -5c-23 0 -33 16 -33 34z" />
    <glyph glyph-name="Ograve" unicode="&#xd2;" horiz-adv-x="767" 
d="M65 300c0 226 172 410 379 410c158 0 278 -140 278 -313c0 -226 -172 -407 -379 -407c-158 0 -278 138 -278 310zM111 306c0 -150 98 -272 238 -272c170 0 327 160 327 357c0 151 -98 275 -238 275c-171 0 -327 -162 -327 -360zM534 783l-142 79c-5 3 -5 9 -1 15l12 19
c4 7 11 7 17 3l132 -90c6 -4 6 -9 4 -14l-6 -9c-4 -5 -7 -7 -16 -3z" />
    <glyph glyph-name="Oacute" unicode="&#xd3;" horiz-adv-x="767" 
d="M65 300c0 226 172 410 379 410c158 0 278 -140 278 -313c0 -226 -172 -407 -379 -407c-158 0 -278 138 -278 310zM111 306c0 -150 98 -272 238 -272c170 0 327 160 327 357c0 151 -98 275 -238 275c-171 0 -327 -162 -327 -360zM396 781c-9 -4 -13 -3 -15 3l-4 11
c-2 5 0 10 8 14l157 90c4 2 13 4 16 -3l9 -21c2 -6 0 -12 -6 -15z" />
    <glyph glyph-name="Ocircumflex" unicode="&#xd4;" horiz-adv-x="767" 
d="M65 300c0 226 172 410 379 410c158 0 278 -140 278 -313c0 -226 -172 -407 -379 -407c-158 0 -278 138 -278 310zM111 306c0 -150 98 -272 238 -272c170 0 327 160 327 357c0 151 -98 275 -238 275c-171 0 -327 -162 -327 -360zM360 768c-9 -6 -12 -2 -15 2l-7 11
c-3 5 -1 10 4 14l123 98c5 4 9 5 12 5c4 0 6 -2 9 -5l96 -98c4 -4 7 -9 2 -14l-7 -8c-4 -4 -8 -8 -15 -2l-89 81z" />
    <glyph glyph-name="Otilde" unicode="&#xd5;" horiz-adv-x="767" 
d="M65 300c0 226 172 410 379 410c158 0 278 -140 278 -313c0 -226 -172 -407 -379 -407c-158 0 -278 138 -278 310zM111 306c0 -150 98 -272 238 -272c170 0 327 160 327 357c0 151 -98 275 -238 275c-171 0 -327 -162 -327 -360zM350 799l-11 5c-6 2 -7 8 -4 14
c9 18 34 86 94 86c62 0 51 -91 91 -91c32 0 49 41 56 59c3 7 9 10 15 7l12 -4c3 -2 7 -5 4 -13s-29 -86 -93 -86c-60 0 -54 92 -91 92c-34 0 -52 -45 -59 -63c-2 -6 -8 -9 -14 -6z" />
    <glyph glyph-name="Odieresis" unicode="&#xd6;" horiz-adv-x="767" 
d="M65 300c0 226 172 410 379 410c158 0 278 -140 278 -313c0 -226 -172 -407 -379 -407c-158 0 -278 138 -278 310zM111 306c0 -150 98 -272 238 -272c170 0 327 160 327 357c0 151 -98 275 -238 275c-171 0 -327 -162 -327 -360zM559 801c-16 0 -28 13 -28 29
c0 22 18 39 38 39c17 0 29 -13 29 -30c0 -21 -18 -38 -39 -38zM371 801c-17 0 -28 13 -28 29c0 22 18 39 38 39c17 0 29 -13 29 -30c0 -21 -18 -38 -39 -38z" />
    <glyph glyph-name="Omacron" unicode="&#x14c;" horiz-adv-x="767" 
d="M65 300c0 226 172 410 379 410c158 0 278 -140 278 -313c0 -226 -172 -407 -379 -407c-158 0 -278 138 -278 310zM111 306c0 -150 98 -272 238 -272c170 0 327 160 327 357c0 151 -98 275 -238 275c-171 0 -327 -162 -327 -360zM348 831c-8 0 -12 6 -11 13l2 12
c1 8 6 13 14 13h243c6 0 12 -5 10 -13l-1 -12c-1 -7 -8 -13 -15 -13h-242z" />
    <glyph glyph-name="Obreve" unicode="&#x14e;" horiz-adv-x="767" 
d="M65 300c0 226 172 410 379 410c158 0 278 -140 278 -313c0 -226 -172 -407 -379 -407c-158 0 -278 138 -278 310zM111 306c0 -150 98 -272 238 -272c170 0 327 160 327 357c0 151 -98 275 -238 275c-171 0 -327 -162 -327 -360zM463 775c-58 0 -104 49 -103 111
c0 7 3 14 11 14h11c7 0 9 -6 10 -12c6 -44 31 -78 74 -78c39 0 78 34 94 78c3 7 7 12 13 12h16c7 0 10 -7 8 -14c-19 -63 -69 -111 -134 -111z" />
    <glyph glyph-name="Ohungarumlaut" unicode="&#x150;" horiz-adv-x="767" 
d="M65 300c0 226 172 410 379 410c158 0 278 -140 278 -313c0 -226 -172 -407 -379 -407c-158 0 -278 138 -278 310zM111 306c0 -150 98 -272 238 -272c170 0 327 160 327 357c0 151 -98 275 -238 275c-171 0 -327 -162 -327 -360zM521 766c-7 0 -9 5 -5 12l89 159
c3 7 8 11 15 11h22c11 0 14 -8 8 -17l-103 -157c-4 -6 -9 -8 -14 -8h-12zM372 766c-7 0 -9 5 -6 12l89 159c4 7 9 11 15 11h23c11 0 14 -8 8 -17l-104 -157c-3 -6 -9 -8 -13 -8h-12z" />
    <glyph glyph-name="Oslash" unicode="&#xd8;" horiz-adv-x="766" 
d="M49 28c-4 6 -3 13 2 18l65 62c-33 50 -51 124 -51 192c0 226 180 410 379 410c85 0 158 -37 207 -98l68 64c5 5 13 6 17 0l3 -4c4 -5 3 -13 -3 -18l-67 -64c33 -51 53 -126 53 -194c0 -225 -182 -406 -380 -406c-86 0 -159 35 -208 96l-66 -62c-4 -5 -12 -5 -16 0z
M152 140l464 441c-43 53 -106 85 -179 85c-170 0 -328 -162 -328 -361c0 -59 15 -122 43 -165zM170 118c42 -53 105 -84 179 -84c170 0 329 160 329 358c0 58 -16 123 -45 167z" />
    <glyph glyph-name="Oslashacute" unicode="&#x1fe;" horiz-adv-x="766" 
d="M49 28c-4 6 -3 13 2 18l65 62c-33 50 -51 124 -51 192c0 226 180 410 379 410c85 0 158 -37 207 -98l68 64c5 5 13 6 17 0l3 -4c4 -5 3 -13 -3 -18l-67 -64c33 -51 53 -126 53 -194c0 -225 -182 -406 -380 -406c-86 0 -159 35 -208 96l-66 -62c-4 -5 -12 -5 -16 0z
M152 140l464 441c-43 53 -106 85 -179 85c-170 0 -328 -162 -328 -361c0 -59 15 -122 43 -165zM170 118c42 -53 105 -84 179 -84c170 0 329 160 329 358c0 58 -16 123 -45 167zM399 781c-9 -4 -13 -3 -15 3l-4 11c-2 5 0 10 8 14l157 90c4 2 13 4 16 -3l9 -21
c2 -6 0 -12 -6 -15z" />
    <glyph glyph-name="OE" unicode="&#x152;" horiz-adv-x="894" 
d="M65 300c0 226 172 410 377 410c35 0 66 -7 76 -10h358c7 0 11 -6 10 -13l-2 -17c-1 -7 -7 -13 -14 -13h-325l-38 -276h280c7 0 12 -6 11 -13l-2 -17c-1 -7 -8 -13 -15 -13h-280l-42 -296h325c6 0 11 -6 10 -13l-3 -16c-1 -7 -6 -13 -13 -13h-358c-11 -3 -44 -10 -79 -10
c-158 0 -276 137 -276 310zM108 306c0 -150 100 -272 240 -272c21 0 42 2 63 7l87 616c-20 5 -40 8 -62 8c-170 0 -328 -161 -328 -359z" />
    <glyph glyph-name="Racute" unicode="&#x154;" horiz-adv-x="605" 
d="M67 13l95 674c1 7 6 13 14 13h225c94 0 172 -81 172 -186c0 -115 -77 -210 -177 -237l93 -259c4 -8 1 -18 -10 -18h-29c-7 0 -10 3 -12 9l-92 262c-12 -1 -25 -1 -37 -1h-159l-36 -257c-1 -7 -8 -13 -18 -13h-18c-7 0 -12 6 -11 13zM157 312h187c92 0 179 86 179 196
c0 82 -55 146 -131 146h-187zM279 781c-9 -4 -13 -3 -15 3l-4 11c-2 5 0 10 8 14l157 90c4 2 13 4 16 -3l9 -21c2 -6 0 -12 -6 -15z" />
    <glyph glyph-name="Rcaron" unicode="&#x158;" horiz-adv-x="605" 
d="M67 13l95 674c1 7 6 13 14 13h225c94 0 172 -81 172 -186c0 -115 -77 -210 -177 -237l93 -259c4 -8 1 -18 -10 -18h-29c-7 0 -10 3 -12 9l-92 262c-12 -1 -25 -1 -37 -1h-159l-36 -257c-1 -7 -8 -13 -18 -13h-18c-7 0 -12 6 -11 13zM157 312h187c92 0 179 86 179 196
c0 82 -55 146 -131 146h-187zM345 762c-4 0 -6 2 -9 5l-96 98c-4 4 -7 9 -2 14l7 8c4 4 8 8 15 2l89 -81l113 84c9 6 12 2 15 -2l7 -11c3 -5 1 -10 -4 -14l-123 -98c-5 -4 -9 -5 -12 -5z" />
    <glyph glyph-name="Rcommaaccent" unicode="&#x156;" horiz-adv-x="604" 
d="M67 13l95 674c1 7 6 13 14 13h225c94 0 172 -81 172 -186c0 -115 -77 -210 -177 -237l93 -259c4 -8 1 -18 -10 -18h-29c-7 0 -10 3 -12 9l-92 262c-12 -1 -25 -1 -37 -1h-159l-36 -257c-1 -7 -8 -13 -18 -13h-18c-7 0 -12 6 -11 13zM157 312h187c92 0 179 86 179 196
c0 82 -55 146 -131 146h-187zM197 -147c0 28 19 45 46 45c23 0 40 -22 40 -68c0 -97 -64 -153 -88 -165c-7 -4 -13 -5 -16 0l-7 10c-3 5 -1 11 6 16c6 4 50 34 65 95c3 15 3 28 2 38c-5 -3 -10 -5 -15 -5c-23 0 -33 16 -33 34z" />
    <glyph glyph-name="Sacute" unicode="&#x15a;" horiz-adv-x="506" 
d="M40 72c-5 5 -10 10 0 21l12 12c7 9 15 10 21 2c8 -9 64 -75 145 -75c94 0 176 65 176 151c0 74 -61 109 -150 154c-87 44 -149 85 -149 177c0 90 65 196 224 196c88 0 147 -51 147 -51c3 -3 10 -9 1 -21l-9 -12c-6 -8 -13 -11 -22 -5c-3 2 -56 46 -123 46
c-117 0 -171 -83 -171 -149c0 -70 53 -105 126 -140c105 -50 174 -95 174 -190c0 -118 -104 -198 -228 -198c-102 0 -163 70 -174 82zM256 773c-9 -4 -13 -3 -15 3l-4 11c-2 5 0 10 8 14l157 90c4 2 13 4 16 -3l9 -21c2 -6 0 -12 -6 -15z" />
    <glyph glyph-name="Scircumflex" unicode="&#x15c;" horiz-adv-x="506" 
d="M40 72c-5 5 -10 10 0 21l12 12c7 9 15 10 21 2c8 -9 64 -75 145 -75c94 0 176 65 176 151c0 74 -61 109 -150 154c-87 44 -149 85 -149 177c0 90 65 196 224 196c88 0 147 -51 147 -51c3 -3 10 -9 1 -21l-9 -12c-6 -8 -13 -11 -22 -5c-3 2 -56 46 -123 46
c-117 0 -171 -83 -171 -149c0 -70 53 -105 126 -140c105 -50 174 -95 174 -190c0 -118 -104 -198 -228 -198c-102 0 -163 70 -174 82zM218 760c-9 -6 -12 -2 -15 2l-7 11c-3 5 -1 10 4 14l123 98c5 4 9 5 12 5c4 0 6 -2 9 -5l96 -98c4 -4 7 -9 2 -14l-7 -8
c-4 -4 -8 -8 -15 -2l-89 81z" />
    <glyph glyph-name="Scaron" unicode="&#x160;" horiz-adv-x="506" 
d="M40 72c-5 5 -10 10 0 21l12 12c7 9 15 10 21 2c8 -9 64 -75 145 -75c94 0 176 65 176 151c0 74 -61 109 -150 154c-87 44 -149 85 -149 177c0 90 65 196 224 196c88 0 147 -51 147 -51c3 -3 10 -9 1 -21l-9 -12c-6 -8 -13 -11 -22 -5c-3 2 -56 46 -123 46
c-117 0 -171 -83 -171 -149c0 -70 53 -105 126 -140c105 -50 174 -95 174 -190c0 -118 -104 -198 -228 -198c-102 0 -163 70 -174 82zM320 754c-4 0 -6 2 -9 5l-96 98c-4 4 -7 9 -2 14l7 8c4 4 8 8 15 2l89 -81l113 84c9 6 12 2 15 -2l7 -11c3 -5 1 -10 -4 -14l-123 -98
c-5 -4 -9 -5 -12 -5z" />
    <glyph glyph-name="Scedilla" unicode="&#x15e;" horiz-adv-x="507" 
d="M41 72c-5 5 -10 10 0 21l12 12c7 9 15 10 21 2c8 -9 64 -75 145 -75c94 0 176 65 176 151c0 74 -61 109 -150 154c-87 44 -149 85 -149 177c0 90 65 196 224 196c88 0 147 -51 147 -51c3 -3 10 -9 1 -21l-9 -12c-6 -8 -13 -11 -22 -5c-3 2 -56 46 -123 46
c-117 0 -171 -83 -171 -149c0 -70 53 -105 126 -140c105 -50 174 -95 174 -190c0 -117 -103 -197 -226 -198l-6 -44c41 -5 84 -34 84 -84c0 -60 -41 -110 -104 -110c-36 0 -60 19 -66 34c-3 8 -3 14 3 18l10 8c8 6 10 1 15 -6c6 -8 16 -18 43 -18c37 0 60 32 60 68
c0 41 -39 55 -73 60c-9 2 -11 7 -10 13l9 64c-82 12 -131 68 -141 79z" />
    <glyph glyph-name="Scommaaccent" unicode="&#x218;" horiz-adv-x="507" 
d="M41 72c-5 5 -10 10 0 21l12 12c7 9 15 10 21 2c8 -9 64 -75 145 -75c94 0 176 65 176 151c0 74 -61 109 -150 154c-87 44 -149 85 -149 177c0 90 65 196 224 196c88 0 147 -51 147 -51c3 -3 10 -9 1 -21l-9 -12c-6 -8 -13 -11 -22 -5c-3 2 -56 46 -123 46
c-117 0 -171 -83 -171 -149c0 -70 53 -105 126 -140c105 -50 174 -95 174 -190c0 -118 -104 -198 -228 -198c-102 0 -163 70 -174 82zM166 -155c0 28 19 45 46 45c23 0 40 -22 40 -68c0 -97 -64 -153 -88 -165c-7 -4 -13 -5 -16 0l-7 10c-3 5 -1 11 6 16c6 4 50 34 65 95
c3 15 3 28 2 38c-5 -3 -10 -5 -15 -5c-23 0 -33 16 -33 34z" />
    <glyph glyph-name="Tcaron" unicode="&#x164;" horiz-adv-x="422" 
d="M148 13l91 644h-170c-10 0 -11 6 -10 15l2 15c1 8 8 13 14 13h386c8 0 12 -6 11 -13l-2 -17c-1 -7 -7 -13 -15 -13h-170l-90 -644c-1 -7 -7 -13 -17 -13h-19c-7 0 -12 6 -11 13zM277 762c-4 0 -6 2 -9 5l-96 98c-4 4 -7 9 -2 14l7 8c4 4 8 8 15 2l89 -81l113 84
c9 6 12 2 15 -2l7 -11c3 -5 1 -10 -4 -14l-123 -98c-5 -4 -9 -5 -12 -5z" />
    <glyph glyph-name="Tcommaaccent" unicode="&#x162;" horiz-adv-x="422" 
d="M148 13l91 644h-170c-10 0 -11 6 -10 15l2 15c1 8 8 13 14 13h386c8 0 12 -6 11 -13l-2 -17c-1 -7 -7 -13 -15 -13h-170l-90 -644c-1 -7 -7 -13 -17 -13h-19c-7 0 -12 6 -11 13zM109 -147c0 28 19 45 46 45c23 0 40 -22 40 -68c0 -97 -64 -153 -88 -165
c-7 -4 -13 -5 -16 0l-7 10c-3 5 -1 11 6 16c6 4 50 34 65 95c3 15 3 28 2 38c-5 -3 -10 -5 -15 -5c-23 0 -33 16 -33 34z" />
    <glyph glyph-name="uni021A" unicode="&#x21a;" horiz-adv-x="422" 
d="M148 13l91 644h-170c-10 0 -11 6 -10 15l2 15c1 8 8 13 14 13h386c8 0 12 -6 11 -13l-2 -17c-1 -7 -7 -13 -15 -13h-170l-90 -644c-1 -7 -7 -13 -17 -13h-19c-7 0 -12 6 -11 13zM96 -147c0 28 19 45 46 45c23 0 40 -22 40 -68c0 -97 -64 -153 -88 -165
c-7 -4 -13 -5 -16 0l-7 10c-3 5 -1 11 6 16c6 4 50 34 65 95c3 15 3 28 2 38c-5 -3 -10 -5 -15 -5c-23 0 -33 16 -33 34z" />
    <glyph glyph-name="Tbar" unicode="&#x166;" horiz-adv-x="422" 
d="M148 13l41 290h-112c-8 0 -12 7 -10 15v4c1 6 8 12 14 12h112l46 323h-170c-10 0 -11 6 -10 15l2 15c1 8 8 13 14 13h386c8 0 12 -6 11 -13l-2 -17c-1 -7 -7 -13 -15 -13h-170l-45 -323h109c7 0 12 -6 11 -12l-1 -6c-1 -7 -8 -13 -14 -13h-110l-40 -290
c-1 -7 -7 -13 -17 -13h-19c-7 0 -12 6 -11 13z" />
    <glyph glyph-name="Thorn" unicode="&#xde;" horiz-adv-x="554" 
d="M67 13l95 674c1 7 8 13 14 13h22c7 0 12 -6 11 -13l-16 -111h161c95 0 174 -88 174 -194c0 -141 -111 -256 -237 -256h-161l-16 -113c-1 -7 -8 -13 -18 -13h-18c-7 0 -12 6 -11 13zM136 171h158c94 0 186 93 186 206c0 85 -58 152 -136 152h-157z" />
    <glyph glyph-name="Ugrave" unicode="&#xd9;" horiz-adv-x="666" 
d="M94 255l61 432c1 7 8 13 14 13h22c7 0 12 -6 11 -13l-60 -427c-19 -129 39 -224 157 -224s203 94 221 223l61 428c1 8 5 13 15 13h21c6 0 11 -6 10 -13l-60 -432c-22 -153 -128 -265 -275 -265c-137 0 -219 112 -198 265zM468 783l-142 79c-5 3 -5 9 -1 15l12 19
c4 7 11 7 17 3l132 -90c6 -4 6 -9 4 -14l-6 -9c-4 -5 -7 -7 -16 -3z" />
    <glyph glyph-name="Uacute" unicode="&#xda;" horiz-adv-x="666" 
d="M94 255l61 432c1 7 8 13 14 13h22c7 0 12 -6 11 -13l-60 -427c-19 -129 39 -224 157 -224s203 94 221 223l61 428c1 8 5 13 15 13h21c6 0 11 -6 10 -13l-60 -432c-22 -153 -128 -265 -275 -265c-137 0 -219 112 -198 265zM330 781c-9 -4 -13 -3 -15 3l-4 11
c-2 5 0 10 8 14l157 90c4 2 13 4 16 -3l9 -21c2 -6 0 -12 -6 -15z" />
    <glyph glyph-name="Ucircumflex" unicode="&#xdb;" horiz-adv-x="666" 
d="M94 255l61 432c1 7 8 13 14 13h22c7 0 12 -6 11 -13l-60 -427c-19 -129 39 -224 157 -224s203 94 221 223l61 428c1 8 5 13 15 13h21c6 0 11 -6 10 -13l-60 -432c-22 -153 -128 -265 -275 -265c-137 0 -219 112 -198 265zM295 768c-9 -6 -12 -2 -15 2l-7 11
c-3 5 -1 10 4 14l123 98c5 4 9 5 12 5c4 0 6 -2 9 -5l96 -98c4 -4 7 -9 2 -14l-7 -8c-4 -4 -8 -8 -15 -2l-89 81z" />
    <glyph glyph-name="Utilde" unicode="&#x168;" horiz-adv-x="666" 
d="M94 255l61 432c1 7 8 13 14 13h22c7 0 12 -6 11 -13l-60 -427c-19 -129 39 -224 157 -224s203 94 221 223l61 428c1 8 5 13 15 13h21c6 0 11 -6 10 -13l-60 -432c-22 -153 -128 -265 -275 -265c-137 0 -219 112 -198 265zM285 799l-11 5c-6 2 -7 8 -4 14
c9 18 34 86 94 86c62 0 51 -91 91 -91c32 0 49 41 56 59c3 7 9 10 15 7l12 -4c3 -2 7 -5 4 -13s-29 -86 -93 -86c-60 0 -54 92 -91 92c-34 0 -52 -45 -59 -63c-2 -6 -8 -9 -14 -6z" />
    <glyph glyph-name="Udieresis" unicode="&#xdc;" horiz-adv-x="666" 
d="M94 255l61 432c1 7 8 13 14 13h22c7 0 12 -6 11 -13l-60 -427c-19 -129 39 -224 157 -224s203 94 221 223l61 428c1 8 5 13 15 13h21c6 0 11 -6 10 -13l-60 -432c-22 -153 -128 -265 -275 -265c-137 0 -219 112 -198 265zM495 801c-16 0 -28 13 -28 29c0 22 18 39 38 39
c17 0 29 -13 29 -30c0 -21 -18 -38 -39 -38zM307 801c-17 0 -28 13 -28 29c0 22 18 39 38 39c17 0 29 -13 29 -30c0 -21 -18 -38 -39 -38z" />
    <glyph glyph-name="Umacron" unicode="&#x16a;" horiz-adv-x="666" 
d="M94 255l61 432c1 7 8 13 14 13h22c7 0 12 -6 11 -13l-60 -427c-19 -129 39 -224 157 -224s203 94 221 223l61 428c1 8 5 13 15 13h21c6 0 11 -6 10 -13l-60 -432c-22 -153 -128 -265 -275 -265c-137 0 -219 112 -198 265zM283 831c-8 0 -12 6 -11 13l2 12c1 8 6 13 14 13
h243c6 0 12 -5 10 -13l-1 -12c-1 -7 -8 -13 -15 -13h-242z" />
    <glyph glyph-name="Ubreve" unicode="&#x16c;" horiz-adv-x="666" 
d="M94 255l61 432c1 7 8 13 14 13h22c7 0 12 -6 11 -13l-60 -427c-19 -129 39 -224 157 -224s203 94 221 223l61 428c1 8 5 13 15 13h21c6 0 11 -6 10 -13l-60 -432c-22 -153 -128 -265 -275 -265c-137 0 -219 112 -198 265zM399 775c-58 0 -104 49 -103 111c0 7 3 14 11 14
h11c7 0 9 -6 10 -12c6 -44 31 -78 74 -78c39 0 78 34 94 78c3 7 7 12 13 12h16c7 0 10 -7 8 -14c-19 -63 -69 -111 -134 -111z" />
    <glyph glyph-name="Uring" unicode="&#x16e;" horiz-adv-x="666" 
d="M94 255l61 432c1 7 8 13 14 13h22c7 0 12 -6 11 -13l-60 -427c-19 -129 39 -224 157 -224s203 94 221 223l61 428c1 8 5 13 15 13h21c6 0 11 -6 10 -13l-60 -432c-22 -153 -128 -265 -275 -265c-137 0 -219 112 -198 265zM395 754c-49 0 -83 40 -83 91
c0 68 49 122 113 122c48 0 82 -41 82 -92c0 -68 -48 -121 -112 -121zM400 786c42 0 73 39 73 84c0 34 -22 64 -52 64c-43 0 -76 -38 -76 -83c0 -35 23 -65 55 -65z" />
    <glyph glyph-name="Uhungarumlaut" unicode="&#x170;" horiz-adv-x="666" 
d="M94 255l61 432c1 7 8 13 14 13h22c7 0 12 -6 11 -13l-60 -427c-19 -129 39 -224 157 -224s203 94 221 223l61 428c1 8 5 13 15 13h21c6 0 11 -6 10 -13l-60 -432c-22 -153 -128 -265 -275 -265c-137 0 -219 112 -198 265zM456 766c-7 0 -9 5 -5 12l89 159c3 7 8 11 15 11
h22c11 0 14 -8 8 -17l-103 -157c-4 -6 -9 -8 -14 -8h-12zM307 766c-7 0 -9 5 -6 12l89 159c4 7 9 11 15 11h23c11 0 14 -8 8 -17l-104 -157c-3 -6 -9 -8 -13 -8h-12z" />
    <glyph glyph-name="Uogonek" unicode="&#x172;" horiz-adv-x="669" 
d="M196 -140c0 51 28 101 70 132c-121 13 -191 120 -171 263l61 432c1 7 8 13 14 13h22c7 0 12 -6 11 -13l-60 -427c-19 -129 39 -224 157 -224s203 94 221 223l61 428c1 8 5 13 15 13h21c6 0 11 -6 10 -13l-60 -432c-22 -150 -124 -260 -266 -265c-29 -20 -67 -62 -67 -120
c0 -37 26 -56 56 -56c26 0 46 10 57 15c9 4 10 -2 10 -14c0 -10 -4 -15 -11 -20c-13 -10 -38 -17 -66 -17c-46 0 -85 24 -85 82z" />
    <glyph glyph-name="Wacute" unicode="&#x1e82;" horiz-adv-x="817" 
d="M181 -3l-84 690c-1 10 4 13 13 13h24c6 0 9 -5 10 -11l66 -571h2l240 583c3 6 5 9 11 9h6c6 0 9 -3 10 -9l80 -582h2l225 570c2 6 7 11 13 11h26c9 0 13 -3 10 -13l-276 -690c-2 -4 -5 -7 -9 -7h-7c-6 0 -8 2 -9 7l-82 595h-2l-244 -595c-2 -5 -4 -7 -9 -7h-7
c-6 0 -9 3 -9 7zM410 781c-9 -4 -13 -3 -15 3l-4 11c-2 5 0 10 8 14l157 90c4 2 13 4 16 -3l9 -21c2 -6 0 -12 -6 -15z" />
    <glyph glyph-name="Wcircumflex" unicode="&#x174;" horiz-adv-x="817" 
d="M181 -3l-84 690c-1 10 4 13 13 13h24c6 0 9 -5 10 -11l66 -571h2l240 583c3 6 5 9 11 9h6c6 0 9 -3 10 -9l80 -582h2l225 570c2 6 7 11 13 11h26c9 0 13 -3 10 -13l-276 -690c-2 -4 -5 -7 -9 -7h-7c-6 0 -8 2 -9 7l-82 595h-2l-244 -595c-2 -5 -4 -7 -9 -7h-7
c-6 0 -9 3 -9 7zM376 768c-9 -6 -12 -2 -15 2l-7 11c-3 5 -1 10 4 14l123 98c5 4 9 5 12 5c4 0 6 -2 9 -5l96 -98c4 -4 7 -9 2 -14l-7 -8c-4 -4 -8 -8 -15 -2l-89 81z" />
    <glyph glyph-name="Wdieresis" unicode="&#x1e84;" horiz-adv-x="817" 
d="M181 -3l-84 690c-1 10 4 13 13 13h24c6 0 9 -5 10 -11l66 -571h2l240 583c3 6 5 9 11 9h6c6 0 9 -3 10 -9l80 -582h2l225 570c2 6 7 11 13 11h26c9 0 13 -3 10 -13l-276 -690c-2 -4 -5 -7 -9 -7h-7c-6 0 -8 2 -9 7l-82 595h-2l-244 -595c-2 -5 -4 -7 -9 -7h-7
c-6 0 -9 3 -9 7zM575 801c-16 0 -28 13 -28 29c0 22 18 39 38 39c17 0 29 -13 29 -30c0 -21 -18 -38 -39 -38zM387 801c-17 0 -28 13 -28 29c0 22 18 39 38 39c17 0 29 -13 29 -30c0 -21 -18 -38 -39 -38z" />
    <glyph glyph-name="Wgrave" unicode="&#x1e80;" horiz-adv-x="817" 
d="M181 -3l-84 690c-1 10 4 13 13 13h24c6 0 9 -5 10 -11l66 -571h2l240 583c3 6 5 9 11 9h6c6 0 9 -3 10 -9l80 -582h2l225 570c2 6 7 11 13 11h26c9 0 13 -3 10 -13l-276 -690c-2 -4 -5 -7 -9 -7h-7c-6 0 -8 2 -9 7l-82 595h-2l-244 -595c-2 -5 -4 -7 -9 -7h-7
c-6 0 -9 3 -9 7zM548 783l-142 79c-5 3 -5 9 -1 15l12 19c4 7 11 7 17 3l132 -90c6 -4 6 -9 4 -14l-6 -9c-4 -5 -7 -7 -16 -3z" />
    <glyph glyph-name="Yacute" unicode="&#xdd;" horiz-adv-x="512" 
d="M192 13l45 327l-181 347c-4 8 0 13 9 13h28c7 0 10 -4 11 -6l160 -307l248 307c4 4 9 6 14 6h33c10 0 14 -7 7 -15l-282 -344l-46 -328c-1 -7 -8 -13 -15 -13h-20c-7 0 -12 4 -11 13zM252 781c-9 -4 -13 -3 -15 3l-4 11c-2 5 0 10 8 14l157 90c4 2 13 4 16 -3l9 -21
c2 -6 0 -12 -6 -15z" />
    <glyph glyph-name="Ycircumflex" unicode="&#x176;" horiz-adv-x="512" 
d="M192 13l45 327l-181 347c-4 8 0 13 9 13h28c7 0 10 -4 11 -6l160 -307l248 307c4 4 9 6 14 6h33c10 0 14 -7 7 -15l-282 -344l-46 -328c-1 -7 -8 -13 -15 -13h-20c-7 0 -12 4 -11 13zM216 768c-9 -6 -12 -2 -15 2l-7 11c-3 5 -1 10 4 14l123 98c5 4 9 5 12 5
c4 0 6 -2 9 -5l96 -98c4 -4 7 -9 2 -14l-7 -8c-4 -4 -8 -8 -15 -2l-89 81z" />
    <glyph glyph-name="Ydieresis" unicode="&#x178;" horiz-adv-x="512" 
d="M192 13l45 327l-181 347c-4 8 0 13 9 13h28c7 0 10 -4 11 -6l160 -307l248 307c4 4 9 6 14 6h33c10 0 14 -7 7 -15l-282 -344l-46 -328c-1 -7 -8 -13 -15 -13h-20c-7 0 -12 4 -11 13zM416 801c-16 0 -28 13 -28 29c0 22 18 39 38 39c17 0 29 -13 29 -30
c0 -21 -18 -38 -39 -38zM228 801c-17 0 -28 13 -28 29c0 22 18 39 38 39c17 0 29 -13 29 -30c0 -21 -18 -38 -39 -38z" />
    <glyph glyph-name="Ygrave" unicode="&#x1ef2;" horiz-adv-x="512" 
d="M192 13l45 327l-181 347c-4 8 0 13 9 13h28c7 0 10 -4 11 -6l160 -307l248 307c4 4 9 6 14 6h33c10 0 14 -7 7 -15l-282 -344l-46 -328c-1 -7 -8 -13 -15 -13h-20c-7 0 -12 4 -11 13zM389 783l-142 79c-5 3 -5 9 -1 15l12 19c4 7 11 7 17 3l132 -90c6 -4 6 -9 4 -14
l-6 -9c-4 -5 -7 -7 -16 -3z" />
    <glyph glyph-name="Zacute" unicode="&#x179;" horiz-adv-x="491" 
d="M7 0c-10 0 -13 5 -12 12l2 18l444 623v3h-315c-8 0 -11 5 -10 13l2 22c1 7 6 9 13 9h370c9 0 12 -5 11 -12l-2 -17l-445 -624v-3h325c8 0 12 -6 11 -13l-2 -18c-1 -7 -7 -13 -15 -13h-377zM263 781c-9 -4 -13 -3 -15 3l-4 11c-2 5 0 10 8 14l157 90c4 2 13 4 16 -3l9 -21
c2 -6 0 -12 -6 -15z" />
    <glyph glyph-name="Zcaron" unicode="&#x17d;" horiz-adv-x="491" 
d="M7 0c-10 0 -13 5 -12 12l2 18l444 623v3h-315c-8 0 -11 5 -10 13l2 22c1 7 6 9 13 9h370c9 0 12 -5 11 -12l-2 -17l-445 -624v-3h325c8 0 12 -6 11 -13l-2 -18c-1 -7 -7 -13 -15 -13h-377zM324 762c-4 0 -6 2 -9 5l-96 98c-4 4 -7 9 -2 14l7 8c4 4 8 8 15 2l89 -81
l113 84c9 6 12 2 15 -2l7 -11c3 -5 1 -10 -4 -14l-123 -98c-5 -4 -9 -5 -12 -5z" />
    <glyph glyph-name="Zdotaccent" unicode="&#x17b;" horiz-adv-x="491" 
d="M7 0c-10 0 -13 5 -12 12l2 18l444 623v3h-315c-8 0 -11 5 -10 13l2 22c1 7 6 9 13 9h370c9 0 12 -5 11 -12l-2 -17l-445 -624v-3h325c8 0 12 -6 11 -13l-2 -18c-1 -7 -7 -13 -15 -13h-377zM332 810c-19 0 -32 15 -32 33c0 24 20 43 43 43c18 0 32 -15 32 -33
c0 -24 -21 -43 -43 -43z" />
    <glyph glyph-name="agrave" unicode="&#xe0;" 
d="M335 560l-142 79c-5 3 -5 9 -1 15l12 19c4 7 12 7 17 3l132 -90c6 -4 6 -9 4 -14l-6 -9c-4 -5 -7 -7 -16 -3zM391 387l-52 -374c-1 -7 -7 -13 -14 -13h-11c-8 0 -13 5 -12 14l2 34c-11 -13 -61 -58 -130 -58c-82 0 -139 79 -139 178c0 133 93 242 204 242
c66 0 102 -38 109 -48l8 27c2 8 8 11 14 11h11c6 0 11 -6 10 -13zM308 103l30 210c-2 4 -32 55 -100 55c-92 0 -159 -88 -159 -194c0 -77 39 -143 104 -143c73 0 123 68 125 72z" />
    <glyph glyph-name="aacute" unicode="&#xe1;" 
d="M197 559c-9 -4 -13 -3 -15 3l-4 11c-2 5 0 10 8 14l157 90c4 2 13 4 16 -3l9 -21c2 -6 0 -12 -6 -15zM391 387l-52 -374c-1 -7 -7 -13 -14 -13h-11c-8 0 -13 5 -12 14l2 34c-11 -13 -61 -58 -130 -58c-82 0 -139 79 -139 178c0 133 93 242 204 242c66 0 102 -38 109 -48
l8 27c2 8 8 11 14 11h11c6 0 11 -6 10 -13zM308 103l30 210c-2 4 -32 55 -100 55c-92 0 -159 -88 -159 -194c0 -77 39 -143 104 -143c73 0 123 68 125 72z" />
    <glyph glyph-name="acircumflex" unicode="&#xe2;" 
d="M147 552l-7 11c-3 5 -1 10 4 14l123 98c5 4 9 5 12 5c4 0 6 -2 9 -5l96 -98c4 -4 7 -9 2 -14l-7 -8c-4 -4 -8 -8 -15 -2l-89 81l-113 -84c-9 -6 -12 -2 -15 2zM391 387l-52 -374c-1 -7 -7 -13 -14 -13h-11c-8 0 -13 5 -12 14l2 34c-11 -13 -61 -58 -130 -58
c-82 0 -139 79 -139 178c0 133 93 242 204 242c66 0 102 -38 109 -48l8 27c2 8 8 11 14 11h11c6 0 11 -6 10 -13zM308 103l30 210c-2 4 -32 55 -100 55c-92 0 -159 -88 -159 -194c0 -77 39 -143 104 -143c73 0 123 68 125 72z" />
    <glyph glyph-name="atilde" unicode="&#xe3;" 
d="M152 579l-11 5c-6 2 -7 8 -4 14c9 18 34 86 94 86c62 0 51 -91 91 -91c32 0 49 41 56 59c3 7 9 10 15 7l12 -4c3 -2 7 -5 4 -13s-29 -86 -93 -86c-60 0 -54 92 -91 92c-34 0 -52 -45 -59 -63c-2 -6 -8 -9 -14 -6zM391 387l-52 -374c-1 -7 -7 -13 -14 -13h-11
c-8 0 -13 5 -12 14l2 34c-11 -13 -61 -58 -130 -58c-82 0 -139 79 -139 178c0 133 93 242 204 242c66 0 102 -38 109 -48l8 27c2 8 8 11 14 11h11c6 0 11 -6 10 -13zM308 103l30 210c-2 4 -32 55 -100 55c-92 0 -159 -88 -159 -194c0 -77 39 -143 104 -143
c73 0 123 68 125 72z" />
    <glyph glyph-name="adieresis" unicode="&#xe4;" 
d="M355 596c-17 0 -28 13 -28 29c0 22 17 39 37 39c18 0 30 -13 30 -30c0 -21 -18 -38 -39 -38zM183 596c-17 0 -29 13 -29 29c0 22 18 39 38 39c18 0 28 -13 28 -30c0 -21 -16 -38 -37 -38zM391 387l-52 -374c-1 -7 -7 -13 -14 -13h-11c-8 0 -13 5 -12 14l2 34
c-11 -13 -61 -58 -130 -58c-82 0 -139 79 -139 178c0 133 93 242 204 242c66 0 102 -38 109 -48l8 27c2 8 8 11 14 11h11c6 0 11 -6 10 -13zM308 103l30 210c-2 4 -32 55 -100 55c-92 0 -159 -88 -159 -194c0 -77 39 -143 104 -143c73 0 123 68 125 72z" />
    <glyph glyph-name="amacron" unicode="&#x101;" 
d="M148 595c-8 0 -12 5 -11 12l2 13c1 7 6 13 14 13h242c7 0 12 -6 11 -13l-2 -13c-1 -7 -7 -12 -14 -12h-242zM391 387l-52 -374c-1 -7 -7 -13 -14 -13h-11c-8 0 -13 5 -12 14l2 34c-11 -13 -61 -58 -130 -58c-82 0 -139 79 -139 178c0 133 93 242 204 242
c66 0 102 -38 109 -48l8 27c2 8 8 11 14 11h11c6 0 11 -6 10 -13zM308 103l30 210c-2 4 -32 55 -100 55c-92 0 -159 -88 -159 -194c0 -77 39 -143 104 -143c73 0 123 68 125 72z" />
    <glyph glyph-name="abreve" unicode="&#x103;" 
d="M254 538c-57 0 -101 49 -103 110c0 8 4 14 12 14h11c7 0 9 -5 10 -11c4 -45 30 -79 73 -79c40 0 79 34 94 79c3 7 8 11 14 11h16c7 0 9 -6 7 -14c-17 -62 -68 -110 -134 -110zM391 387l-52 -374c-1 -7 -7 -13 -14 -13h-11c-8 0 -13 5 -12 14l2 34
c-11 -13 -61 -58 -130 -58c-82 0 -139 79 -139 178c0 133 93 242 204 242c66 0 102 -38 109 -48l8 27c2 8 8 11 14 11h11c6 0 11 -6 10 -13zM308 103l30 210c-2 4 -32 55 -100 55c-92 0 -159 -88 -159 -194c0 -77 39 -143 104 -143c73 0 123 68 125 72z" />
    <glyph glyph-name="aring" unicode="&#xe5;" 
d="M255 497c-49 0 -83 40 -83 91c0 68 49 122 113 122c48 0 82 -41 82 -92c0 -68 -48 -121 -112 -121zM260 529c42 0 73 39 73 84c0 34 -22 64 -52 64c-43 0 -76 -38 -76 -83c0 -35 23 -65 55 -65zM391 387l-52 -374c-1 -7 -7 -13 -14 -13h-11c-8 0 -13 5 -12 14l2 34
c-11 -13 -61 -58 -130 -58c-82 0 -139 79 -139 178c0 133 93 242 204 242c66 0 102 -38 109 -48l8 27c2 8 8 11 14 11h11c6 0 11 -6 10 -13zM308 103l30 210c-2 4 -32 55 -100 55c-92 0 -159 -88 -159 -194c0 -77 39 -143 104 -143c73 0 123 68 125 72z" />
    <glyph glyph-name="aringacute" unicode="&#x1fb;" 
d="M247 433c-49 0 -83 40 -83 91c0 68 49 122 113 122c48 0 82 -41 82 -92c0 -68 -48 -121 -112 -121zM252 465c42 0 73 39 73 84c0 34 -22 64 -52 64c-43 0 -76 -38 -76 -83c0 -35 23 -65 55 -65zM208 654c-9 -4 -13 -3 -15 3l-4 11c-2 5 0 10 8 14l157 90c4 2 13 4 16 -3
l9 -21c2 -6 0 -12 -6 -15zM391 387l-52 -374c-1 -7 -7 -13 -14 -13h-11c-8 0 -13 5 -12 14l2 34c-11 -13 -61 -58 -130 -58c-82 0 -139 79 -139 178c0 133 93 242 204 242c66 0 102 -38 109 -48l8 27c2 8 8 11 14 11h11c6 0 11 -6 10 -13zM308 103l30 210
c-2 4 -32 55 -100 55c-92 0 -159 -88 -159 -194c0 -77 39 -143 104 -143c73 0 123 68 125 72z" />
    <glyph glyph-name="aogonek" unicode="&#x105;" 
d="M391 387l-52 -374c-1 -7 -7 -13 -14 -13h-4c-29 -18 -73 -62 -73 -124c0 -37 26 -56 56 -56c26 0 46 10 57 15c9 4 10 -2 10 -14c0 -10 -4 -15 -11 -20c-13 -10 -38 -17 -66 -17c-46 0 -85 24 -85 82c0 60 39 119 93 145l2 37c-11 -13 -61 -58 -130 -58
c-82 0 -139 79 -139 178c0 133 93 242 204 242c66 0 102 -38 109 -48l8 27c2 8 8 11 14 11h11c6 0 11 -6 10 -13zM308 103l30 210c-2 4 -32 55 -100 55c-92 0 -159 -88 -159 -194c0 -77 39 -143 104 -143c73 0 123 68 125 72z" />
    <glyph glyph-name="ae" unicode="&#xe6;" horiz-adv-x="636" 
d="M121 -10c-65 0 -114 52 -102 135c11 77 75 132 165 132c46 0 80 -9 90 -13c12 89 14 127 -55 127c-63 0 -109 -24 -117 -27c-7 -2 -12 1 -12 8l-2 16c0 6 5 11 10 13c0 0 55 29 127 29c56 0 81 -21 90 -60c35 37 95 60 150 60c70 0 131 -41 131 -103
c0 -159 -293 -110 -293 -110l-9 -93c18 -44 56 -73 108 -73c48 0 86 21 110 37c6 4 10 6 15 -1l9 -14c4 -6 1 -10 -5 -16c-22 -22 -82 -47 -138 -47c-53 0 -91 28 -116 68c-30 -32 -94 -68 -156 -68zM308 232c119 -18 245 -2 245 73c0 35 -36 63 -87 63
c-70 0 -119 -30 -147 -67zM132 29c51 0 100 32 120 57l17 120c-5 2 -38 15 -87 15c-66 0 -114 -38 -122 -97c-9 -63 23 -95 72 -95z" />
    <glyph glyph-name="aeacute" unicode="&#x1fd;" horiz-adv-x="636" 
d="M121 -10c-65 0 -114 52 -102 135c11 77 75 132 165 132c46 0 80 -9 90 -13c12 89 14 127 -55 127c-63 0 -109 -24 -117 -27c-7 -2 -12 1 -12 8l-2 16c0 6 5 11 10 13c0 0 55 29 127 29c56 0 81 -21 90 -60c35 37 95 60 150 60c70 0 131 -41 131 -103
c0 -159 -293 -110 -293 -110l-9 -93c18 -44 56 -73 108 -73c48 0 86 21 110 37c6 4 10 6 15 -1l9 -14c4 -6 1 -10 -5 -16c-22 -22 -82 -47 -138 -47c-53 0 -91 28 -116 68c-30 -32 -94 -68 -156 -68zM308 232c119 -18 245 -2 245 73c0 35 -36 63 -87 63
c-70 0 -119 -30 -147 -67zM132 29c51 0 100 32 120 57l17 120c-5 2 -38 15 -87 15c-66 0 -114 -38 -122 -97c-9 -63 23 -95 72 -95zM337 559c-9 -4 -13 -3 -15 3l-4 11c-2 5 0 10 8 14l157 90c4 2 13 4 16 -3l9 -21c2 -6 0 -12 -6 -15z" />
    <glyph glyph-name="cacute" unicode="&#x107;" horiz-adv-x="423" 
d="M35 171c0 141 104 239 220 239c68 0 107 -39 123 -62c4 -6 1 -12 -5 -18l-8 -7c-8 -7 -15 -4 -20 2c-9 11 -41 43 -94 43c-87 0 -171 -83 -171 -192c0 -82 51 -145 121 -145c64 0 104 49 115 61c8 8 13 8 19 2l12 -11c5 -4 6 -10 1 -16c-19 -24 -74 -77 -152 -77
c-87 0 -161 78 -161 181zM214 559c-9 -4 -13 -3 -15 3l-4 11c-2 5 0 10 8 14l157 90c4 2 13 4 16 -3l9 -21c2 -6 0 -12 -6 -15z" />
    <glyph glyph-name="ccircumflex" unicode="&#x109;" horiz-adv-x="423" 
d="M35 171c0 141 104 239 220 239c68 0 107 -39 123 -62c4 -6 1 -12 -5 -18l-8 -7c-8 -7 -15 -4 -20 2c-9 11 -41 43 -94 43c-87 0 -171 -83 -171 -192c0 -82 51 -145 121 -145c64 0 104 49 115 61c8 8 13 8 19 2l12 -11c5 -4 6 -10 1 -16c-19 -24 -74 -77 -152 -77
c-87 0 -161 78 -161 181zM164 552l-7 11c-3 5 -1 10 4 14l123 98c5 4 9 5 12 5c4 0 6 -2 9 -5l96 -98c4 -4 7 -9 2 -14l-7 -8c-4 -4 -8 -8 -15 -2l-89 81l-113 -84c-9 -6 -12 -2 -15 2z" />
    <glyph glyph-name="ccaron" unicode="&#x10d;" horiz-adv-x="423" 
d="M35 171c0 141 104 239 220 239c68 0 107 -39 123 -62c4 -6 1 -12 -5 -18l-8 -7c-8 -7 -15 -4 -20 2c-9 11 -41 43 -94 43c-87 0 -171 -83 -171 -192c0 -82 51 -145 121 -145c64 0 104 49 115 61c8 8 13 8 19 2l12 -11c5 -4 6 -10 1 -16c-19 -24 -74 -77 -152 -77
c-87 0 -161 78 -161 181zM277 544c-4 0 -6 2 -9 5l-96 98c-4 4 -7 9 -2 14l7 8c4 4 8 8 15 2l89 -81l113 84c9 6 12 2 15 -2l7 -11c3 -5 1 -10 -4 -14l-123 -98c-5 -4 -9 -5 -12 -5z" />
    <glyph glyph-name="cdotaccent" unicode="&#x10b;" horiz-adv-x="423" 
d="M35 171c0 141 104 239 220 239c68 0 107 -39 123 -62c4 -6 1 -12 -5 -18l-8 -7c-8 -7 -15 -4 -20 2c-9 11 -41 43 -94 43c-87 0 -171 -83 -171 -192c0 -82 51 -145 121 -145c64 0 104 49 115 61c8 8 13 8 19 2l12 -11c5 -4 6 -10 1 -16c-19 -24 -74 -77 -152 -77
c-87 0 -161 78 -161 181zM284 582c-19 0 -32 16 -32 34c0 23 20 42 43 42c18 0 32 -15 32 -33c0 -23 -21 -43 -43 -43z" />
    <glyph glyph-name="ccedilla" unicode="&#xe7;" horiz-adv-x="425" 
d="M162 -6c-71 17 -126 88 -126 177c0 141 104 239 220 239c68 0 107 -39 123 -62c4 -6 1 -12 -5 -18l-8 -7c-8 -7 -15 -4 -20 2c-9 11 -41 43 -94 43c-87 0 -171 -83 -171 -192c0 -82 51 -145 121 -145c64 0 104 49 115 61c8 8 13 8 19 2l12 -11c5 -4 6 -10 1 -16
c-19 -24 -79 -76 -152 -77l-6 -44c41 -5 84 -34 84 -84c0 -60 -41 -110 -104 -110c-36 0 -60 19 -66 34c-3 8 -3 14 3 18l10 8c8 6 10 1 15 -6c6 -8 16 -18 43 -18c37 0 60 32 60 68c0 41 -39 55 -73 60c-9 2 -11 7 -10 13z" />
    <glyph glyph-name="dcaron" unicode="&#x10f;" horiz-adv-x="482" 
d="M36 168c0 135 90 242 209 242c66 0 102 -40 102 -40l45 317c2 10 5 13 13 13h19c6 0 11 -6 10 -13l-94 -674c-1 -7 -7 -13 -14 -13h-11c-8 0 -13 5 -12 14l2 34c-11 -13 -61 -58 -130 -58c-82 0 -139 79 -139 178zM184 31c73 0 123 68 125 72l32 220s-35 45 -98 45
c-90 0 -163 -86 -163 -197c0 -77 39 -140 104 -140zM508 477l-7 10c-3 5 -1 11 6 16c6 4 49 34 64 95c4 15 4 28 2 38c-4 -3 -9 -5 -14 -5c-23 0 -34 16 -34 34c0 28 20 45 47 45c23 0 40 -22 40 -68c0 -97 -64 -153 -88 -165c-7 -4 -13 -5 -16 0z" />
    <glyph glyph-name="dcroat" unicode="&#x111;" horiz-adv-x="452" 
d="M36 168c0 135 90 242 209 242c66 0 102 -40 102 -40l24 172h-166c-8 0 -12 6 -11 13l1 6c1 7 7 12 14 12h167l16 114c2 10 5 13 13 13h19c6 0 11 -6 10 -13l-16 -114h35c8 0 11 -4 10 -12l-1 -6c-1 -7 -7 -13 -14 -13h-34l-74 -529c-1 -7 -7 -13 -14 -13h-11
c-8 0 -13 5 -12 14l2 34c-11 -13 -61 -58 -130 -58c-82 0 -139 79 -139 178zM184 30c73 0 123 69 125 73l32 220s-35 44 -98 44c-90 0 -163 -85 -163 -196c0 -77 39 -141 104 -141z" />
    <glyph glyph-name="eth" unicode="&#xf0;" horiz-adv-x="513" 
d="M36 189c0 152 115 250 228 250c89 0 142 -60 150 -81c-1 96 -45 170 -94 222l-110 -67c-6 -3 -14 -1 -16 5l-2 5c-3 6 0 14 6 17l99 60c-43 37 -77 57 -96 66c-7 3 -8 8 -3 16l9 17c3 5 9 7 14 5c26 -11 73 -37 119 -81l67 40c8 4 14 1 17 -5l2 -5c2 -6 0 -13 -7 -17
l-56 -34c52 -58 99 -152 99 -270c0 -184 -92 -342 -256 -342c-98 0 -170 90 -170 199zM80 192c0 -87 54 -160 132 -160c114 0 183 114 200 236c1 11 2 20 2 30c-2 4 -48 100 -153 100c-92 0 -181 -86 -181 -206z" />
    <glyph glyph-name="egrave" unicode="&#xe8;" horiz-adv-x="414" 
d="M35 167c0 131 86 243 209 243c70 0 125 -41 125 -103c0 -149 -290 -120 -290 -120c-8 -86 37 -156 115 -156c46 0 90 25 109 39c9 6 12 5 16 -2l9 -15c3 -5 4 -10 -3 -16c-13 -12 -71 -47 -140 -47c-93 0 -150 79 -150 177zM84 225c109 -9 242 5 242 80
c0 35 -36 63 -87 63c-76 0 -138 -61 -155 -143zM337 560l-142 79c-5 3 -5 9 -1 15l12 19c4 7 12 7 17 3l132 -90c6 -4 6 -9 4 -14l-6 -9c-4 -5 -7 -7 -16 -3z" />
    <glyph glyph-name="eacute" unicode="&#xe9;" horiz-adv-x="414" 
d="M35 167c0 131 86 243 209 243c70 0 125 -41 125 -103c0 -149 -290 -120 -290 -120c-8 -86 37 -156 115 -156c46 0 90 25 109 39c9 6 12 5 16 -2l9 -15c3 -5 4 -10 -3 -16c-13 -12 -71 -47 -140 -47c-93 0 -150 79 -150 177zM84 225c109 -9 242 5 242 80
c0 35 -36 63 -87 63c-76 0 -138 -61 -155 -143zM199 559c-9 -4 -13 -3 -15 3l-4 11c-2 5 0 10 8 14l157 90c4 2 13 4 16 -3l9 -21c2 -6 0 -12 -6 -15z" />
    <glyph glyph-name="ecircumflex" unicode="&#xea;" horiz-adv-x="414" 
d="M35 167c0 131 86 243 209 243c70 0 125 -41 125 -103c0 -149 -290 -120 -290 -120c-8 -86 37 -156 115 -156c46 0 90 25 109 39c9 6 12 5 16 -2l9 -15c3 -5 4 -10 -3 -16c-13 -12 -71 -47 -140 -47c-93 0 -150 79 -150 177zM84 225c109 -9 242 5 242 80
c0 35 -36 63 -87 63c-76 0 -138 -61 -155 -143zM148 552l-7 11c-3 5 -1 10 4 14l123 98c5 4 9 5 12 5c4 0 6 -2 9 -5l96 -98c4 -4 7 -9 2 -14l-7 -8c-4 -4 -8 -8 -15 -2l-89 81l-113 -84c-9 -6 -12 -2 -15 2z" />
    <glyph glyph-name="ecaron" unicode="&#x11b;" horiz-adv-x="414" 
d="M35 167c0 131 86 243 209 243c70 0 125 -41 125 -103c0 -149 -290 -120 -290 -120c-8 -86 37 -156 115 -156c46 0 90 25 109 39c9 6 12 5 16 -2l9 -15c3 -5 4 -10 -3 -16c-13 -12 -71 -47 -140 -47c-93 0 -150 79 -150 177zM84 225c109 -9 242 5 242 80
c0 35 -36 63 -87 63c-76 0 -138 -61 -155 -143zM266 544c-4 0 -6 2 -9 5l-96 98c-4 4 -7 9 -2 14l7 8c4 4 8 8 15 2l89 -81l113 84c9 6 12 2 15 -2l7 -11c3 -5 1 -10 -4 -14l-123 -98c-5 -4 -9 -5 -12 -5z" />
    <glyph glyph-name="edieresis" unicode="&#xeb;" horiz-adv-x="414" 
d="M35 167c0 131 86 243 209 243c70 0 125 -41 125 -103c0 -149 -290 -120 -290 -120c-8 -86 37 -156 115 -156c46 0 90 25 109 39c9 6 12 5 16 -2l9 -15c3 -5 4 -10 -3 -16c-13 -12 -71 -47 -140 -47c-93 0 -150 79 -150 177zM84 225c109 -9 242 5 242 80
c0 35 -36 63 -87 63c-76 0 -138 -61 -155 -143zM358 596c-17 0 -28 13 -28 29c0 22 17 39 37 39c18 0 30 -13 30 -30c0 -21 -18 -38 -39 -38zM186 596c-17 0 -29 13 -29 29c0 22 18 39 38 39c18 0 28 -13 28 -30c0 -21 -16 -38 -37 -38z" />
    <glyph glyph-name="emacron" unicode="&#x113;" horiz-adv-x="414" 
d="M35 167c0 131 86 243 209 243c70 0 125 -41 125 -103c0 -149 -290 -120 -290 -120c-8 -86 37 -156 115 -156c46 0 90 25 109 39c9 6 12 5 16 -2l9 -15c3 -5 4 -10 -3 -16c-13 -12 -71 -47 -140 -47c-93 0 -150 79 -150 177zM84 225c109 -9 242 5 242 80
c0 35 -36 63 -87 63c-76 0 -138 -61 -155 -143zM151 595c-8 0 -12 5 -11 12l2 13c1 7 6 13 14 13h242c7 0 12 -6 11 -13l-2 -13c-1 -7 -7 -12 -14 -12h-242z" />
    <glyph glyph-name="ebreve" unicode="&#x115;" horiz-adv-x="414" 
d="M35 167c0 131 86 243 209 243c70 0 125 -41 125 -103c0 -149 -290 -120 -290 -120c-8 -86 37 -156 115 -156c46 0 90 25 109 39c9 6 12 5 16 -2l9 -15c3 -5 4 -10 -3 -16c-13 -12 -71 -47 -140 -47c-93 0 -150 79 -150 177zM84 225c109 -9 242 5 242 80
c0 35 -36 63 -87 63c-76 0 -138 -61 -155 -143zM267 538c-57 0 -101 49 -103 110c0 8 4 14 12 14h11c7 0 9 -5 10 -11c4 -45 30 -79 73 -79c40 0 79 34 94 79c3 7 8 11 14 11h16c7 0 9 -6 7 -14c-17 -62 -68 -110 -134 -110z" />
    <glyph glyph-name="edotaccent" unicode="&#x117;" horiz-adv-x="414" 
d="M35 167c0 131 86 243 209 243c70 0 125 -41 125 -103c0 -149 -290 -120 -290 -120c-8 -86 37 -156 115 -156c46 0 90 25 109 39c9 6 12 5 16 -2l9 -15c3 -5 4 -10 -3 -16c-13 -12 -71 -47 -140 -47c-93 0 -150 79 -150 177zM84 225c109 -9 242 5 242 80
c0 35 -36 63 -87 63c-76 0 -138 -61 -155 -143zM270 582c-19 0 -32 16 -32 34c0 23 20 42 43 42c18 0 32 -15 32 -33c0 -23 -21 -43 -43 -43z" />
    <glyph glyph-name="eogonek" unicode="&#x119;" horiz-adv-x="416" 
d="M165 -8c-81 10 -129 84 -129 175c0 131 86 243 209 243c70 0 125 -41 125 -103c0 -149 -290 -120 -290 -120c-8 -86 37 -157 115 -157c46 0 91 25 110 39c9 6 12 5 16 -2l8 -14c3 -5 4 -10 -3 -16c-12 -11 -63 -42 -125 -46c-27 -22 -59 -62 -59 -115
c0 -37 26 -56 56 -56c26 0 46 10 57 15c9 4 10 -2 10 -14c0 -10 -4 -15 -11 -20c-13 -10 -38 -17 -66 -17c-46 0 -85 24 -85 82c0 48 25 95 62 126zM85 225c109 -9 242 5 242 80c0 35 -36 65 -87 65c-76 0 -138 -63 -155 -145z" />
    <glyph glyph-name="gcircumflex" unicode="&#x11d;" 
d="M35 168c0 133 93 242 204 242c66 0 102 -38 109 -48l8 27c2 8 8 11 14 11h11c6 0 11 -6 10 -13l-62 -457c-20 -142 -94 -190 -177 -190c-69 0 -119 52 -131 66c-6 6 -7 12 1 20l9 9c5 5 11 9 21 -1c6 -6 48 -54 103 -54c50 0 113 25 132 157l12 91
c-10 -10 -51 -38 -111 -38c-94 0 -153 79 -153 178zM79 173c0 -79 45 -142 119 -142c60 0 103 42 107 47l33 234c-2 4 -32 56 -100 56c-92 0 -159 -89 -159 -195zM153 552l-7 11c-3 5 -1 10 4 14l123 98c5 4 9 5 12 5c4 0 6 -2 9 -5l96 -98c4 -4 7 -9 2 -14l-7 -8
c-4 -4 -8 -8 -15 -2l-89 81l-113 -84c-9 -6 -12 -2 -15 2z" />
    <glyph glyph-name="gbreve" unicode="&#x11f;" 
d="M35 168c0 133 93 242 204 242c66 0 102 -38 109 -48l8 27c2 8 8 11 14 11h11c6 0 11 -6 10 -13l-62 -457c-20 -142 -94 -190 -177 -190c-69 0 -119 52 -131 66c-6 6 -7 12 1 20l9 9c5 5 11 9 21 -1c6 -6 48 -54 103 -54c50 0 113 25 132 157l12 91
c-10 -10 -51 -38 -111 -38c-94 0 -153 79 -153 178zM79 173c0 -79 45 -142 119 -142c60 0 103 42 107 47l33 234c-2 4 -32 56 -100 56c-92 0 -159 -89 -159 -195zM278 538c-57 0 -101 49 -103 110c0 8 4 14 12 14h11c7 0 9 -5 10 -11c4 -45 30 -79 73 -79c40 0 79 34 94 79
c3 7 8 11 14 11h16c7 0 9 -6 7 -14c-17 -62 -68 -110 -134 -110z" />
    <glyph glyph-name="gdotaccent" unicode="&#x121;" 
d="M35 168c0 133 93 242 204 242c66 0 102 -38 109 -48l8 27c2 8 8 11 14 11h11c6 0 11 -6 10 -13l-62 -457c-20 -142 -94 -190 -177 -190c-69 0 -119 52 -131 66c-6 6 -7 12 1 20l9 9c5 5 11 9 21 -1c6 -6 48 -54 103 -54c50 0 113 25 132 157l12 91
c-10 -10 -51 -38 -111 -38c-94 0 -153 79 -153 178zM79 173c0 -79 45 -142 119 -142c60 0 103 42 107 47l33 234c-2 4 -32 56 -100 56c-92 0 -159 -89 -159 -195zM275 582c-19 0 -32 16 -32 34c0 23 20 42 43 42c18 0 32 -15 32 -33c0 -23 -21 -43 -43 -43z" />
    <glyph glyph-name="gcommaaccent" unicode="&#x123;" 
d="M274 539c-23 0 -40 22 -40 68c0 97 64 153 88 165c7 4 13 5 16 0l7 -10c3 -5 1 -11 -6 -16c-6 -4 -50 -34 -65 -95c-3 -15 -3 -28 -2 -38c5 3 10 5 15 5c23 0 33 -16 33 -34c0 -28 -19 -45 -46 -45zM35 168c0 133 93 242 204 242c66 0 102 -38 109 -48l8 27
c2 8 8 11 14 11h11c6 0 11 -6 10 -13l-62 -457c-20 -142 -94 -190 -177 -190c-69 0 -119 52 -131 66c-6 6 -7 12 1 20l9 9c5 5 11 9 21 -1c6 -6 48 -54 103 -54c50 0 113 25 132 157l12 91c-10 -10 -51 -38 -111 -38c-94 0 -153 79 -153 178zM79 173c0 -79 45 -142 119 -142
c60 0 103 42 107 47l33 234c-2 4 -32 56 -100 56c-92 0 -159 -89 -159 -195z" />
    <glyph glyph-name="hcircumflex" unicode="&#x125;" horiz-adv-x="461" 
d="M38 13l95 674c1 7 7 13 15 13h17c7 0 12 -6 11 -13l-48 -339c11 13 66 62 138 62c87 0 135 -64 118 -183l-30 -214c-1 -7 -8 -13 -15 -13h-18c-7 0 -12 6 -11 13l30 214c13 92 -17 141 -81 141c-75 0 -134 -66 -138 -71l-40 -284c-1 -8 -6 -13 -15 -13h-19
c-7 0 -10 6 -9 13zM48 769l-7 11c-3 5 -1 10 4 14l123 98c5 4 9 5 12 5c4 0 6 -2 9 -5l96 -98c4 -4 7 -9 2 -14l-7 -8c-4 -4 -8 -8 -15 -2l-89 81l-113 -84c-9 -6 -12 -2 -15 2z" />
    <glyph glyph-name="hbar" unicode="&#x127;" horiz-adv-x="458" 
d="M37 13l75 529h-35c-7 0 -10 7 -9 14l1 6c1 7 6 11 13 11h34l16 114c1 7 8 13 15 13h17c7 0 12 -6 11 -13l-16 -114h166c9 0 12 -4 11 -12l-1 -7c-1 -6 -7 -12 -14 -12h-167l-27 -196c12 13 66 64 138 64c93 0 133 -64 117 -183l-31 -214c-1 -7 -7 -13 -14 -13h-18
c-7 0 -12 6 -11 13l30 214c13 92 -17 140 -82 140c-73 0 -132 -65 -136 -70l-40 -284c-1 -8 -9 -13 -16 -13h-16c-7 0 -12 6 -11 13z" />
    <glyph glyph-name="dotlessi" unicode="&#x131;" horiz-adv-x="193" 
d="M37 13l53 374c1 7 8 13 14 13h19c7 0 12 -6 11 -13l-54 -374c-1 -8 -9 -13 -16 -13h-16c-7 0 -12 6 -11 13z" />
    <glyph glyph-name="igrave" unicode="&#xec;" horiz-adv-x="193" 
d="M207 560l-142 79c-5 3 -5 9 -1 15l12 19c4 7 12 7 17 3l132 -90c6 -4 6 -9 4 -14l-6 -9c-4 -5 -7 -7 -16 -3zM37 13l53 374c1 7 8 13 14 13h19c7 0 12 -6 11 -13l-54 -374c-1 -8 -9 -13 -16 -13h-16c-7 0 -12 6 -11 13z" />
    <glyph glyph-name="iacute" unicode="&#xed;" horiz-adv-x="193" 
d="M69 559c-9 -4 -13 -3 -15 3l-4 11c-2 5 0 10 8 14l157 90c4 2 13 4 16 -3l9 -21c2 -6 0 -12 -6 -15zM37 13l53 374c1 7 8 13 14 13h19c7 0 12 -6 11 -13l-54 -374c-1 -8 -9 -13 -16 -13h-16c-7 0 -12 6 -11 13z" />
    <glyph glyph-name="ibreve" unicode="&#x12d;" horiz-adv-x="193" 
d="M135 538c-57 0 -101 49 -103 110c0 8 4 14 12 14h11c7 0 9 -5 10 -11c4 -45 30 -79 73 -79c40 0 79 34 94 79c3 7 8 11 14 11h16c7 0 9 -6 7 -14c-17 -62 -68 -110 -134 -110zM37 13l53 374c1 7 8 13 14 13h19c7 0 12 -6 11 -13l-54 -374c-1 -8 -9 -13 -16 -13h-16
c-7 0 -12 6 -11 13z" />
    <glyph glyph-name="icircumflex" unicode="&#xee;" horiz-adv-x="193" 
d="M37 13l53 374c1 7 8 13 14 13h19c7 0 12 -6 11 -13l-54 -374c-1 -8 -9 -13 -16 -13h-16c-7 0 -12 6 -11 13zM18 552l-7 11c-3 5 -1 10 4 14l123 98c5 4 9 5 12 5c4 0 6 -2 9 -5l96 -98c4 -4 7 -9 2 -14l-7 -8c-4 -4 -8 -8 -15 -2l-89 81l-113 -84c-9 -6 -12 -2 -15 2z
" />
    <glyph glyph-name="itilde" unicode="&#x129;" horiz-adv-x="193" 
d="M24 579l-11 5c-6 2 -7 8 -4 14c9 18 34 86 94 86c62 0 51 -91 91 -91c32 0 49 41 56 59c3 7 9 10 15 7l12 -4c3 -2 7 -5 4 -13s-29 -86 -93 -86c-60 0 -54 92 -91 92c-34 0 -52 -45 -59 -63c-2 -6 -8 -9 -14 -6zM37 13l53 374c1 7 8 13 14 13h19c7 0 12 -6 11 -13
l-54 -374c-1 -8 -9 -13 -16 -13h-16c-7 0 -12 6 -11 13z" />
    <glyph glyph-name="idieresis" unicode="&#xef;" horiz-adv-x="193" 
d="M227 596c-17 0 -28 13 -28 29c0 22 17 39 37 39c18 0 30 -13 30 -30c0 -21 -18 -38 -39 -38zM55 596c-17 0 -29 13 -29 29c0 22 18 39 38 39c18 0 28 -13 28 -30c0 -21 -16 -38 -37 -38zM37 13l53 374c1 7 8 13 14 13h19c7 0 12 -6 11 -13l-54 -374c-1 -8 -9 -13 -16 -13
h-16c-7 0 -12 6 -11 13z" />
    <glyph glyph-name="imacron" unicode="&#x12b;" horiz-adv-x="193" 
d="M20 595c-8 0 -12 5 -11 12l2 13c1 7 6 13 14 13h242c7 0 12 -6 11 -13l-2 -13c-1 -7 -7 -12 -14 -12h-242zM37 13l53 374c1 7 8 13 14 13h19c7 0 12 -6 11 -13l-54 -374c-1 -8 -9 -13 -16 -13h-16c-7 0 -12 6 -11 13z" />
    <glyph glyph-name="iogonek" unicode="&#x12f;" horiz-adv-x="194" 
d="M142 596c-17 0 -28 13 -28 29c0 21 18 39 38 39c16 0 28 -14 28 -31c0 -20 -18 -37 -38 -37zM37 11l54 376c1 7 8 13 15 13h18c7 0 12 -6 11 -13l-53 -374c-1 -8 -5 -13 -14 -13h-11c-29 -18 -73 -62 -73 -124c0 -37 26 -56 56 -56c26 0 46 10 57 15c9 4 10 -2 10 -14
c0 -10 -4 -15 -11 -20c-13 -10 -38 -17 -66 -17c-46 0 -85 24 -85 82c0 60 38 119 92 145z" />
    <glyph glyph-name="dotlessj" unicode="&#x237;" horiz-adv-x="192" 
d="M17 -137l74 524c1 7 7 13 14 13h17c7 0 12 -6 11 -13l-73 -524c-17 -118 -72 -173 -157 -173c-46 0 -82 26 -95 43c-5 6 -3 10 0 14l13 16c4 6 11 6 16 0c14 -13 39 -33 72 -33c54 0 95 40 108 133z" />
    <glyph glyph-name="jcircumflex" unicode="&#x135;" horiz-adv-x="192" 
d="M17 -137l74 524c1 7 7 13 14 13h17c7 0 12 -6 11 -13l-73 -524c-17 -118 -72 -173 -157 -173c-46 0 -82 26 -95 43c-5 6 -3 10 0 14l13 16c4 6 11 6 16 0c14 -13 39 -33 72 -33c54 0 95 40 108 133zM19 552l-7 11c-3 5 -1 10 4 14l123 98c5 4 9 5 12 5c4 0 6 -2 9 -5
l96 -98c4 -4 7 -9 2 -14l-7 -8c-4 -4 -8 -8 -15 -2l-89 81l-113 -84c-9 -6 -12 -2 -15 2z" />
    <glyph glyph-name="kcommaaccent" unicode="&#x137;" horiz-adv-x="393" 
d="M38 13l95 674c1 7 6 13 13 13h19c7 0 12 -6 11 -13l-63 -448l203 155c5 4 11 6 16 6h33c10 0 11 -10 3 -16l-218 -164l181 -203c7 -7 0 -17 -8 -17h-23c-8 0 -12 0 -19 8l-173 199l-27 -194c-1 -8 -6 -13 -15 -13h-19c-7 0 -10 6 -9 13zM118 -147c0 28 19 45 46 45
c23 0 40 -22 40 -68c0 -97 -64 -153 -88 -165c-7 -4 -13 -5 -16 0l-7 10c-3 5 -1 11 6 16c6 4 50 34 65 95c3 15 3 28 2 38c-5 -3 -10 -5 -15 -5c-23 0 -33 16 -33 34z" />
    <glyph glyph-name="kgreenlandic" unicode="&#x138;" horiz-adv-x="397" 
d="M37 13l53 374c1 7 7 13 14 13h19c6 0 11 -6 10 -13l-24 -170l215 177c5 4 11 6 16 6h32c9 0 8 -12 -1 -18l-223 -182l186 -183c6 -6 0 -17 -8 -17h-25c-5 0 -8 1 -16 8l-181 177l-24 -172c-1 -8 -6 -13 -14 -13h-15c-7 0 -15 6 -14 13z" />
    <glyph glyph-name="lacute" unicode="&#x13a;" horiz-adv-x="194" 
d="M38 13l95 674c1 7 6 13 12 13h21c6 0 12 -6 11 -13l-95 -674c-1 -8 -6 -13 -15 -13h-20c-7 0 -10 6 -9 13zM99 776c-9 -4 -13 -3 -15 3l-4 11c-2 5 0 10 8 14l157 90c4 2 13 4 16 -3l9 -21c2 -6 0 -12 -6 -15z" />
    <glyph glyph-name="lcaron" unicode="&#x13e;" horiz-adv-x="224" 
d="M38 13l95 674c1 7 6 13 12 13h21c6 0 12 -6 11 -13l-95 -674c-1 -8 -6 -13 -15 -13h-20c-7 0 -10 6 -9 13zM255 477l-7 10c-3 5 -1 11 6 16c6 4 49 34 64 95c4 15 4 28 2 38c-4 -3 -9 -5 -14 -5c-23 0 -34 16 -34 34c0 28 20 45 47 45c23 0 40 -22 40 -68
c0 -97 -64 -153 -88 -165c-7 -4 -13 -5 -16 0z" />
    <glyph glyph-name="lcommaaccent" unicode="&#x13c;" horiz-adv-x="194" 
d="M38 13l95 674c1 7 6 13 12 13h21c6 0 12 -6 11 -13l-95 -674c-1 -8 -6 -13 -15 -13h-20c-7 0 -10 6 -9 13zM-3 -147c0 28 19 45 46 45c23 0 40 -22 40 -68c0 -97 -64 -153 -88 -165c-7 -4 -13 -5 -16 0l-7 10c-3 5 -1 11 6 16c6 4 50 34 65 95c3 15 3 28 2 38
c-5 -3 -10 -5 -15 -5c-23 0 -33 16 -33 34z" />
    <glyph glyph-name="lslash" unicode="&#x142;" horiz-adv-x="225" 
d="M53 13l45 322l-63 -34c-6 -3 -13 -2 -15 4l-2 6c-2 6 -2 13 6 17l79 42l45 317c1 7 7 13 14 13h18c6 0 12 -6 11 -13l-42 -293l108 59c7 4 13 1 15 -5l2 -6c2 -5 0 -12 -7 -16l-123 -67l-48 -346c-1 -8 -9 -13 -16 -13h-16c-7 0 -12 6 -11 13z" />
    <glyph glyph-name="ldot" unicode="&#x140;" horiz-adv-x="327" 
d="M38 13l95 674c1 7 6 13 12 13h21c6 0 12 -6 11 -13l-95 -674c-1 -8 -6 -13 -15 -13h-20c-7 0 -10 6 -9 13zM267 321c-19 0 -32 16 -32 34c0 23 20 42 43 42c18 0 32 -15 32 -33c0 -23 -21 -43 -43 -43z" />
    <glyph glyph-name="nacute" unicode="&#x144;" horiz-adv-x="460" 
d="M37 13l53 374c1 7 8 13 15 13h10c7 0 11 -4 11 -10l-2 -40c12 14 68 60 141 60c96 0 134 -71 118 -183l-30 -214c-1 -7 -8 -13 -15 -13h-18c-7 0 -12 6 -11 13l30 214c13 92 -17 141 -83 141c-72 0 -132 -65 -136 -70l-40 -285c-1 -8 -6 -13 -15 -13h-19
c-7 0 -10 6 -9 13zM205 559c-9 -4 -13 -3 -15 3l-4 11c-2 5 0 10 8 14l157 90c4 2 13 4 16 -3l9 -21c2 -6 0 -12 -6 -15z" />
    <glyph glyph-name="ncaron" unicode="&#x148;" horiz-adv-x="460" 
d="M37 13l53 374c1 7 8 13 15 13h10c7 0 11 -4 11 -10l-2 -40c12 14 68 60 141 60c96 0 134 -71 118 -183l-30 -214c-1 -7 -8 -13 -15 -13h-18c-7 0 -12 6 -11 13l30 214c13 92 -17 141 -83 141c-72 0 -132 -65 -136 -70l-40 -285c-1 -8 -6 -13 -15 -13h-19
c-7 0 -10 6 -9 13zM270 544c-4 0 -6 2 -9 5l-96 98c-4 4 -7 9 -2 14l7 8c4 4 8 8 15 2l89 -81l113 84c9 6 12 2 15 -2l7 -11c3 -5 1 -10 -4 -14l-123 -98c-5 -4 -9 -5 -12 -5z" />
    <glyph glyph-name="ntilde" unicode="&#xf1;" horiz-adv-x="460" 
d="M37 13l53 374c1 7 8 13 15 13h10c7 0 11 -4 11 -10l-2 -40c12 14 68 60 141 60c96 0 134 -71 118 -183l-30 -214c-1 -7 -8 -13 -15 -13h-18c-7 0 -12 6 -11 13l30 214c13 92 -17 141 -83 141c-72 0 -132 -65 -136 -70l-40 -285c-1 -8 -6 -13 -15 -13h-19
c-7 0 -10 6 -9 13zM160 579l-11 5c-6 2 -7 8 -4 14c9 18 34 86 94 86c62 0 51 -91 91 -91c32 0 49 41 56 59c3 7 9 10 15 7l12 -4c3 -2 7 -5 4 -13s-29 -86 -93 -86c-60 0 -54 92 -91 92c-34 0 -52 -45 -59 -63c-2 -6 -8 -9 -14 -6z" />
    <glyph glyph-name="ncommaaccent" unicode="&#x146;" horiz-adv-x="461" 
d="M37 13l53 374c1 7 8 13 15 13h10c7 0 11 -4 11 -10l-2 -40c12 14 68 60 141 60c96 0 134 -71 118 -183l-30 -214c-1 -7 -8 -13 -15 -13h-18c-7 0 -12 6 -11 13l30 214c13 92 -17 141 -83 141c-72 0 -132 -65 -136 -70l-40 -285c-1 -8 -6 -13 -15 -13h-19
c-7 0 -10 6 -9 13zM133 -147c0 28 19 45 46 45c23 0 40 -22 40 -68c0 -97 -64 -153 -88 -165c-7 -4 -13 -5 -16 0l-7 10c-3 5 -1 11 6 16c6 4 50 34 65 95c3 15 3 28 2 38c-5 -3 -10 -5 -15 -5c-23 0 -33 16 -33 34z" />
    <glyph glyph-name="napostrophe" unicode="&#x149;" horiz-adv-x="460" 
d="M37 13l53 374c1 7 8 13 15 13h10c7 0 11 -4 11 -10l-2 -40c12 14 68 60 141 60c96 0 134 -71 118 -183l-30 -214c-1 -7 -8 -13 -15 -13h-18c-7 0 -12 6 -11 13l30 214c13 92 -17 141 -83 141c-72 0 -132 -65 -136 -70l-40 -285c-1 -8 -6 -13 -15 -13h-19
c-7 0 -10 6 -9 13zM-29 665c0 28 19 45 46 45c23 0 40 -22 40 -68c0 -97 -64 -153 -88 -165c-7 -4 -13 -5 -16 0l-7 10c-3 5 -1 11 6 16c6 4 50 34 65 95c3 15 3 28 2 38c-5 -3 -10 -5 -15 -5c-23 0 -33 16 -33 34z" />
    <glyph glyph-name="ograve" unicode="&#xf2;" horiz-adv-x="458" 
d="M35 171c0 130 96 239 213 239c87 0 153 -82 153 -181c0 -131 -97 -239 -212 -239c-87 0 -154 81 -154 181zM79 175c0 -80 46 -144 115 -144c85 0 162 87 162 194c0 79 -46 143 -114 143c-86 0 -163 -87 -163 -193zM344 560l-142 79c-5 3 -5 9 -1 15l12 19c4 7 12 7 17 3
l132 -90c6 -4 6 -9 4 -14l-6 -9c-4 -5 -7 -7 -16 -3z" />
    <glyph glyph-name="oacute" unicode="&#xf3;" horiz-adv-x="458" 
d="M35 171c0 130 96 239 213 239c87 0 153 -82 153 -181c0 -131 -97 -239 -212 -239c-87 0 -154 81 -154 181zM79 175c0 -80 46 -144 115 -144c85 0 162 87 162 194c0 79 -46 143 -114 143c-86 0 -163 -87 -163 -193zM206 559c-9 -4 -13 -3 -15 3l-4 11c-2 5 0 10 8 14
l157 90c4 2 13 4 16 -3l9 -21c2 -6 0 -12 -6 -15z" />
    <glyph glyph-name="ocircumflex" unicode="&#xf4;" horiz-adv-x="458" 
d="M35 171c0 130 96 239 213 239c87 0 153 -82 153 -181c0 -131 -97 -239 -212 -239c-87 0 -154 81 -154 181zM79 175c0 -80 46 -144 115 -144c85 0 162 87 162 194c0 79 -46 143 -114 143c-86 0 -163 -87 -163 -193zM155 552l-7 11c-3 5 -1 10 4 14l123 98c5 4 9 5 12 5
c4 0 6 -2 9 -5l96 -98c4 -4 7 -9 2 -14l-7 -8c-4 -4 -8 -8 -15 -2l-89 81l-113 -84c-9 -6 -12 -2 -15 2z" />
    <glyph glyph-name="otilde" unicode="&#xf5;" horiz-adv-x="458" 
d="M35 171c0 130 96 239 213 239c87 0 153 -82 153 -181c0 -131 -97 -239 -212 -239c-87 0 -154 81 -154 181zM79 175c0 -80 46 -144 115 -144c85 0 162 87 162 194c0 79 -46 143 -114 143c-86 0 -163 -87 -163 -193zM161 579l-11 5c-6 2 -7 8 -4 14c9 18 34 86 94 86
c62 0 51 -91 91 -91c32 0 49 41 56 59c3 7 9 10 15 7l12 -4c3 -2 7 -5 4 -13s-29 -86 -93 -86c-60 0 -54 92 -91 92c-34 0 -52 -45 -59 -63c-2 -6 -8 -9 -14 -6z" />
    <glyph glyph-name="odieresis" unicode="&#xf6;" horiz-adv-x="458" 
d="M35 171c0 130 96 239 213 239c87 0 153 -82 153 -181c0 -131 -97 -239 -212 -239c-87 0 -154 81 -154 181zM79 175c0 -80 46 -144 115 -144c85 0 162 87 162 194c0 79 -46 143 -114 143c-86 0 -163 -87 -163 -193zM365 596c-17 0 -28 13 -28 29c0 22 17 39 37 39
c18 0 30 -13 30 -30c0 -21 -18 -38 -39 -38zM193 596c-17 0 -29 13 -29 29c0 22 18 39 38 39c18 0 28 -13 28 -30c0 -21 -16 -38 -37 -38z" />
    <glyph glyph-name="omacron" unicode="&#x14d;" horiz-adv-x="458" 
d="M35 171c0 130 96 239 213 239c87 0 153 -82 153 -181c0 -131 -97 -239 -212 -239c-87 0 -154 81 -154 181zM79 175c0 -80 46 -144 115 -144c85 0 162 87 162 194c0 79 -46 143 -114 143c-86 0 -163 -87 -163 -193zM157 595c-8 0 -12 5 -11 12l2 13c1 7 6 13 14 13h242
c7 0 12 -6 11 -13l-2 -13c-1 -7 -7 -12 -14 -12h-242z" />
    <glyph glyph-name="obreve" unicode="&#x14f;" horiz-adv-x="458" 
d="M35 171c0 130 96 239 213 239c87 0 153 -82 153 -181c0 -131 -97 -239 -212 -239c-87 0 -154 81 -154 181zM79 175c0 -80 46 -144 115 -144c85 0 162 87 162 194c0 79 -46 143 -114 143c-86 0 -163 -87 -163 -193zM277 538c-57 0 -101 49 -103 110c0 8 4 14 12 14h11
c7 0 9 -5 10 -11c4 -45 30 -79 73 -79c40 0 79 34 94 79c3 7 8 11 14 11h16c7 0 9 -6 7 -14c-17 -62 -68 -110 -134 -110z" />
    <glyph glyph-name="ohungarumlaut" unicode="&#x151;" horiz-adv-x="458" 
d="M35 171c0 130 96 239 213 239c87 0 153 -82 153 -181c0 -131 -97 -239 -212 -239c-87 0 -154 81 -154 181zM79 175c0 -80 46 -144 115 -144c85 0 162 87 162 194c0 79 -46 143 -114 143c-86 0 -163 -87 -163 -193zM329 518c-7 0 -9 5 -5 12l89 159c3 7 8 11 14 11h23
c11 0 14 -8 8 -17l-104 -157c-3 -6 -8 -8 -13 -8h-12zM180 518c-7 0 -9 5 -6 12l89 159c4 7 8 11 15 11h23c11 0 13 -8 7 -17l-103 -157c-4 -6 -9 -8 -13 -8h-12z" />
    <glyph glyph-name="oslash" unicode="&#xf8;" horiz-adv-x="456" 
d="M35 36c-6 6 -3 13 2 18l18 18c-13 27 -20 64 -20 98c0 130 101 240 213 240c50 0 88 -23 114 -58l23 22c6 5 12 5 17 0l4 -4c5 -5 4 -13 -2 -18l-25 -24c14 -27 21 -66 21 -99c0 -132 -101 -239 -211 -239c-49 0 -89 22 -117 58l-17 -17c-5 -5 -11 -4 -16 1zM91 102
l236 220c-20 29 -49 46 -85 46c-87 0 -163 -88 -163 -196c0 -23 4 -50 12 -70zM107 78c20 -29 50 -47 87 -47c86 0 163 86 163 193c0 24 -5 54 -14 74z" />
    <glyph glyph-name="oslashacute" unicode="&#x1ff;" horiz-adv-x="456" 
d="M307 559c-9 -4 -13 -3 -15 3l-4 11c-2 5 0 10 8 14l157 90c4 2 13 4 16 -3l9 -21c2 -6 0 -12 -6 -15zM35 36c-6 6 -3 13 2 18l18 18c-13 27 -20 64 -20 98c0 130 101 240 213 240c50 0 88 -23 114 -58l23 22c6 5 12 5 17 0l4 -4c5 -5 4 -13 -2 -18l-25 -24
c14 -27 21 -66 21 -99c0 -132 -101 -239 -211 -239c-49 0 -89 22 -117 58l-17 -17c-5 -5 -11 -4 -16 1zM91 102l236 220c-20 29 -49 46 -85 46c-87 0 -163 -88 -163 -196c0 -23 4 -50 12 -70zM107 78c20 -29 50 -47 87 -47c86 0 163 86 163 193c0 24 -5 54 -14 74z" />
    <glyph glyph-name="oe" unicode="&#x153;" horiz-adv-x="712" 
d="M34 171c0 130 96 239 211 239c59 0 106 -29 132 -79c43 50 110 79 165 79c70 0 131 -41 131 -103c0 -159 -294 -110 -294 -110l-11 -88c18 -44 59 -78 111 -78c48 0 86 21 110 37c6 4 11 6 15 -1l9 -15c4 -6 1 -10 -5 -16c-23 -21 -82 -46 -138 -46
c-58 0 -108 41 -127 83c-40 -51 -97 -83 -157 -83c-85 0 -152 81 -152 181zM384 232c119 -18 246 -2 246 73c0 35 -36 63 -87 63c-70 0 -123 -41 -151 -78zM77 175c0 -80 47 -144 115 -144c61 0 120 49 138 88l24 170c-12 33 -54 79 -114 79c-85 0 -163 -87 -163 -193z" />
    <glyph glyph-name="racute" unicode="&#x155;" horiz-adv-x="305" 
d="M37 13l53 374c1 7 8 13 14 13h13c5 0 10 -4 10 -11l-2 -38c9 14 52 59 120 59c27 0 45 -8 53 -12s12 -10 8 -18l-10 -20c-4 -7 -10 -9 -17 -5c-5 3 -21 13 -43 13c-70 0 -112 -64 -115 -70l-40 -285c-1 -8 -5 -13 -14 -13h-21c-7 0 -10 6 -9 13zM121 559
c-9 -4 -13 -3 -15 3l-4 11c-2 5 0 10 8 14l157 90c4 2 13 4 16 -3l9 -21c2 -6 0 -12 -6 -15z" />
    <glyph glyph-name="rcaron" unicode="&#x159;" horiz-adv-x="305" 
d="M37 13l53 374c1 7 8 13 14 13h13c5 0 10 -4 10 -11l-2 -38c9 14 52 59 120 59c27 0 45 -8 53 -12s12 -10 8 -18l-10 -20c-4 -7 -10 -9 -17 -5c-5 3 -21 13 -43 13c-70 0 -112 -64 -115 -70l-40 -285c-1 -8 -5 -13 -14 -13h-21c-7 0 -10 6 -9 13zM186 544c-4 0 -6 2 -9 5
l-96 98c-4 4 -7 9 -2 14l7 8c4 4 8 8 15 2l89 -81l113 84c9 6 12 2 15 -2l7 -11c3 -5 1 -10 -4 -14l-123 -98c-5 -4 -9 -5 -12 -5z" />
    <glyph glyph-name="rcommaaccent" unicode="&#x157;" horiz-adv-x="305" 
d="M37 13l53 374c1 7 8 13 14 13h13c5 0 10 -4 10 -11l-2 -38c9 14 52 59 120 59c27 0 45 -8 53 -12s12 -10 8 -18l-10 -20c-4 -7 -10 -9 -17 -5c-5 3 -21 13 -43 13c-70 0 -112 -64 -115 -70l-40 -285c-1 -8 -5 -13 -14 -13h-21c-7 0 -10 6 -9 13zM-2 -147
c0 28 19 45 46 45c23 0 40 -22 40 -68c0 -97 -64 -153 -88 -165c-7 -4 -13 -5 -16 0l-7 10c-3 5 -1 11 6 16c6 4 50 34 65 95c3 15 3 28 2 38c-5 -3 -10 -5 -15 -5c-23 0 -33 16 -33 34z" />
    <glyph glyph-name="sacute" unicode="&#x15b;" horiz-adv-x="346" 
d="M24 35c-3 3 -6 9 -2 14l13 16c3 5 11 7 17 1c7 -8 39 -37 89 -37c53 0 95 34 95 78c0 39 -37 57 -88 82c-52 25 -94 54 -94 107s40 114 132 114c48 0 81 -19 98 -32c6 -4 7 -11 2 -18l-9 -13c-5 -7 -12 -8 -18 -3c-7 5 -39 25 -77 25c-59 0 -85 -40 -85 -70
c0 -34 30 -54 74 -75c57 -27 109 -50 109 -112c0 -71 -62 -122 -142 -122c-60 0 -96 28 -114 45zM147 560c-9 -4 -13 -3 -15 3l-4 11c-2 5 0 10 8 14l157 90c4 2 13 4 16 -3l9 -21c2 -6 0 -12 -6 -15z" />
    <glyph glyph-name="scircumflex" unicode="&#x15d;" horiz-adv-x="346" 
d="M24 35c-3 3 -6 9 -2 14l13 16c3 5 11 7 17 1c7 -8 39 -37 89 -37c53 0 95 34 95 78c0 39 -37 57 -88 82c-52 25 -94 54 -94 107s40 114 132 114c48 0 81 -19 98 -32c6 -4 7 -11 2 -18l-9 -13c-5 -7 -12 -8 -18 -3c-7 5 -39 25 -77 25c-59 0 -85 -40 -85 -70
c0 -34 30 -54 74 -75c57 -27 109 -50 109 -112c0 -71 -62 -122 -142 -122c-60 0 -96 28 -114 45zM97 553l-7 11c-3 5 -1 10 4 14l123 98c5 4 9 5 12 5c4 0 6 -2 9 -5l96 -98c4 -4 7 -9 2 -14l-7 -8c-4 -4 -8 -8 -15 -2l-89 81l-113 -84c-9 -6 -12 -2 -15 2z" />
    <glyph glyph-name="scaron" unicode="&#x161;" horiz-adv-x="346" 
d="M24 35c-3 3 -6 9 -2 14l13 16c3 5 11 7 17 1c7 -8 39 -37 89 -37c53 0 95 34 95 78c0 39 -37 57 -88 82c-52 25 -94 54 -94 107s40 114 132 114c48 0 81 -19 98 -32c6 -4 7 -11 2 -18l-9 -13c-5 -7 -12 -8 -18 -3c-7 5 -39 25 -77 25c-59 0 -85 -40 -85 -70
c0 -34 30 -54 74 -75c57 -27 109 -50 109 -112c0 -71 -62 -122 -142 -122c-60 0 -96 28 -114 45zM213 545c-4 0 -6 2 -9 5l-96 98c-4 4 -7 9 -2 14l7 8c4 4 8 8 15 2l89 -81l113 84c9 6 12 2 15 -2l7 -11c3 -5 1 -10 -4 -14l-123 -98c-5 -4 -9 -5 -12 -5z" />
    <glyph glyph-name="scedilla" unicode="&#x15f;" horiz-adv-x="347" 
d="M25 35c-3 3 -6 9 -2 14l13 16c3 5 11 7 17 1c7 -8 39 -37 89 -37c53 0 95 34 95 78c0 39 -37 57 -88 82c-52 25 -94 54 -94 107s40 114 132 114c48 0 81 -19 98 -32c6 -4 7 -11 2 -18l-9 -13c-5 -7 -12 -8 -18 -3c-7 5 -39 25 -77 25c-59 0 -85 -40 -85 -70
c0 -34 30 -54 74 -75c57 -27 109 -50 109 -112c0 -71 -62 -122 -142 -122l-6 -44c41 -5 84 -34 84 -84c0 -60 -41 -110 -104 -110c-36 0 -60 19 -66 34c-3 8 -3 14 3 18l10 8c8 6 10 1 15 -6c6 -8 16 -18 43 -18c37 0 60 32 60 68c0 41 -39 55 -73 60c-9 2 -11 7 -10 13
l9 65c-40 7 -65 27 -79 41z" />
    <glyph glyph-name="scommaaccent" unicode="&#x219;" horiz-adv-x="346" 
d="M24 35c-3 3 -6 9 -2 14l13 16c3 5 11 7 17 1c7 -8 39 -37 89 -37c53 0 95 34 95 78c0 39 -37 57 -88 82c-52 25 -94 54 -94 107s40 114 132 114c48 0 81 -19 98 -32c6 -4 7 -11 2 -18l-9 -13c-5 -7 -12 -8 -18 -3c-7 5 -39 25 -77 25c-59 0 -85 -40 -85 -70
c0 -34 30 -54 74 -75c57 -27 109 -50 109 -112c0 -71 -62 -122 -142 -122c-60 0 -96 28 -114 45zM80 -146c0 28 19 45 46 45c23 0 40 -22 40 -68c0 -97 -64 -153 -88 -165c-7 -4 -13 -5 -16 0l-7 10c-3 5 -1 11 6 16c6 4 50 34 65 95c3 15 3 28 2 38c-5 -3 -10 -5 -15 -5
c-23 0 -33 16 -33 34z" />
    <glyph glyph-name="germandbls" unicode="&#xdf;" horiz-adv-x="511" 
d="M190 28l7 15c3 6 8 13 16 8c7 -4 39 -22 73 -22c64 0 121 42 121 120c0 89 -104 140 -104 196c0 58 113 139 113 228c0 66 -45 97 -95 97c-96 0 -159 -87 -183 -260l-99 -697c-2 -13 -7 -13 -16 -13h-19c-7 0 -10 6 -9 13l99 697c28 199 110 300 234 300
c70 0 134 -46 134 -129c0 -119 -111 -186 -111 -231c0 -36 102 -90 102 -194c0 -116 -82 -166 -172 -166c-38 0 -63 6 -84 17c-6 3 -11 11 -7 21z" />
    <glyph glyph-name="tcaron" unicode="&#x165;" horiz-adv-x="309" 
d="M64 103l37 258h-44c-10 0 -11 5 -9 13l2 16c1 7 6 10 13 10h43l15 109c1 8 8 13 15 13l17 1c7 0 12 -6 11 -13l-15 -110h121c8 0 12 -6 11 -13l-2 -13c-1 -8 -7 -13 -14 -13h-122l-36 -255c-6 -47 -5 -73 31 -73c33 0 71 20 84 28c8 5 12 1 15 -4l7 -13
c4 -7 2 -12 -5 -17c-16 -11 -59 -37 -109 -37c-70 0 -75 49 -66 113zM336 477l-7 10c-3 5 -1 11 6 16c6 4 49 34 64 95c4 15 4 28 2 38c-4 -3 -9 -5 -14 -5c-23 0 -34 16 -34 34c0 28 20 45 47 45c23 0 40 -22 40 -68c0 -97 -64 -153 -88 -165c-7 -4 -13 -5 -16 0z" />
    <glyph glyph-name="tcommaaccent" unicode="&#x163;" horiz-adv-x="309" 
d="M65 103l37 258h-44c-10 0 -11 5 -9 13l2 16c1 7 6 10 13 10h43l15 109c1 8 8 13 15 13l17 1c7 0 12 -6 11 -13l-15 -110h121c8 0 12 -6 11 -13l-2 -13c-1 -8 -7 -13 -14 -13h-122l-36 -255c-6 -47 -5 -73 31 -73c33 0 71 20 84 28c8 5 12 1 15 -4l7 -13
c4 -7 2 -12 -5 -17c-16 -11 -59 -37 -109 -37c-70 0 -75 49 -66 113zM71 -147c0 28 19 45 46 45c23 0 40 -22 40 -68c0 -97 -64 -153 -88 -165c-7 -4 -13 -5 -16 0l-7 10c-3 5 -1 11 6 16c6 4 50 34 65 95c3 15 3 28 2 38c-5 -3 -10 -5 -15 -5c-23 0 -33 16 -33 34z" />
    <glyph glyph-name="uni021B" unicode="&#x21b;" horiz-adv-x="309" 
d="M65 103l37 258h-44c-10 0 -11 5 -9 13l2 16c1 7 6 10 13 10h43l15 109c1 8 8 13 15 13l17 1c7 0 12 -6 11 -13l-15 -110h121c8 0 12 -6 11 -13l-2 -13c-1 -8 -7 -13 -14 -13h-122l-36 -255c-6 -47 -5 -73 31 -73c33 0 71 20 84 28c8 5 12 1 15 -4l7 -13
c4 -7 2 -12 -5 -17c-16 -11 -59 -37 -109 -37c-70 0 -75 49 -66 113zM71 -147c0 28 19 45 46 45c23 0 40 -22 40 -68c0 -97 -64 -153 -88 -165c-7 -4 -13 -5 -16 0l-7 10c-3 5 -1 11 6 16c6 4 50 34 65 95c3 15 3 28 2 38c-5 -3 -10 -5 -15 -5c-23 0 -33 16 -33 34z" />
    <glyph glyph-name="tbar" unicode="&#x167;" horiz-adv-x="309" 
d="M65 103l12 83h-33c-8 0 -12 7 -11 14l1 4c1 7 7 13 14 13h33l21 144h-44c-10 0 -11 5 -9 13l2 16c1 7 6 10 13 10h43l15 109c1 8 8 13 15 13l17 1c7 0 12 -6 11 -13l-15 -110h121c8 0 12 -6 11 -13l-2 -13c-1 -8 -7 -13 -14 -13h-122l-20 -144h102c8 0 12 -6 11 -13
l-1 -6c-1 -7 -6 -12 -14 -12h-103l-11 -80c-6 -47 -5 -73 31 -73c33 0 71 20 84 28c8 5 12 1 15 -4l7 -13c4 -7 2 -12 -5 -17c-16 -11 -59 -37 -109 -37c-70 0 -75 49 -66 113z" />
    <glyph glyph-name="thorn" unicode="&#xfe;" horiz-adv-x="452" 
d="M84 32l-45 -319c-1 -7 -8 -13 -14 -13h-18c-7 0 -12 6 -11 13l137 974c1 8 9 13 16 13h16c7 0 12 -6 11 -13l-46 -324c11 10 54 47 119 47c89 0 146 -81 146 -179c0 -136 -90 -241 -212 -241c-59 0 -92 32 -99 42zM92 80c0 -4 33 -48 92 -48c94 0 168 85 168 195
c0 77 -41 142 -112 142c-68 0 -113 -52 -116 -57z" />
    <glyph glyph-name="ugrave" unicode="&#xf9;" 
d="M172 -10c-96 0 -133 69 -117 182l30 215c1 7 8 13 14 13h19c7 0 12 -6 11 -13l-31 -215c-13 -93 18 -141 83 -141c74 0 124 66 127 71l40 285c1 8 6 13 14 13h19c6 0 11 -6 10 -13l-52 -374c-1 -7 -8 -13 -15 -13h-12c-7 0 -10 6 -10 12l2 36c-10 -14 -60 -58 -132 -58z
M336 560l-142 79c-5 3 -5 9 -1 15l12 19c4 7 12 7 17 3l132 -90c6 -4 6 -9 4 -14l-6 -9c-4 -5 -7 -7 -16 -3z" />
    <glyph glyph-name="uacute" unicode="&#xfa;" 
d="M172 -10c-96 0 -133 69 -117 182l30 215c1 7 8 13 14 13h19c7 0 12 -6 11 -13l-31 -215c-13 -93 18 -141 83 -141c74 0 124 66 127 71l40 285c1 8 6 13 14 13h19c6 0 11 -6 10 -13l-52 -374c-1 -7 -8 -13 -15 -13h-12c-7 0 -10 6 -10 12l2 36c-10 -14 -60 -58 -132 -58z
M199 559c-9 -4 -13 -3 -15 3l-4 11c-2 5 0 10 8 14l157 90c4 2 13 4 16 -3l9 -21c2 -6 0 -12 -6 -15z" />
    <glyph glyph-name="ucircumflex" unicode="&#xfb;" 
d="M172 -10c-96 0 -133 69 -117 182l30 215c1 7 8 13 14 13h19c7 0 12 -6 11 -13l-31 -215c-13 -93 18 -141 83 -141c74 0 124 66 127 71l40 285c1 8 6 13 14 13h19c6 0 11 -6 10 -13l-52 -374c-1 -7 -8 -13 -15 -13h-12c-7 0 -10 6 -10 12l2 36c-10 -14 -60 -58 -132 -58z
M148 552l-7 11c-3 5 -1 10 4 14l123 98c5 4 9 5 12 5c4 0 6 -2 9 -5l96 -98c4 -4 7 -9 2 -14l-7 -8c-4 -4 -8 -8 -15 -2l-89 81l-113 -84c-9 -6 -12 -2 -15 2z" />
    <glyph glyph-name="utilde" unicode="&#x169;" 
d="M172 -10c-96 0 -133 69 -117 182l30 215c1 7 8 13 14 13h19c7 0 12 -6 11 -13l-31 -215c-13 -93 18 -141 83 -141c74 0 124 66 127 71l40 285c1 8 6 13 14 13h19c6 0 11 -6 10 -13l-52 -374c-1 -7 -8 -13 -15 -13h-12c-7 0 -10 6 -10 12l2 36c-10 -14 -60 -58 -132 -58z
M152 579l-11 5c-6 2 -7 8 -4 14c9 18 34 86 94 86c62 0 51 -91 91 -91c32 0 49 41 56 59c3 7 9 10 15 7l12 -4c3 -2 7 -5 4 -13s-29 -86 -93 -86c-60 0 -54 92 -91 92c-34 0 -52 -45 -59 -63c-2 -6 -8 -9 -14 -6z" />
    <glyph glyph-name="udieresis" unicode="&#xfc;" 
d="M172 -10c-96 0 -133 69 -117 182l30 215c1 7 8 13 14 13h19c7 0 12 -6 11 -13l-31 -215c-13 -93 18 -141 83 -141c74 0 124 66 127 71l40 285c1 8 6 13 14 13h19c6 0 11 -6 10 -13l-52 -374c-1 -7 -8 -13 -15 -13h-12c-7 0 -10 6 -10 12l2 36c-10 -14 -60 -58 -132 -58z
M356 596c-17 0 -28 13 -28 29c0 22 17 39 37 39c18 0 30 -13 30 -30c0 -21 -18 -38 -39 -38zM184 596c-17 0 -29 13 -29 29c0 22 18 39 38 39c18 0 28 -13 28 -30c0 -21 -16 -38 -37 -38z" />
    <glyph glyph-name="umacron" unicode="&#x16b;" 
d="M172 -10c-96 0 -133 69 -117 182l30 215c1 7 8 13 14 13h19c7 0 12 -6 11 -13l-31 -215c-13 -93 18 -141 83 -141c74 0 124 66 127 71l40 285c1 8 6 13 14 13h19c6 0 11 -6 10 -13l-52 -374c-1 -7 -8 -13 -15 -13h-12c-7 0 -10 6 -10 12l2 36c-10 -14 -60 -58 -132 -58z
M150 595c-8 0 -12 5 -11 12l2 13c1 7 6 13 14 13h242c7 0 12 -6 11 -13l-2 -13c-1 -7 -7 -12 -14 -12h-242z" />
    <glyph glyph-name="ubreve" unicode="&#x16d;" 
d="M172 -10c-96 0 -133 69 -117 182l30 215c1 7 8 13 14 13h19c7 0 12 -6 11 -13l-31 -215c-13 -93 18 -141 83 -141c74 0 124 66 127 71l40 285c1 8 6 13 14 13h19c6 0 11 -6 10 -13l-52 -374c-1 -7 -8 -13 -15 -13h-12c-7 0 -10 6 -10 12l2 36c-10 -14 -60 -58 -132 -58z
M267 538c-57 0 -101 49 -103 110c0 8 4 14 12 14h11c7 0 9 -5 10 -11c4 -45 30 -79 73 -79c40 0 79 34 94 79c3 7 8 11 14 11h16c7 0 9 -6 7 -14c-17 -62 -68 -110 -134 -110z" />
    <glyph glyph-name="uring" unicode="&#x16f;" 
d="M172 -10c-96 0 -133 69 -117 182l30 215c1 7 8 13 14 13h19c7 0 12 -6 11 -13l-31 -215c-13 -93 18 -141 83 -141c74 0 124 66 127 71l40 285c1 8 6 13 14 13h19c6 0 11 -6 10 -13l-52 -374c-1 -7 -8 -13 -15 -13h-12c-7 0 -10 6 -10 12l2 36c-10 -14 -60 -58 -132 -58z
M258 497c-49 0 -83 40 -83 91c0 68 49 122 113 122c48 0 82 -41 82 -92c0 -68 -48 -121 -112 -121zM263 529c42 0 73 39 73 84c0 34 -22 64 -52 64c-43 0 -76 -38 -76 -83c0 -35 23 -65 55 -65z" />
    <glyph glyph-name="uhungarumlaut" unicode="&#x171;" 
d="M172 -10c-96 0 -133 69 -117 182l30 215c1 7 8 13 14 13h19c7 0 12 -6 11 -13l-31 -215c-13 -93 18 -141 83 -141c74 0 124 66 127 71l40 285c1 8 6 13 14 13h19c6 0 11 -6 10 -13l-52 -374c-1 -7 -8 -13 -15 -13h-12c-7 0 -10 6 -10 12l2 36c-10 -14 -60 -58 -132 -58z
M328 518c-7 0 -9 5 -5 12l89 159c3 7 8 11 14 11h23c11 0 14 -8 8 -17l-104 -157c-3 -6 -8 -8 -13 -8h-12zM179 518c-7 0 -9 5 -6 12l89 159c4 7 8 11 15 11h23c11 0 13 -8 7 -17l-103 -157c-4 -6 -9 -8 -13 -8h-12z" />
    <glyph glyph-name="uogonek" unicode="&#x173;" 
d="M172 -10c-96 0 -133 69 -117 182l30 215c1 7 8 13 14 13h19c7 0 12 -6 11 -13l-31 -215c-13 -93 18 -140 83 -140c74 0 124 65 127 70l40 285c1 8 6 13 14 13h19c6 0 11 -6 10 -13l-52 -374c-1 -7 -8 -13 -15 -13h-1c-29 -18 -73 -62 -73 -124c0 -37 26 -56 56 -56
c26 0 46 10 57 15c9 4 10 -2 10 -14c0 -10 -4 -15 -11 -20c-13 -10 -38 -17 -66 -17c-46 0 -85 24 -85 82c0 59 38 117 91 144l2 38c-10 -14 -60 -58 -132 -58z" />
    <glyph glyph-name="wacute" unicode="&#x1e83;" horiz-adv-x="556" 
d="M106 -1l-55 385c-2 9 2 16 10 16h20c4 0 10 -2 11 -9l40 -301h2l147 311c3 7 7 9 12 9h4c4 0 8 -2 9 -9l63 -311h1l123 301c3 7 9 9 14 9h23c9 0 10 -7 6 -16l-163 -385c-3 -6 -7 -9 -12 -9h-4c-3 0 -7 3 -8 9l-64 322h-1l-154 -322c-3 -6 -7 -9 -12 -9h-4
c-3 0 -7 3 -8 9zM250 559c-9 -4 -13 -3 -15 3l-4 11c-2 5 0 10 8 14l157 90c4 2 13 4 16 -3l9 -21c2 -6 0 -12 -6 -15z" />
    <glyph glyph-name="wcircumflex" unicode="&#x175;" horiz-adv-x="556" 
d="M106 -1l-55 385c-2 9 2 16 10 16h20c4 0 10 -2 11 -9l40 -301h2l147 311c3 7 7 9 12 9h4c4 0 8 -2 9 -9l63 -311h1l123 301c3 7 9 9 14 9h23c9 0 10 -7 6 -16l-163 -385c-3 -6 -7 -9 -12 -9h-4c-3 0 -7 3 -8 9l-64 322h-1l-154 -322c-3 -6 -7 -9 -12 -9h-4
c-3 0 -7 3 -8 9zM201 552l-7 11c-3 5 -1 10 4 14l123 98c5 4 9 5 12 5c4 0 6 -2 9 -5l96 -98c4 -4 7 -9 2 -14l-7 -8c-4 -4 -8 -8 -15 -2l-89 81l-113 -84c-9 -6 -12 -2 -15 2z" />
    <glyph glyph-name="wdieresis" unicode="&#x1e85;" horiz-adv-x="556" 
d="M106 -1l-55 385c-2 9 2 16 10 16h20c4 0 10 -2 11 -9l40 -301h2l147 311c3 7 7 9 12 9h4c4 0 8 -2 9 -9l63 -311h1l123 301c3 7 9 9 14 9h23c9 0 10 -7 6 -16l-163 -385c-3 -6 -7 -9 -12 -9h-4c-3 0 -7 3 -8 9l-64 322h-1l-154 -322c-3 -6 -7 -9 -12 -9h-4
c-3 0 -7 3 -8 9zM408 596c-17 0 -28 13 -28 29c0 22 17 39 37 39c18 0 30 -13 30 -30c0 -21 -18 -38 -39 -38zM236 596c-17 0 -29 13 -29 29c0 22 18 39 38 39c18 0 28 -13 28 -30c0 -21 -16 -38 -37 -38z" />
    <glyph glyph-name="wgrave" unicode="&#x1e81;" horiz-adv-x="556" 
d="M106 -1l-55 385c-2 9 2 16 10 16h20c4 0 10 -2 11 -9l40 -301h2l147 311c3 7 7 9 12 9h4c4 0 8 -2 9 -9l63 -311h1l123 301c3 7 9 9 14 9h23c9 0 10 -7 6 -16l-163 -385c-3 -6 -7 -9 -12 -9h-4c-3 0 -7 3 -8 9l-64 322h-1l-154 -322c-3 -6 -7 -9 -12 -9h-4
c-3 0 -7 3 -8 9zM387 560l-142 79c-5 3 -5 9 -1 15l12 19c4 7 12 7 17 3l132 -90c6 -4 6 -9 4 -14l-6 -9c-4 -5 -7 -7 -16 -3z" />
    <glyph glyph-name="yacute" unicode="&#xfd;" horiz-adv-x="408" 
d="M145 4l-116 380c-2 8 1 16 10 16h21c5 0 9 -3 11 -9l100 -339h2l186 339c3 6 9 9 14 9h22c9 0 12 -8 7 -16l-376 -676c-3 -5 -8 -8 -14 -8h-21c-8 0 -12 5 -7 14zM176 559c-9 -4 -13 -3 -15 3l-4 11c-2 5 0 10 8 14l157 90c4 2 13 4 16 -3l9 -21c2 -6 0 -12 -6 -15z" />
    <glyph glyph-name="ycircumflex" unicode="&#x177;" horiz-adv-x="408" 
d="M145 4l-116 380c-2 8 1 16 10 16h21c5 0 9 -3 11 -9l100 -339h2l186 339c3 6 9 9 14 9h22c9 0 12 -8 7 -16l-376 -676c-3 -5 -8 -8 -14 -8h-21c-8 0 -12 5 -7 14zM127 552l-7 11c-3 5 -1 10 4 14l123 98c5 4 9 5 12 5c4 0 6 -2 9 -5l96 -98c4 -4 7 -9 2 -14l-7 -8
c-4 -4 -8 -8 -15 -2l-89 81l-113 -84c-9 -6 -12 -2 -15 2z" />
    <glyph glyph-name="ydieresis" unicode="&#xff;" horiz-adv-x="408" 
d="M145 4l-116 380c-2 8 1 16 10 16h21c5 0 9 -3 11 -9l100 -339h2l186 339c3 6 9 9 14 9h22c9 0 12 -8 7 -16l-376 -676c-3 -5 -8 -8 -14 -8h-21c-8 0 -12 5 -7 14zM334 596c-17 0 -28 13 -28 29c0 22 17 39 37 39c18 0 30 -13 30 -30c0 -21 -18 -38 -39 -38zM162 596
c-17 0 -29 13 -29 29c0 22 18 39 38 39c18 0 28 -13 28 -30c0 -21 -16 -38 -37 -38z" />
    <glyph glyph-name="ygrave" unicode="&#x1ef3;" horiz-adv-x="408" 
d="M145 4l-116 380c-2 8 1 16 10 16h21c5 0 9 -3 11 -9l100 -339h2l186 339c3 6 9 9 14 9h22c9 0 12 -8 7 -16l-376 -676c-3 -5 -8 -8 -14 -8h-21c-8 0 -12 5 -7 14zM313 560l-142 79c-5 3 -5 9 -1 15l12 19c4 7 12 7 17 3l132 -90c6 -4 6 -9 4 -14l-6 -9
c-4 -5 -7 -7 -16 -3z" />
    <glyph glyph-name="zacute" unicode="&#x17a;" horiz-adv-x="343" 
d="M8 0c-9 0 -11 5 -10 11l2 11l255 337v1h-180c-7 0 -11 6 -10 13l2 14c2 9 6 13 13 13h232c10 0 15 -10 8 -19l-254 -339v-2h180c8 0 12 -5 11 -13l-2 -14c-1 -7 -7 -13 -14 -13h-233zM151 559c-9 -4 -13 -3 -15 3l-4 11c-2 5 0 10 8 14l157 90c4 2 13 4 16 -3l9 -21
c2 -6 0 -12 -6 -15z" />
    <glyph glyph-name="zcaron" unicode="&#x17e;" horiz-adv-x="343" 
d="M8 0c-9 0 -11 5 -10 11l2 11l255 337v1h-180c-7 0 -11 6 -10 13l2 14c2 9 6 13 13 13h232c10 0 15 -10 8 -19l-254 -339v-2h180c8 0 12 -5 11 -13l-2 -14c-1 -7 -7 -13 -14 -13h-233zM217 544c-4 0 -6 2 -9 5l-96 98c-4 4 -7 9 -2 14l7 8c4 4 8 8 15 2l89 -81l113 84
c9 6 12 2 15 -2l7 -11c3 -5 1 -10 -4 -14l-123 -98c-5 -4 -9 -5 -12 -5z" />
    <glyph glyph-name="zdotaccent" unicode="&#x17c;" horiz-adv-x="343" 
d="M8 0c-9 0 -11 5 -10 11l2 11l255 337v1h-180c-7 0 -11 6 -10 13l2 14c2 9 6 13 13 13h232c10 0 15 -10 8 -19l-254 -339v-2h180c8 0 12 -5 11 -13l-2 -14c-1 -7 -7 -13 -14 -13h-233zM222 582c-19 0 -32 16 -32 34c0 23 20 42 43 42c18 0 32 -15 32 -33
c0 -23 -21 -43 -43 -43z" />
    <glyph glyph-name="IJ" unicode="&#x132;" horiz-adv-x="623" 
d="M67 13l94 674c1 7 6 13 15 13h22c7 0 12 -6 11 -13l-94 -674c-2 -8 -9 -13 -16 -13h-21c-7 0 -12 6 -11 13zM204 65c-3 6 -2 12 3 17l14 11c6 5 12 7 17 0c15 -22 43 -61 100 -61c72 0 136 59 153 178l67 477c1 8 7 13 15 13h21c7 0 12 -6 11 -13l-67 -476
c-20 -140 -96 -221 -204 -221c-79 0 -118 54 -130 75z" />
    <glyph glyph-name="ij" unicode="&#x133;" horiz-adv-x="406" 
d="M142 596c-17 0 -28 13 -28 29c0 21 18 39 38 39c16 0 28 -14 28 -31c0 -20 -18 -37 -38 -37zM38 13l53 374c1 7 8 13 15 13h18c7 0 12 -6 11 -13l-53 -374c-1 -8 -5 -13 -14 -13h-21c-7 0 -10 6 -9 13zM355 596c-17 0 -28 13 -28 29c0 21 18 39 37 39c17 0 29 -14 29 -31
c0 -20 -18 -37 -38 -37zM231 -137l74 524c1 7 7 13 14 13h17c7 0 12 -6 11 -13l-73 -524c-17 -118 -71 -173 -155 -173c-46 0 -83 27 -97 43c-5 6 -3 10 0 14l12 15c4 6 11 6 16 0c14 -13 40 -31 73 -31c54 0 95 39 108 132z" />
    <glyph glyph-name="grave.cap" horiz-adv-x="272" 
d="M242 783l-142 79c-5 3 -5 9 -1 15l12 19c4 7 11 7 17 3l132 -90c6 -4 6 -9 4 -14l-6 -9c-4 -5 -7 -7 -16 -3z" />
    <glyph glyph-name="acute" unicode="&#xb4;" horiz-adv-x="272" 
d="M106 559c-9 -4 -13 -3 -15 3l-4 11c-2 5 0 10 8 14l157 90c4 2 13 4 16 -3l9 -21c2 -6 0 -12 -6 -15z" />
    <glyph glyph-name="acute.cap" horiz-adv-x="272" 
d="M106 781c-9 -4 -13 -3 -15 3l-4 11c-2 5 0 10 8 14l157 90c4 2 13 4 16 -3l9 -21c2 -6 0 -12 -6 -15z" />
    <glyph glyph-name="circumflex" unicode="&#x2c6;" horiz-adv-x="336" 
d="M69 552l-7 11c-3 5 -1 10 4 14l123 98c5 4 9 5 12 5c4 0 6 -2 9 -5l96 -98c4 -4 7 -9 2 -14l-7 -8c-4 -4 -8 -8 -15 -2l-89 81l-113 -84c-9 -6 -12 -2 -15 2z" />
    <glyph glyph-name="circumflex.cap" horiz-adv-x="336" 
d="M92 768c-9 -6 -12 -2 -15 2l-7 11c-3 5 -1 10 4 14l123 98c5 4 9 5 12 5c4 0 6 -2 9 -5l96 -98c4 -4 7 -9 2 -14l-7 -8c-4 -4 -8 -8 -15 -2l-89 81z" />
    <glyph glyph-name="caron" unicode="&#x2c7;" horiz-adv-x="336" 
d="M171 544c-4 0 -6 2 -9 5l-96 98c-4 4 -7 9 -2 14l7 8c4 4 8 8 15 2l89 -81l113 84c9 6 12 2 15 -2l7 -11c3 -5 1 -10 -4 -14l-123 -98c-5 -4 -9 -5 -12 -5z" />
    <glyph glyph-name="caron.cap" horiz-adv-x="336" 
d="M195 762c-4 0 -6 2 -9 5l-96 98c-4 4 -7 9 -2 14l7 8c4 4 8 8 15 2l89 -81l113 84c9 6 12 2 15 -2l7 -11c3 -5 1 -10 -4 -14l-123 -98c-5 -4 -9 -5 -12 -5z" />
    <glyph glyph-name="caron.alt" horiz-adv-x="336" 
d="M140 666c0 28 19 45 46 45c23 0 40 -22 40 -68c0 -97 -64 -153 -88 -165c-7 -4 -13 -5 -16 0l-7 10c-3 5 -1 11 6 16c6 4 50 34 65 95c3 15 3 28 2 38c-5 -3 -10 -5 -15 -5c-23 0 -33 16 -33 34z" />
    <glyph glyph-name="tilde" unicode="&#x2dc;" horiz-adv-x="342" 
d="M72 579l-11 5c-6 2 -7 8 -4 14c9 18 34 86 94 86c62 0 51 -91 91 -91c32 0 49 41 56 59c3 7 9 10 15 7l12 -4c3 -2 7 -5 4 -13s-29 -86 -93 -86c-60 0 -54 92 -91 92c-34 0 -52 -45 -59 -63c-2 -6 -8 -9 -14 -6z" />
    <glyph glyph-name="tilde.cap" horiz-adv-x="342" 
d="M84 799l-11 5c-6 2 -7 8 -4 14c9 18 34 86 94 86c62 0 51 -91 91 -91c32 0 49 41 56 59c3 7 9 10 15 7l12 -4c3 -2 7 -5 4 -13s-29 -86 -93 -86c-60 0 -54 92 -91 92c-34 0 -52 -45 -59 -63c-2 -6 -8 -9 -14 -6z" />
    <glyph glyph-name="dieresis" unicode="&#xa8;" horiz-adv-x="373" 
d="M311 596c-17 0 -28 13 -28 29c0 22 17 39 37 39c18 0 30 -13 30 -30c0 -21 -18 -38 -39 -38zM139 596c-17 0 -29 13 -29 29c0 22 18 39 38 39c18 0 28 -13 28 -30c0 -21 -16 -38 -37 -38z" />
    <glyph glyph-name="dieresis.cap" horiz-adv-x="427" 
d="M339 801c-16 0 -28 13 -28 29c0 22 18 39 38 39c17 0 29 -13 29 -30c0 -21 -18 -38 -39 -38zM151 801c-17 0 -28 13 -28 29c0 22 18 39 38 39c17 0 29 -13 29 -30c0 -21 -18 -38 -39 -38z" />
    <glyph glyph-name="macron" unicode="&#xaf;" horiz-adv-x="373" 
d="M50 595c-8 0 -12 5 -11 12l2 13c1 7 6 13 14 13h242c7 0 12 -6 11 -13l-2 -13c-1 -7 -7 -12 -14 -12h-242z" />
    <glyph glyph-name="macron.cap" horiz-adv-x="373" 
d="M102 831c-8 0 -12 6 -11 13l2 12c1 8 6 13 14 13h243c6 0 12 -5 10 -13l-1 -12c-1 -7 -8 -13 -15 -13h-242z" />
    <glyph glyph-name="uni02C9" unicode="&#x2c9;" horiz-adv-x="373" 
d="M89 595c-8 0 -12 5 -11 12l2 13c1 7 6 13 14 13h242c7 0 12 -6 11 -13l-2 -13c-1 -7 -7 -12 -14 -12h-242z" />
    <glyph glyph-name="breve" unicode="&#x2d8;" horiz-adv-x="311" 
d="M171 538c-57 0 -101 49 -103 110c0 8 4 14 12 14h11c7 0 9 -5 10 -11c4 -45 30 -79 73 -79c40 0 79 34 94 79c3 7 8 11 14 11h16c7 0 9 -6 7 -14c-17 -62 -68 -110 -134 -110z" />
    <glyph glyph-name="breve.cap" horiz-adv-x="311" 
d="M186 775c-58 0 -104 49 -103 111c0 7 3 14 11 14h11c7 0 9 -6 10 -12c6 -44 31 -78 74 -78c39 0 78 34 94 78c3 7 7 12 13 12h16c7 0 10 -7 8 -14c-19 -63 -69 -111 -134 -111z" />
    <glyph glyph-name="ring" unicode="&#x2da;" horiz-adv-x="261" 
d="M140 497c-49 0 -83 40 -83 91c0 68 49 122 113 122c48 0 82 -41 82 -92c0 -68 -48 -121 -112 -121zM145 529c42 0 73 39 73 84c0 34 -22 64 -52 64c-43 0 -76 -38 -76 -83c0 -35 23 -65 55 -65z" />
    <glyph glyph-name="ring.cap" horiz-adv-x="261" 
d="M157 754c-49 0 -83 40 -83 91c0 68 49 122 113 122c48 0 82 -41 82 -92c0 -68 -48 -121 -112 -121zM162 786c42 0 73 39 73 84c0 34 -22 64 -52 64c-43 0 -76 -38 -76 -83c0 -35 23 -65 55 -65z" />
    <glyph glyph-name="hungarumlaut" unicode="&#x2dd;" horiz-adv-x="353" 
d="M221 518c-7 0 -9 5 -5 12l89 159c3 7 8 11 14 11h23c11 0 14 -8 8 -17l-104 -157c-3 -6 -8 -8 -13 -8h-12zM72 518c-7 0 -9 5 -6 12l89 159c4 7 8 11 15 11h23c11 0 13 -8 7 -17l-103 -157c-4 -6 -9 -8 -13 -8h-12z" />
    <glyph glyph-name="hungarumlaut.cap" horiz-adv-x="353" 
d="M226 766c-7 0 -9 5 -5 12l89 159c3 7 8 11 15 11h22c11 0 14 -8 8 -17l-103 -157c-4 -6 -9 -8 -14 -8h-12zM77 766c-7 0 -9 5 -6 12l89 159c4 7 9 11 15 11h23c11 0 14 -8 8 -17l-104 -157c-3 -6 -9 -8 -13 -8h-12z" />
    <glyph glyph-name="dotaccent" unicode="&#x2d9;" horiz-adv-x="197" 
d="M119 582c-19 0 -32 16 -32 34c0 23 20 42 43 42c18 0 32 -15 32 -33c0 -23 -21 -43 -43 -43z" />
    <glyph glyph-name="dotaccent.cap" horiz-adv-x="197" 
d="M131 810c-19 0 -32 15 -32 33c0 24 20 43 43 43c18 0 32 -15 32 -33c0 -24 -21 -43 -43 -43z" />
    <glyph glyph-name="cedilla" unicode="&#xb8;" horiz-adv-x="223" 
d="M92 0h18h18l-8 -54c41 -5 84 -34 84 -84c0 -60 -41 -110 -104 -110c-36 0 -60 19 -66 34c-3 8 -3 14 3 18l10 8c8 6 10 1 15 -6c6 -8 16 -18 43 -18c37 0 60 32 60 68c0 41 -39 55 -73 60c-9 2 -11 7 -10 13z" />
    <glyph glyph-name="cedilla.cap" horiz-adv-x="223" 
d="M92 0h18h18l-8 -54c41 -5 84 -34 84 -84c0 -60 -41 -110 -104 -110c-36 0 -60 19 -66 34c-3 8 -3 14 3 18l10 8c8 6 10 1 15 -6c6 -8 16 -18 43 -18c37 0 60 32 60 68c0 41 -39 55 -73 60c-9 2 -11 7 -10 13z" />
    <glyph glyph-name="ogonek" unicode="&#x2db;" horiz-adv-x="249" 
d="M141 12l31 -4s-6 -3 -13 -8c-29 -18 -73 -62 -73 -124c0 -37 26 -56 56 -56c26 0 46 10 57 15c9 4 10 -2 10 -14c0 -10 -4 -15 -11 -20c-13 -10 -38 -17 -66 -17c-46 0 -85 24 -85 82c0 60 40 119 94 146z" />
    <glyph glyph-name="ogonek.cap" horiz-adv-x="249" 
d="M141 12l31 -4s-6 -3 -13 -8c-29 -18 -73 -62 -73 -124c0 -37 26 -56 56 -56c26 0 46 10 57 15c9 4 10 -2 10 -14c0 -10 -4 -15 -11 -20c-13 -10 -38 -17 -66 -17c-46 0 -85 24 -85 82c0 60 40 119 94 146z" />
    <glyph glyph-name="commaaccent" horiz-adv-x="262" 
d="M129 -147c0 28 19 45 46 45c23 0 40 -22 40 -68c0 -97 -64 -153 -88 -165c-7 -4 -13 -5 -16 0l-7 10c-3 5 -1 11 6 16c6 4 50 34 65 95c3 15 3 28 2 38c-5 -3 -10 -5 -15 -5c-23 0 -33 16 -33 34z" />
    <glyph glyph-name="commaaccent.alt" horiz-adv-x="262" 
d="M129 -147c0 28 19 45 46 45c23 0 40 -22 40 -68c0 -97 -64 -153 -88 -165c-7 -4 -13 -5 -16 0l-7 10c-3 5 -1 11 6 16c6 4 50 34 65 95c3 15 3 28 2 38c-5 -3 -10 -5 -15 -5c-23 0 -33 16 -33 34z" />
    <glyph glyph-name="commaaccent.cap" horiz-adv-x="262" 
d="M129 -147c0 28 19 45 46 45c23 0 40 -22 40 -68c0 -97 -64 -153 -88 -165c-7 -4 -13 -5 -16 0l-7 10c-3 5 -1 11 6 16c6 4 50 34 65 95c3 15 3 28 2 38c-5 -3 -10 -5 -15 -5c-23 0 -33 16 -33 34z" />
    <glyph glyph-name="ellipsis" unicode="&#x2026;" horiz-adv-x="562" 
d="M381 26c0 25 22 45 45 45c20 0 33 -16 33 -35c0 -24 -20 -46 -45 -46c-19 0 -33 17 -33 36zM205 26c0 25 22 45 45 45c20 0 33 -16 33 -35c0 -24 -20 -46 -44 -46c-20 0 -34 17 -34 36zM32 26c0 25 23 45 46 45c20 0 33 -16 33 -35c0 -24 -20 -46 -45 -46
c-19 0 -34 17 -34 36z" />
    <glyph glyph-name="uni00AD" unicode="&#xad;" horiz-adv-x="314" 
d="M88 231c-7 0 -11 6 -10 13l1 11c1 8 7 13 14 13h200c7 0 12 -5 11 -13l-1 -11c-1 -7 -6 -13 -15 -13h-200z" />
    <glyph glyph-name="exclamdown" unicode="&#xa1;" horiz-adv-x="225" 
d="M118 330c-20 0 -33 15 -33 35c0 25 20 45 44 45c20 0 34 -16 34 -35c0 -26 -22 -45 -45 -45zM72 119c2 6 8 12 14 12h8c7 0 12 -6 11 -12l-47 -406c-1 -11 -9 -13 -16 -13h-26c-7 0 -12 6 -11 13z" />
    <glyph glyph-name="questiondown" unicode="&#xbf;" horiz-adv-x="237" 
d="M127 330c-20 0 -35 15 -35 35c0 25 22 45 46 45c19 0 33 -16 33 -35c0 -26 -21 -45 -44 -45zM26 -5c28 22 42 40 45 61l8 57c1 9 6 14 14 14h17c8 0 13 -4 12 -14l-8 -58c-5 -39 -30 -67 -64 -92c-53 -40 -115 -77 -115 -146c0 -41 29 -86 87 -86c78 0 122 54 132 69
c3 5 8 8 17 2l14 -10c10 -7 5 -13 1 -19c0 0 -51 -83 -169 -83c-81 0 -128 56 -128 120c0 98 89 148 137 185z" />
    <glyph glyph-name="quoteleft" unicode="&#x2018;" horiz-adv-x="185" 
d="M122 472c-23 0 -40 22 -40 68c0 97 64 153 88 165c7 4 13 5 17 0l6 -10c3 -5 2 -11 -6 -16c-6 -4 -49 -34 -64 -95c-3 -15 -4 -28 -2 -38c5 3 9 5 14 5c23 0 34 -16 34 -34c0 -28 -20 -45 -47 -45z" />
    <glyph glyph-name="quoteright" unicode="&#x2019;" horiz-adv-x="184" 
d="M87 477l-7 10c-3 5 -1 11 6 16c6 4 49 34 64 95c4 15 4 28 2 38c-4 -3 -9 -5 -14 -5c-23 0 -34 16 -34 34c0 28 20 45 47 45c23 0 40 -22 40 -68c0 -97 -64 -153 -88 -165c-7 -4 -13 -5 -16 0z" />
    <glyph glyph-name="quotedblleft" unicode="&#x201c;" horiz-adv-x="348" 
d="M285 473c-23 0 -41 22 -41 68c0 97 64 153 89 165c7 4 13 5 16 0l7 -10c3 -5 1 -11 -6 -16c-6 -4 -50 -34 -65 -95c-3 -15 -4 -28 -2 -38c5 3 10 5 15 5c22 0 33 -16 33 -34c0 -28 -19 -45 -46 -45zM123 473c-22 0 -40 22 -40 68c0 97 64 153 88 165c8 4 14 5 17 0l6 -10
c4 -5 2 -11 -6 -16c-5 -4 -49 -34 -64 -95c-3 -15 -4 -28 -2 -38c5 3 10 5 14 5c23 0 34 -16 34 -34c0 -28 -20 -45 -47 -45z" />
    <glyph glyph-name="quotedblright" unicode="&#x201d;" horiz-adv-x="346" 
d="M248 477l-7 10c-3 5 -1 11 6 16c6 4 50 34 65 95c3 15 4 28 2 38c-5 -3 -10 -5 -15 -5c-22 0 -33 16 -33 34c0 28 19 45 46 45c23 0 41 -22 41 -68c0 -97 -64 -153 -89 -165c-7 -4 -13 -5 -16 0zM87 477l-7 10c-3 5 -1 11 6 16c6 4 49 34 64 95c4 15 4 28 2 38
c-4 -3 -9 -5 -14 -5c-23 0 -34 16 -34 34c0 28 20 45 47 45c23 0 40 -22 40 -68c0 -97 -64 -153 -88 -165c-7 -4 -13 -5 -16 0z" />
    <glyph glyph-name="quotesinglbase" unicode="&#x201a;" horiz-adv-x="224" 
d="M39 24c0 28 20 45 47 45c23 0 40 -22 40 -68c0 -97 -64 -153 -88 -165c-7 -4 -13 -5 -17 0l-6 10c-3 5 -2 11 6 16c6 4 49 34 64 95c3 15 4 28 2 38c-5 -3 -9 -5 -14 -5c-23 0 -34 16 -34 34z" />
    <glyph glyph-name="quotedblbase" unicode="&#x201e;" horiz-adv-x="385" 
d="M200 24c0 28 20 45 47 45c23 0 40 -22 40 -68c0 -97 -64 -153 -88 -165c-7 -4 -13 -5 -16 0l-7 10c-3 5 -1 11 6 16c6 4 49 34 64 95c4 15 4 28 2 38c-4 -3 -9 -5 -14 -5c-23 0 -34 16 -34 34zM39 24c0 28 20 45 47 45c23 0 40 -22 40 -68c0 -97 -64 -153 -88 -165
c-7 -4 -13 -5 -17 0l-6 10c-3 5 -2 11 6 16c6 4 49 34 64 95c3 15 4 28 2 38c-5 -3 -9 -5 -14 -5c-23 0 -34 16 -34 34z" />
    <glyph glyph-name="guilsinglleft" unicode="&#x2039;" horiz-adv-x="233" 
d="M107 42l-73 157c-2 5 -1 12 3 17l116 154c6 8 11 9 17 9h16c8 0 10 -8 3 -18l-103 -153l59 -157c4 -10 0 -18 -7 -18h-17c-5 0 -10 1 -14 9z" />
    <glyph glyph-name="guilsinglright" unicode="&#x203a;" horiz-adv-x="232" 
d="M24 33c-8 0 -9 7 -2 18l103 157l-60 153c-4 10 0 18 8 18h16c6 0 10 -1 14 -9l73 -154c3 -5 2 -11 -2 -17l-117 -157c-6 -8 -10 -9 -17 -9h-16z" />
    <glyph glyph-name="guillemotleft" unicode="&#xab;" horiz-adv-x="377" 
d="M251 42l-73 157c-2 5 -1 12 3 17l116 154c6 8 11 9 17 9h16c8 0 10 -8 3 -18l-103 -153l59 -157c4 -10 0 -18 -7 -18h-17c-5 0 -10 1 -14 9zM107 42l-73 157c-2 5 -1 12 3 17l116 154c6 8 11 9 17 9h16c8 0 10 -8 3 -18l-103 -153l59 -157c4 -10 0 -18 -7 -18h-17
c-5 0 -10 1 -14 9z" />
    <glyph glyph-name="guillemotright" unicode="&#xbb;" horiz-adv-x="376" 
d="M168 33c-8 0 -9 7 -2 18l103 157l-60 153c-4 10 0 18 8 18h16c6 0 10 -1 14 -9l73 -154c3 -5 2 -11 -2 -17l-117 -157c-6 -8 -10 -9 -17 -9h-16zM24 33c-8 0 -9 7 -2 18l103 157l-60 153c-4 10 0 18 8 18h16c6 0 10 -1 14 -9l73 -154c3 -5 2 -11 -2 -17l-117 -157
c-6 -8 -10 -9 -17 -9h-16z" />
    <glyph glyph-name="endash" unicode="&#x2013;" horiz-adv-x="603" 
d="M127 233c-7 0 -12 5 -11 12l1 8c1 7 8 13 15 13h343c8 0 12 -6 11 -13l-1 -8c-1 -7 -7 -12 -15 -12h-343z" />
    <glyph glyph-name="emdash" unicode="&#x2014;" horiz-adv-x="799" 
d="M127 233c-7 0 -12 5 -11 12l1 8c1 7 8 13 15 13h539c8 0 12 -6 11 -13l-1 -8c-1 -7 -6 -12 -14 -12h-540z" />
    <glyph glyph-name="bullet" unicode="&#x2022;" horiz-adv-x="318" 
d="M148 154c-34 0 -60 28 -60 62c0 46 39 83 81 83c36 0 62 -29 62 -65c0 -44 -39 -80 -83 -80z" />
    <glyph glyph-name="periodcentered" unicode="&#xb7;" horiz-adv-x="231" 
d="M114 221c-20 0 -35 16 -35 35c0 26 23 45 46 45c20 0 33 -15 33 -35c0 -25 -20 -45 -44 -45z" />
    <glyph glyph-name="uni2219" unicode="&#x2219;" horiz-adv-x="318" 
d="M199 221c-20 0 -35 16 -35 35c0 26 23 45 46 45c20 0 33 -15 33 -35c0 -25 -20 -45 -44 -45z" />
    <glyph glyph-name="dagger" unicode="&#x2020;" horiz-adv-x="520" 
d="M163 -289l83 647h-184c-9 0 -12 6 -11 15l2 14c1 7 8 13 14 13h183l41 287c1 7 7 13 15 13h27c7 0 12 -6 11 -13l-40 -287h184c7 0 11 -6 10 -13l-2 -16c-1 -7 -7 -13 -13 -13h-186l-101 -647c-1 -6 -7 -11 -14 -11h-8c-9 0 -12 5 -11 11z" />
    <glyph glyph-name="daggerdbl" unicode="&#x2021;" horiz-adv-x="520" 
d="M28 14l2 15c1 7 7 13 14 13h160l46 358h-183c-7 0 -11 6 -10 14l2 15c1 7 8 13 14 13h183l35 245c1 7 7 13 15 13h27c7 0 12 -6 11 -13l-35 -245h185c12 0 10 -13 9 -22l-1 -7c-1 -7 -7 -13 -14 -13h-184l-56 -358h163c7 0 11 -6 10 -13l-2 -16c-1 -7 -7 -13 -14 -13
h-164l-45 -289c-1 -9 -10 -11 -18 -11h-4c-9 0 -12 5 -11 11l36 289h-161c-7 0 -12 6 -10 14z" />
    <glyph glyph-name="section" unicode="&#xa7;" horiz-adv-x="495" 
d="M18 -114c6 6 13 8 19 1c6 -9 62 -75 148 -75c75 0 160 53 160 139c0 70 -55 111 -146 147c-86 34 -146 82 -146 168c0 80 63 126 80 143c-8 13 -44 52 -44 112c0 79 62 189 219 189c86 0 147 -51 147 -51c4 -2 10 -10 1 -20l-12 -15c-5 -6 -11 -10 -20 -4
c-5 3 -57 48 -122 48c-119 0 -167 -82 -167 -146c0 -65 49 -106 123 -134c104 -40 174 -84 174 -172c0 -78 -71 -129 -86 -145c10 -13 48 -54 48 -117c0 -107 -102 -184 -216 -184c-100 0 -165 67 -175 79c-4 5 -10 11 0 21zM220 143c33 -13 64 -29 93 -49
c12 13 68 50 68 113c0 68 -55 102 -147 139c-27 11 -57 25 -74 38c-15 -14 -60 -46 -60 -111c0 -67 48 -100 120 -130z" />
    <glyph glyph-name="paragraph" unicode="&#xb6;" horiz-adv-x="621" 
d="M189 -287l80 570h-65c-107 0 -163 100 -148 207c16 115 107 210 207 210h385c7 0 11 -6 10 -13l-2 -12c-1 -8 -7 -13 -14 -13h-91l-133 -949c-1 -7 -7 -13 -14 -13h-15c-5 0 -10 4 -9 13l133 949h-153l-133 -949c-1 -7 -7 -13 -13 -13h-15c-6 0 -11 4 -10 13z" />
    <glyph glyph-name="brokenbar.case" horiz-adv-x="364" 
d="M218 508c-7 0 -12 6 -11 13l48 345c2 8 8 13 15 13h6c6 0 11 -5 9 -13l-48 -345c-1 -7 -8 -13 -15 -13h-4zM159 178c1 7 7 13 14 13h6c7 0 11 -6 10 -13l-49 -346c-1 -7 -7 -12 -14 -12h-5c-7 0 -12 5 -11 12z" />
    <glyph glyph-name="copyright" unicode="&#xa9;" horiz-adv-x="765" 
d="M64 302c0 223 178 408 379 408c156 0 278 -142 278 -313c0 -224 -179 -407 -379 -407c-157 0 -278 140 -278 312zM103 307c0 -153 102 -278 244 -278c173 0 334 164 334 364c0 152 -102 277 -244 277c-172 0 -334 -163 -334 -363zM227 323c0 119 91 215 200 215
c36 0 73 -11 99 -38c5 -5 5 -13 -1 -19l-11 -11c-6 -7 -12 -5 -17 -1c-20 21 -48 29 -75 29c-80 0 -150 -77 -150 -170c0 -70 43 -127 109 -127c27 0 55 10 82 31c8 5 14 6 18 -2l8 -12c3 -6 2 -12 -4 -17c-34 -31 -72 -43 -112 -43c-80 0 -146 74 -146 165z" />
    <glyph glyph-name="registered" unicode="&#xae;" horiz-adv-x="765" 
d="M64 302c0 223 178 408 379 408c156 0 278 -142 278 -313c0 -224 -179 -407 -379 -407c-157 0 -278 140 -278 312zM103 307c0 -153 102 -278 244 -278c173 0 334 164 334 364c0 152 -102 277 -244 277c-172 0 -334 -163 -334 -363zM253 180l48 343c1 7 7 13 14 13h131
c48 0 99 -31 99 -96c0 -84 -57 -120 -100 -129l43 -128c3 -7 -1 -15 -10 -15h-21c-6 0 -10 4 -12 10l-40 130h-94l-18 -128c-1 -8 -5 -13 -14 -13h-16c-7 0 -11 6 -10 13zM316 345h103c43 0 85 33 85 91c0 47 -33 64 -76 64h-90z" />
    <glyph glyph-name="trademark" unicode="&#x2122;" horiz-adv-x="650" 
d="M295 394c-8 0 -10 7 -7 15l102 291c3 7 4 10 11 10h7c4 0 7 -2 8 -10l39 -241h1l111 241c4 8 6 10 10 10h7c7 0 8 -3 9 -10l20 -291c1 -8 -2 -15 -11 -15h-14c-6 0 -9 3 -10 10l-12 217h-1l-104 -224c-3 -6 -5 -8 -9 -8h-9c-4 0 -6 2 -7 8l-41 224h-1l-73 -217
c-2 -7 -6 -10 -11 -10h-15zM159 394c-5 0 -10 5 -9 13l37 260h-77c-7 0 -10 7 -9 15l1 6c1 7 7 12 13 12h188c6 0 10 -6 9 -13l-1 -7c-1 -8 -7 -13 -13 -13h-76l-37 -260c-1 -7 -6 -13 -13 -13h-13z" />
    <glyph glyph-name="currency" unicode="&#xa4;" horiz-adv-x="462" 
d="M81 162l-9 10c-5 6 -1 15 2 18l55 53c-25 46 -15 112 22 157l-40 52c-3 4 -3 12 4 18l11 11c7 6 14 6 17 2l39 -53c48 36 104 34 141 -1l55 53c3 3 12 4 17 -3l7 -9c5 -7 3 -15 -2 -19l-54 -51c25 -46 16 -111 -21 -156l38 -51c4 -6 3 -12 -4 -19l-12 -11
c-7 -6 -13 -5 -16 -1l-39 51c-46 -34 -105 -35 -141 0l-51 -51c-5 -5 -14 -5 -19 0zM170 253c28 -36 78 -37 116 0s49 99 21 136c-28 38 -78 37 -116 0c-39 -37 -50 -99 -21 -136z" />
    <glyph glyph-name="Euro" unicode="&#x20ac;" horiz-adv-x="685" 
d="M46 259c-8 0 -11 6 -10 13v5c1 7 7 13 14 13h42c0 28 0 57 8 87h-38c-7 0 -11 7 -10 14l1 5c1 7 7 13 14 13h41c50 171 197 301 364 301c91 0 156 -33 205 -93c4 -5 4 -13 -1 -18l-18 -15c-6 -6 -14 -6 -20 0c-42 54 -101 81 -173 81c-136 0 -262 -111 -306 -256h284
c9 0 12 -8 11 -15l-1 -4c-1 -7 -6 -13 -14 -13h-289c-5 -24 -9 -45 -9 -87h250c8 0 11 -8 10 -15v-4c-1 -7 -7 -12 -14 -12h-242c16 -130 106 -224 232 -224c89 0 138 34 198 84c7 5 13 6 21 -3l10 -12c5 -6 3 -13 -2 -17c-72 -66 -154 -97 -234 -97
c-143 0 -261 113 -275 269h-49z" />
    <glyph glyph-name="cent" unicode="&#xa2;" horiz-adv-x="408" 
d="M116 5c-55 26 -92 90 -92 165c0 137 100 240 220 240c10 0 19 -1 27 -3l15 40c3 7 7 10 14 9l7 -2c7 -2 10 -8 7 -16l-15 -38c37 -13 60 -40 69 -53c4 -6 1 -12 -5 -18l-11 -10c-10 -9 -14 -3 -19 3c-5 5 -23 27 -51 37l-121 -324c9 -2 19 -3 29 -3c65 0 103 47 117 58
c8 8 13 7 19 2l9 -8c5 -4 7 -11 2 -17c-19 -24 -79 -77 -152 -77c-15 0 -28 2 -41 6l-34 -91c-3 -7 -8 -9 -15 -8l-7 1c-6 1 -9 8 -6 15zM133 46l120 320c-4 1 -9 2 -15 2c-87 0 -169 -83 -169 -192c0 -58 25 -109 64 -130z" />
    <glyph glyph-name="sterling" unicode="&#xa3;" horiz-adv-x="482" 
d="M50 23c38 72 66 153 71 198c4 34 4 58 4 81h-39c-8 0 -11 6 -10 14l1 7c1 6 7 10 14 10h31c-1 31 -8 80 -8 125c0 164 96 252 216 252c79 0 135 -50 146 -73c3 -7 4 -13 -6 -22l-9 -9c-5 -5 -14 -7 -21 2c-4 8 -46 60 -118 60c-84 0 -164 -75 -164 -208
c0 -46 7 -97 8 -127h176c9 0 12 -7 11 -14l-1 -7c-1 -7 -7 -10 -14 -10h-169c1 -24 -2 -54 -6 -81c-9 -59 -25 -117 -57 -180h261c11 0 12 -5 11 -14l-2 -15c-1 -6 -6 -12 -13 -12h-304c-13 0 -10 14 -9 23z" />
    <glyph glyph-name="florin" unicode="&#x192;" horiz-adv-x="305" 
d="M47 -135l69 496h-74c-9 0 -12 7 -11 13l2 13c1 7 7 13 14 13h75l19 137c17 118 78 173 161 173c45 0 84 -25 94 -43c4 -6 3 -12 0 -16l-12 -14c-5 -6 -12 -7 -17 -1c-11 14 -40 34 -71 34c-54 0 -98 -41 -111 -133l-19 -137h128c7 0 12 -5 11 -12l-3 -15
c-1 -7 -5 -12 -14 -12h-128l-70 -496c-16 -118 -77 -175 -160 -175c-45 0 -84 25 -95 43c-4 6 -3 12 1 16l12 14c4 6 11 7 16 1c11 -14 40 -34 71 -34c55 0 99 43 112 135z" />
    <glyph glyph-name="yen" unicode="&#xa5;" horiz-adv-x="566" 
d="M104 139c-7 0 -11 5 -10 12l1 8c1 7 5 11 13 11h132l13 88h-132c-7 0 -11 5 -10 12l1 8c1 7 5 11 13 11h132l7 51l-179 345c-5 8 0 15 10 15h28c5 0 10 -2 12 -6l155 -309l246 309c3 4 8 6 13 6h38c10 0 13 -7 6 -15l-282 -344l-7 -52h132c8 0 11 -6 10 -13l-1 -7
c-1 -7 -7 -11 -14 -11h-131l-13 -88h132c8 0 11 -6 10 -13l-1 -6c-1 -7 -6 -12 -13 -12h-132l-18 -126c-1 -7 -8 -13 -14 -13h-23c-7 0 -11 6 -10 13l18 126h-132z" />
    <glyph glyph-name="ordfeminine" unicode="&#xaa;" horiz-adv-x="302" 
d="M142 403c-43 0 -72 32 -72 82c0 66 48 113 124 113c27 0 54 -8 59 -11c9 63 7 91 -39 91c-42 0 -72 -17 -80 -20c-12 -4 -14 10 -14 17c0 6 5 11 9 13c5 3 38 22 92 22c78 0 74 -59 64 -136l-22 -154c-1 -6 -6 -10 -11 -10h-11c-6 0 -8 3 -8 8v23
c-19 -16 -51 -38 -91 -38zM149 434c37 0 73 25 88 43l11 83c-9 4 -31 11 -60 11c-49 0 -86 -34 -86 -80c0 -34 18 -57 47 -57z" />
    <glyph glyph-name="ordmasculine" unicode="&#xba;" horiz-adv-x="309" 
d="M169 394c-69 0 -101 60 -88 157c14 99 64 159 133 159c70 0 102 -60 88 -159c-13 -97 -63 -157 -133 -157zM174 427c50 0 81 46 92 124c11 79 -7 127 -57 127c-49 0 -81 -48 -92 -127c-11 -78 8 -124 57 -124z" />
    <glyph glyph-name="onesuperior" unicode="&#xb9;" horiz-adv-x="182" 
d="M129 504c-5 0 -7 3 -6 8l34 239l-47 -26c-4 -2 -7 -1 -8 2l-4 13c-1 4 -1 7 4 11l76 49h11c4 0 9 -2 8 -8l-39 -280c-1 -5 -5 -8 -8 -8h-21z" />
    <glyph glyph-name="twosuperior" unicode="&#xb2;" horiz-adv-x="295" 
d="M96 504c-6 0 -7 4 -7 8l1 9l141 130c22 21 37 42 41 66c4 29 -11 60 -54 60c-33 0 -55 -26 -63 -34c-4 -4 -7 -4 -10 0l-12 12c-3 3 -2 6 1 10c0 0 36 45 91 45c58 0 89 -42 82 -90c-4 -32 -23 -62 -52 -88l-107 -97h125c4 0 7 -2 6 -8l-2 -15c0 -4 -3 -8 -8 -8h-173z
" />
    <glyph glyph-name="threesuperior" unicode="&#xb3;" horiz-adv-x="292" 
d="M178 494c-56 0 -80 31 -88 41c-3 3 -3 7 2 11l11 11c4 4 9 4 11 0c7 -7 22 -32 68 -32c41 0 70 24 75 57c4 30 -13 57 -62 57h-41c-5 0 -7 5 -6 10l2 12c0 5 4 8 8 8h41c37 0 64 18 70 55c4 33 -16 54 -51 54c-39 0 -62 -25 -68 -30c-2 -3 -7 -4 -9 -1l-10 11
c-3 4 -2 8 1 11c0 0 36 41 93 41c46 0 88 -31 81 -82c-4 -33 -33 -61 -57 -72c0 0 52 -19 44 -76c-7 -49 -48 -86 -115 -86z" />
    <glyph glyph-name="fraction" unicode="&#x2044;" horiz-adv-x="79" 
d="M-114 10c-7 -10 -13 -10 -17 -10h-17c-8 0 -11 6 -6 14l435 679c4 7 10 7 14 7h18c8 0 11 -6 6 -14z" />
    <glyph glyph-name="uni2215" unicode="&#x2215;" horiz-adv-x="79" 
d="M-114 10c-7 -10 -13 -10 -17 -10h-17c-8 0 -11 6 -6 14l435 679c4 7 10 7 14 7h18c8 0 11 -6 6 -14z" />
    <glyph glyph-name="onehalf" unicode="&#xbd;" horiz-adv-x="623" 
d="M39 14l435 679c4 7 10 7 14 7h18c8 0 11 -6 6 -14l-433 -676c-7 -10 -13 -10 -17 -10h-17c-8 0 -11 6 -6 14zM131 404c-5 0 -7 3 -6 8l34 239l-47 -26c-4 -2 -7 -1 -8 2l-4 13c-1 4 -1 7 4 11l76 49h11c4 0 9 -2 8 -8l-39 -280c-1 -5 -5 -8 -8 -8h-21zM326 8l1 9l141 130
c22 21 37 42 41 66c4 29 -11 60 -54 60c-33 0 -55 -26 -63 -34c-4 -4 -7 -4 -10 0l-12 12c-3 3 -2 6 1 10c0 0 36 45 91 45c58 0 89 -42 82 -90c-4 -32 -23 -62 -52 -88l-107 -97h125c4 0 7 -2 6 -8l-2 -15c0 -4 -3 -8 -8 -8h-173c-6 0 -7 4 -7 8z" />
    <glyph glyph-name="onethird" unicode="&#x2153;" horiz-adv-x="595" 
d="M35 14l435 679c4 7 10 7 14 7h18c8 0 11 -6 6 -14l-433 -676c-7 -10 -13 -10 -17 -10h-17c-8 0 -11 6 -6 14zM127 404c-5 0 -7 3 -6 8l34 239l-47 -26c-4 -2 -7 -1 -8 2l-4 13c-1 4 -1 7 4 11l76 49h11c4 0 9 -2 8 -8l-39 -280c-1 -5 -5 -8 -8 -8h-21zM324 31
c-3 3 -3 7 2 11l11 11c4 4 9 4 11 0c7 -7 22 -32 68 -32c41 0 70 24 75 57c4 30 -13 57 -62 57h-41c-5 0 -7 5 -6 10l2 12c0 5 4 8 8 8h41c37 0 64 18 70 55c4 33 -16 54 -51 54c-39 0 -62 -25 -68 -30c-2 -3 -7 -4 -9 -1l-10 11c-3 4 -2 8 1 11c0 0 36 41 93 41
c46 0 88 -31 81 -82c-4 -33 -33 -61 -57 -72c0 0 52 -19 44 -76c-7 -49 -48 -86 -115 -86c-56 0 -80 31 -88 41z" />
    <glyph glyph-name="onequarter" unicode="&#xbc;" horiz-adv-x="616" 
d="M39 14l435 679c4 7 10 7 14 7h18c8 0 11 -6 6 -14l-433 -676c-7 -10 -13 -10 -17 -10h-17c-8 0 -11 6 -6 14zM131 404c-5 0 -7 3 -6 8l34 239l-47 -26c-4 -2 -7 -1 -8 2l-4 13c-1 4 -1 7 4 11l76 49h11c4 0 9 -2 8 -8l-39 -280c-1 -5 -5 -8 -8 -8h-21zM294 78l1 9
l199 209h13c4 0 9 -4 8 -9l-26 -185h35c4 0 8 -3 7 -8l-2 -16c-1 -5 -5 -8 -9 -8h-35l-9 -61c-1 -5 -6 -9 -10 -9h-19c-4 0 -9 4 -8 9l8 60h-147c-4 0 -7 4 -6 9zM353 103h99l18 126z" />
    <glyph glyph-name="oneeighth" unicode="&#x215b;" horiz-adv-x="595" 
d="M35 14l435 679c4 7 10 7 14 7h18c8 0 11 -6 6 -14l-433 -676c-7 -10 -13 -10 -17 -10h-17c-8 0 -11 6 -6 14zM127 404c-5 0 -7 3 -6 8l34 239l-47 -26c-4 -2 -7 -1 -8 2l-4 13c-1 4 -1 7 4 11l76 49h11c4 0 9 -2 8 -8l-39 -280c-1 -5 -5 -8 -8 -8h-21zM329 76
c8 52 52 72 60 75v2c-21 11 -35 39 -31 71c7 51 49 82 105 82c50 0 88 -31 81 -82c-4 -32 -28 -60 -52 -71v-2c7 -3 47 -23 39 -75c-7 -49 -48 -86 -113 -86c-57 0 -96 37 -89 86zM395 220c-5 -34 11 -52 48 -55c37 3 59 21 64 55c4 33 -14 54 -49 54s-59 -21 -63 -54z
M367 78c-5 -33 15 -57 56 -57c40 0 67 24 72 57c3 27 -8 54 -56 57c-51 -3 -69 -30 -72 -57z" />
    <glyph glyph-name="twothirds" unicode="&#x2154;" horiz-adv-x="595" 
d="M9 404c-6 0 -7 4 -7 8l1 9l141 130c22 21 37 42 41 66c4 29 -11 60 -54 60c-33 0 -55 -26 -63 -34c-4 -4 -7 -4 -10 0l-12 12c-3 3 -2 6 1 10c0 0 36 45 91 45c58 0 89 -42 82 -90c-4 -32 -23 -62 -52 -88l-107 -97h125c4 0 7 -2 6 -8l-2 -15c0 -4 -3 -8 -8 -8h-173z
M35 14l435 679c4 7 10 7 14 7h18c8 0 11 -6 6 -14l-433 -676c-7 -10 -13 -10 -17 -10h-17c-8 0 -11 6 -6 14zM324 31c-3 3 -3 7 2 11l11 11c4 4 9 4 11 0c7 -7 22 -32 68 -32c41 0 70 24 75 57c4 30 -13 57 -62 57h-41c-5 0 -7 5 -6 10l2 12c0 5 4 8 8 8h41
c37 0 64 18 70 55c4 33 -16 54 -51 54c-39 0 -62 -25 -68 -30c-2 -3 -7 -4 -9 -1l-10 11c-3 4 -2 8 1 11c0 0 36 41 93 41c46 0 88 -31 81 -82c-4 -33 -33 -61 -57 -72c0 0 52 -19 44 -76c-7 -49 -48 -86 -115 -86c-56 0 -80 31 -88 41z" />
    <glyph glyph-name="threequarters" unicode="&#xbe;" horiz-adv-x="686" 
d="M158 394c-56 0 -80 31 -88 41c-3 3 -3 7 2 11l11 11c4 4 9 4 11 0c7 -7 22 -32 68 -32c41 0 70 24 75 57c4 30 -13 57 -62 57h-41c-5 0 -7 5 -6 10l2 12c0 5 4 8 8 8h41c37 0 64 18 70 55c4 33 -16 54 -51 54c-39 0 -62 -25 -68 -30c-2 -3 -7 -4 -9 -1l-10 11
c-3 4 -2 8 1 11c0 0 36 41 93 41c46 0 88 -31 81 -82c-4 -33 -33 -61 -57 -72c0 0 52 -19 44 -76c-7 -49 -48 -86 -115 -86zM109 14l435 679c4 7 10 7 14 7h18c8 0 11 -6 6 -14l-433 -676c-7 -10 -13 -10 -17 -10h-17c-8 0 -11 6 -6 14zM364 78l1 9l199 209h13
c4 0 9 -4 8 -9l-26 -185h35c4 0 8 -3 7 -8l-2 -16c-1 -5 -5 -8 -9 -8h-35l-9 -61c-1 -5 -6 -9 -10 -9h-19c-4 0 -9 4 -8 9l8 60h-147c-4 0 -7 4 -6 9zM423 103h99l18 126z" />
    <glyph glyph-name="threeeighths" unicode="&#x215c;" horiz-adv-x="595" 
d="M84 394c-56 0 -80 31 -88 41c-3 3 -3 7 2 11l11 11c4 4 9 4 11 0c7 -7 22 -32 68 -32c41 0 70 24 75 57c4 30 -13 57 -62 57h-41c-5 0 -7 5 -6 10l2 12c0 5 4 8 8 8h41c37 0 64 18 70 55c4 33 -16 54 -51 54c-39 0 -62 -25 -68 -30c-2 -3 -7 -4 -9 -1l-10 11
c-3 4 -2 8 1 11c0 0 36 41 93 41c46 0 88 -31 81 -82c-4 -33 -33 -61 -57 -72c0 0 52 -19 44 -76c-7 -49 -48 -86 -115 -86zM35 14l435 679c4 7 10 7 14 7h18c8 0 11 -6 6 -14l-433 -676c-7 -10 -13 -10 -17 -10h-17c-8 0 -11 6 -6 14zM329 76c8 52 52 72 60 75v2
c-21 11 -35 39 -31 71c7 51 49 82 105 82c50 0 88 -31 81 -82c-4 -32 -28 -60 -52 -71v-2c7 -3 47 -23 39 -75c-7 -49 -48 -86 -113 -86c-57 0 -96 37 -89 86zM395 220c-5 -34 11 -52 48 -55c37 3 59 21 64 55c4 33 -14 54 -49 54s-59 -21 -63 -54zM367 78
c-5 -33 15 -57 56 -57c40 0 67 24 72 57c3 27 -8 54 -56 57c-51 -3 -69 -30 -72 -57z" />
    <glyph glyph-name="fiveeighths" unicode="&#x215d;" horiz-adv-x="595" 
d="M35 14l435 679c4 7 10 7 14 7h18c8 0 11 -6 6 -14l-433 -676c-7 -10 -13 -10 -17 -10h-17c-8 0 -11 6 -6 14zM84 394c-45 0 -74 25 -84 38c-5 7 -3 9 2 15l10 11c3 4 8 4 11 0c2 -3 23 -33 66 -33s74 35 79 71s-14 62 -53 62h-70c-10 0 -13 6 -12 15l17 118c0 5 5 9 9 9
h133c5 0 8 -4 7 -9l-3 -17c-1 -4 -4 -8 -9 -8h-108l-10 -75h50c61 0 95 -34 87 -93c-8 -57 -53 -104 -122 -104zM329 76c8 52 52 72 60 75v2c-21 11 -35 39 -31 71c7 51 49 82 105 82c50 0 88 -31 81 -82c-4 -32 -28 -60 -52 -71v-2c7 -3 47 -23 39 -75
c-7 -49 -48 -86 -113 -86c-57 0 -96 37 -89 86zM395 220c-5 -34 11 -52 48 -55c37 3 59 21 64 55c4 33 -14 54 -49 54s-59 -21 -63 -54zM367 78c-5 -33 15 -57 56 -57c40 0 67 24 72 57c3 27 -8 54 -56 57c-51 -3 -69 -30 -72 -57z" />
    <glyph glyph-name="seveneighths" unicode="&#x215e;" horiz-adv-x="595" 
d="M35 14l435 679c4 7 10 7 14 7h18c8 0 11 -6 6 -14l-433 -676c-7 -10 -13 -10 -17 -10h-17c-8 0 -11 6 -6 14zM52 404c-6 0 -13 1 -11 14l156 248h-141c-5 0 -8 4 -7 9l2 16c1 5 4 9 9 9h177c5 0 8 -4 7 -9l-2 -16l-162 -262c-4 -7 -7 -9 -13 -9h-15zM329 76
c8 52 52 72 60 75v2c-21 11 -35 39 -31 71c7 51 49 82 105 82c50 0 88 -31 81 -82c-4 -32 -28 -60 -52 -71v-2c7 -3 47 -23 39 -75c-7 -49 -48 -86 -113 -86c-57 0 -96 37 -89 86zM395 220c-5 -34 11 -52 48 -55c37 3 59 21 64 55c4 33 -14 54 -49 54s-59 -21 -63 -54z
M367 78c-5 -33 15 -57 56 -57c40 0 67 24 72 57c3 27 -8 54 -56 57c-51 -3 -69 -30 -72 -57z" />
    <glyph glyph-name="perthousand" unicode="&#x2030;" horiz-adv-x="899" 
d="M191 434c-60 0 -106 53 -106 119c0 87 64 157 145 157c58 0 105 -53 105 -119c0 -87 -65 -157 -144 -157zM76 14l435 679c4 7 10 7 14 7h18c8 0 11 -6 6 -14l-433 -676c-7 -10 -13 -10 -17 -10h-17c-8 0 -11 6 -6 14zM196 471c51 0 101 51 101 114c0 48 -31 87 -73 87
c-53 0 -103 -52 -103 -114c0 -48 31 -87 75 -87zM588 109c0 87 64 157 145 157c58 0 105 -53 105 -119c0 -87 -65 -157 -144 -157c-60 0 -106 53 -106 119zM304 109c0 87 64 157 145 157c58 0 105 -53 105 -119c0 -87 -65 -157 -144 -157c-60 0 -106 53 -106 119zM624 114
c0 -48 31 -87 75 -87c51 0 101 51 101 114c0 48 -31 87 -73 87c-53 0 -103 -52 -103 -114zM340 114c0 -48 31 -87 75 -87c51 0 101 51 101 114c0 48 -31 87 -73 87c-53 0 -103 -52 -103 -114z" />
    <glyph glyph-name="minus" unicode="&#x2212;" horiz-adv-x="460" 
d="M65 327c-7 0 -12 6 -11 13l2 16c1 7 8 13 14 13h346c7 0 11 -6 10 -13l-2 -16c-1 -7 -7 -13 -14 -13h-345z" />
    <glyph glyph-name="plusminus" unicode="&#xb1;" horiz-adv-x="571" 
d="M276 243c-7 0 -11 6 -10 13l18 126h-152c-6 0 -12 6 -11 13l3 15c1 7 7 13 13 13h152l24 168c1 7 7 12 14 12h19c6 0 11 -5 10 -12l-24 -168h152c6 0 10 -6 9 -13l-3 -15c-1 -7 -5 -13 -11 -13h-152l-18 -126c-1 -7 -8 -13 -14 -13h-19zM88 74c-6 0 -11 6 -10 13l2 15
c1 7 8 13 14 13h347c6 0 9 -6 8 -13l-2 -15c-1 -7 -6 -13 -12 -13h-347z" />
    <glyph glyph-name="multiply" unicode="&#xd7;" horiz-adv-x="460" 
d="M95 196l-13 13c-5 5 -3 13 3 18l125 122l-89 120c-4 5 -3 15 2 19l11 9c5 5 14 5 18 0l90 -120l125 123c5 5 13 4 18 -1l12 -13c4 -4 3 -13 -2 -18l-126 -123l90 -120c4 -5 2 -14 -3 -18l-12 -9c-5 -4 -12 -6 -16 -1l-91 121l-126 -122c-5 -4 -12 -4 -16 0z" />
    <glyph glyph-name="divide" unicode="&#xf7;" horiz-adv-x="543" 
d="M294 463c-19 0 -34 17 -34 36c0 25 23 45 46 45c20 0 33 -16 33 -35c0 -24 -20 -46 -45 -46zM106 327c-7 0 -12 6 -11 13l2 16c1 7 8 13 14 13h346c7 0 11 -6 10 -13l-2 -16c-1 -7 -7 -13 -14 -13h-345zM216 185c0 25 23 45 46 45c20 0 33 -16 33 -35
c0 -24 -20 -46 -45 -46c-19 0 -34 17 -34 36z" />
    <glyph glyph-name="notequal" unicode="&#x2260;" horiz-adv-x="396" 
d="M117 70c-6 3 -8 10 -4 16l42 72h-75c-9 0 -12 5 -11 14l2 16c1 7 7 13 15 13h96l99 165h-172c-9 0 -12 6 -10 15l2 15c1 7 6 13 14 13h192l43 71c4 7 11 10 17 7l7 -4c5 -3 5 -10 1 -16l-34 -58h55c7 0 12 -6 11 -13l-2 -17c-1 -7 -8 -13 -15 -13h-76l-98 -165h151
c9 0 12 -7 10 -16l-2 -14c-1 -7 -7 -13 -14 -13h-173l-50 -85c-4 -7 -10 -9 -15 -6z" />
    <glyph glyph-name="approxequal" unicode="&#x2248;" horiz-adv-x="437" 
d="M75 332l-10 7c-6 4 -6 14 0 24c8 13 42 82 105 82c36 0 58 -28 67 -38c9 -11 29 -32 49 -32c35 0 56 40 65 57c5 9 14 8 21 4l13 -8c6 -4 3 -13 -1 -22c-7 -15 -47 -77 -104 -77s-71 70 -114 70c-34 0 -58 -38 -67 -55c-5 -9 -15 -19 -24 -12zM66 164l-10 7
c-6 4 -6 14 0 24c8 13 42 82 105 82c36 0 58 -28 67 -38c9 -11 29 -32 49 -32c35 0 56 40 65 57c5 9 14 8 21 4l13 -8c6 -4 3 -13 -1 -22c-7 -15 -47 -77 -104 -77s-71 70 -114 70c-34 0 -58 -38 -67 -55c-5 -9 -15 -19 -24 -12z" />
    <glyph glyph-name="lessequal" unicode="&#x2264;" horiz-adv-x="448" 
d="M55 382c-8 5 -8 10 -7 17v1c1 5 2 10 11 15l376 199c8 4 12 1 11 -10l-3 -24c-1 -4 -2 -11 -9 -15l-332 -169l285 -166c6 -4 5 -11 5 -15l-3 -18c-2 -11 -7 -14 -14 -10zM14 74c-6 0 -11 6 -10 13l2 15c1 7 8 13 14 13h347c6 0 9 -6 8 -13l-2 -15c-1 -7 -6 -13 -12 -13
h-347z" />
    <glyph glyph-name="greaterequal" unicode="&#x2265;" horiz-adv-x="448" 
d="M30 187c-7 -4 -12 -1 -10 10l3 23c0 4 1 11 9 15l331 166l-284 169c-7 4 -6 11 -5 15l3 19c1 11 7 14 13 10l320 -199c7 -5 8 -10 7 -15v-1c-1 -7 -3 -12 -11 -17zM12 74c-6 0 -9 6 -8 13l2 15c1 7 6 13 12 13h347c6 0 11 -6 10 -13l-2 -15c-1 -7 -8 -13 -14 -13h-347z
" />
    <glyph glyph-name="logicalnot" unicode="&#xac;" horiz-adv-x="485" 
d="M61 327c-7 0 -11 6 -10 13l2 16c1 7 7 13 14 13h346c6 0 10 -6 9 -13l-28 -201c-1 -7 -7 -12 -14 -12h-14c-6 0 -11 5 -10 12l24 172h-319z" />
    <glyph glyph-name="Delta" unicode="&#x2206;" horiz-adv-x="677" 
d="M-16 0c-23 0 -18 18 -8 37l361 671c2 4 8 7 12 7h3c4 0 9 -1 11 -7l170 -673c3 -13 6 -35 -21 -35h-528zM30 42h452l-139 589h-2z" />
    <glyph glyph-name="uni0394" unicode="&#x394;" horiz-adv-x="677" 
d="M-16 0c-23 0 -18 18 -8 37l361 671c2 4 8 7 12 7h3c4 0 9 -1 11 -7l170 -673c3 -13 6 -35 -21 -35h-528zM30 42h452l-139 589h-2z" />
    <glyph glyph-name="Omega" unicode="&#x2126;" horiz-adv-x="780" 
d="M3 13l3 15c1 7 6 13 13 13h129c-86 61 -142 174 -123 308c28 200 189 361 374 361c175 0 302 -161 274 -361c-19 -134 -98 -247 -206 -308h124c6 0 12 -6 11 -13l-3 -15c-1 -7 -7 -13 -13 -13h-213c-6 0 -11 6 -10 13l3 15c1 7 6 11 12 13c128 34 229 160 250 308
c24 175 -78 317 -235 317c-158 0 -299 -142 -323 -317c-21 -148 44 -274 162 -308c6 -2 11 -6 10 -13l-3 -15c-1 -7 -6 -13 -12 -13h-213c-7 0 -12 6 -11 13z" />
    <glyph glyph-name="uni03A9" unicode="&#x3a9;" horiz-adv-x="780" 
d="M3 13l3 15c1 7 6 13 13 13h129c-86 61 -142 174 -123 308c28 200 189 361 374 361c175 0 302 -161 274 -361c-19 -134 -98 -247 -206 -308h124c6 0 12 -6 11 -13l-3 -15c-1 -7 -7 -13 -13 -13h-213c-6 0 -11 6 -10 13l3 15c1 7 6 11 12 13c128 34 229 160 250 308
c24 175 -78 317 -235 317c-158 0 -299 -142 -323 -317c-21 -148 44 -274 162 -308c6 -2 11 -6 10 -13l-3 -15c-1 -7 -6 -13 -12 -13h-213c-7 0 -12 6 -11 13z" />
    <glyph glyph-name="mu" unicode="&#xb5;" horiz-adv-x="467" 
d="M83 29l-45 -316c-1 -8 -9 -13 -16 -13h-15c-7 0 -12 6 -11 13l95 674c1 7 8 13 14 13h19c7 0 12 -6 11 -13l-31 -215c-13 -93 18 -140 83 -140c74 0 124 65 127 70l40 285c1 8 6 13 14 13h19c6 0 11 -6 10 -13l-52 -374c-1 -7 -8 -13 -15 -13h-12c-7 0 -10 6 -10 12l2 36
c-10 -14 -60 -58 -132 -58c-43 0 -75 14 -95 39z" />
    <glyph glyph-name="uni03BC" unicode="&#x3bc;" horiz-adv-x="467" 
d="M83 29l-45 -316c-1 -8 -9 -13 -16 -13h-15c-7 0 -12 6 -11 13l95 674c1 7 8 13 14 13h19c7 0 12 -6 11 -13l-31 -215c-13 -93 18 -140 83 -140c74 0 124 65 127 70l40 285c1 8 6 13 14 13h19c6 0 11 -6 10 -13l-52 -374c-1 -7 -8 -13 -15 -13h-12c-7 0 -10 6 -10 12l2 36
c-10 -14 -60 -58 -132 -58c-43 0 -75 14 -95 39z" />
    <glyph glyph-name="pi" unicode="&#x3c0;" horiz-adv-x="603" 
d="M133 13l49 348h-105c-8 0 -11 7 -10 13l2 13c1 7 7 13 14 13h500c7 0 11 -5 10 -12l-2 -15c-1 -7 -6 -12 -14 -12h-105l-49 -348c-1 -8 -8 -13 -15 -13h-19c-6 0 -11 6 -10 13l49 348h-202l-49 -348c-1 -8 -9 -13 -15 -13h-19c-7 0 -11 6 -10 13z" />
    <glyph glyph-name="degree" unicode="&#xb0;" horiz-adv-x="325" 
d="M184 435c-63 0 -106 53 -106 119c0 87 68 157 144 157c61 0 106 -53 106 -120c0 -86 -71 -156 -144 -156zM189 470c50 0 103 53 103 116c0 48 -33 89 -75 89c-52 0 -105 -53 -105 -115c0 -49 33 -90 77 -90z" />
    <glyph glyph-name="afii61289" unicode="&#x2113;" horiz-adv-x="505" 
d="M155 -10c-88 0 -111 75 -99 155c4 29 11 54 19 81c-20 -7 -40 -12 -51 -14c-9 -1 -12 0 -14 8l-1 12c-1 12 5 18 14 19c22 4 46 9 66 16l31 99c69 218 141 344 229 344c54 0 87 -50 76 -128c-25 -176 -164 -286 -306 -341c-9 -27 -18 -60 -23 -94c-8 -59 -1 -117 65 -117
c88 0 146 42 153 46c8 5 13 4 15 -2l4 -13c2 -7 4 -9 -5 -17c-5 -4 -73 -54 -173 -54zM133 281c120 53 231 153 252 301c8 54 -4 88 -42 88c-69 0 -122 -116 -185 -310z" />
    <glyph glyph-name="estimated" unicode="&#x212e;" horiz-adv-x="823" 
d="M105 154c37 -80 120 -126 212 -126c70 0 145 32 211 88c5 5 14 8 18 0l5 -9c4 -8 2 -12 -4 -18c-72 -66 -150 -99 -235 -99c-178 0 -305 156 -277 359c29 203 190 361 378 361c177 0 304 -156 278 -359c-2 -14 -10 -21 -19 -21h-543zM134 366h464l25 177
c-42 81 -116 129 -215 129c-98 0 -186 -47 -249 -127z" />
    <glyph glyph-name="eng" unicode="&#x14b;" horiz-adv-x="460" 
d="M37 13l53 374c1 7 8 13 15 13h10c7 0 11 -4 11 -10l-2 -40c12 14 68 60 141 60c96 0 134 -71 118 -183l-52 -364c-17 -118 -72 -173 -157 -173c-46 0 -82 26 -95 43c-5 6 -3 10 0 14l13 16c4 6 11 6 16 0c14 -13 39 -33 72 -33c54 0 92 40 105 133l54 368
c13 89 -18 136 -83 136c-72 0 -132 -64 -136 -69l-40 -285c-1 -8 -6 -13 -15 -13h-19c-7 0 -10 6 -9 13z" />
    <glyph glyph-name="Eng" unicode="&#x14a;" horiz-adv-x="714" 
d="M67 13l96 684c2 8 8 13 16 13h15l343 -621h2l82 598c1 7 8 13 15 13h20c7 0 12 -6 11 -13l-116 -824c-17 -118 -72 -173 -157 -173c-46 0 -82 26 -95 43c-5 6 -3 10 0 14l13 16c4 6 11 6 16 0c14 -13 39 -33 72 -33c54 0 94 40 107 133l20 147l-330 603h-1l-84 -600
c-2 -13 -15 -13 -25 -13h-9c-7 0 -12 6 -11 13z" />
    <glyph glyph-name="infinity" unicode="&#x221e;" horiz-adv-x="616" 
d="M180 158c-63 0 -115 62 -105 138c11 77 70 139 144 139c46 0 81 -31 97 -73c28 42 68 73 119 73c62 0 115 -62 104 -139c-10 -76 -72 -138 -143 -138c-44 0 -83 31 -99 72c-28 -41 -66 -72 -117 -72zM327 296c-7 -56 23 -100 74 -100c49 0 91 44 98 100
c8 55 -21 100 -70 100c-51 0 -94 -45 -102 -100zM185 196c49 0 94 44 101 100c8 55 -24 100 -73 100c-50 0 -92 -45 -100 -100c-7 -56 22 -100 72 -100z" />
    <glyph glyph-name="partialdiff" unicode="&#x2202;" horiz-adv-x="565" 
d="M54 179c0 152 122 261 231 261c87 0 142 -55 154 -77h1c-5 181 -166 280 -214 300c-9 3 -12 13 -7 21l9 14c2 4 7 9 15 6c69 -31 242 -133 242 -352c0 -170 -89 -362 -259 -362c-99 0 -172 80 -172 189zM98 185c0 -88 57 -155 134 -155c117 0 204 152 202 268
c-1 4 -47 100 -151 100c-90 0 -185 -95 -185 -213z" />
    <glyph glyph-name="integral" unicode="&#x222b;" horiz-adv-x="324" 
d="M93 -135l94 672c17 118 78 173 161 173c45 0 84 -25 94 -43c4 -6 3 -12 0 -16l-12 -14c-5 -6 -12 -7 -17 -1c-11 14 -40 34 -71 34c-54 0 -98 -41 -111 -133l-95 -672c-16 -118 -77 -175 -160 -175c-45 0 -84 25 -95 43c-4 6 -3 12 1 16l12 14c4 6 11 7 16 1
c11 -14 40 -34 71 -34c55 0 99 43 112 135z" />
    <glyph glyph-name="radical" unicode="&#x221a;" horiz-adv-x="657" 
d="M162 -1l-97 388c-1 8 1 13 9 13h26c5 0 9 -4 9 -7l76 -315h2l327 613c2 5 6 9 13 9h120c7 0 11 -6 10 -13l-3 -15c-1 -7 -5 -13 -12 -13h-96l-358 -660c-3 -5 -7 -9 -12 -9h-5c-5 0 -9 6 -9 9z" />
    <glyph glyph-name="summation" unicode="&#x2211;" horiz-adv-x="523" 
d="M21 13l1 9l340 341l-248 314l2 10c1 7 8 13 14 13h361c6 0 11 -6 10 -13l-3 -17c-1 -7 -7 -13 -13 -13h-294l211 -272c4 -5 11 -13 10 -20l-2 -11c-1 -7 -10 -15 -15 -20l-291 -292h294c6 0 11 -6 10 -13l-2 -16c-1 -7 -8 -13 -14 -13h-361c-6 0 -11 6 -10 13z" />
    <glyph glyph-name="product" unicode="&#x220f;" horiz-adv-x="642" 
d="M28 13l95 674c1 7 8 13 14 13h465c7 0 11 -6 10 -13l-95 -674c-1 -7 -7 -13 -14 -13h-24c-6 0 -10 6 -9 13l91 645h-395l-91 -645c-1 -7 -6 -13 -13 -13h-24c-6 0 -11 6 -10 13z" />
    <glyph glyph-name="lozenge" unicode="&#x25ca;" horiz-adv-x="677" 
d="M276 7l-150 296c-16 30 -17 35 -15 54c3 20 8 25 30 54l234 297c2 4 8 7 12 7h3c4 0 9 -1 10 -7l149 -295c13 -26 18 -33 14 -56c-3 -21 -10 -29 -29 -56l-233 -294c-3 -6 -8 -7 -12 -7h-3c-4 0 -8 3 -10 7zM292 64h2l231 293l-142 294h-2l-231 -294z" />
    <glyph glyph-name="uniF8FF" unicode="&#xf8ff;" horiz-adv-x="599" 
d="M50 30v640c0 21 9 30 30 30h439c21 0 30 -9 30 -30v-640c0 -21 -9 -30 -30 -30h-439c-21 0 -30 9 -30 30zM262 314c0 -7 7 -12 14 -12h36c9 0 15 4 15 13v26c0 48 105 63 105 150c0 65 -54 111 -125 111c-87 0 -130 -61 -130 -61c-4 -6 -6 -13 0 -18l22 -22
c6 -4 11 -4 17 0c13 12 36 41 84 41c40 0 61 -25 61 -52c0 -63 -99 -72 -99 -147v-29zM245 156c0 -26 22 -48 48 -48c27 0 49 22 49 48s-22 48 -49 48c-26 0 -48 -22 -48 -48z" />
    <glyph glyph-name="zero.tf" horiz-adv-x="604" 
d="M264 -10c-117 0 -179 103 -179 263c0 262 107 439 277 439c117 0 179 -103 179 -263c0 -262 -106 -439 -277 -439zM270 31c141 0 226 159 226 395c0 137 -48 224 -140 224c-141 0 -227 -160 -227 -395c0 -138 48 -224 141 -224z" />
    <glyph glyph-name="one.tf" horiz-adv-x="604" 
d="M111 0c-7 0 -11 6 -10 13l1 11c1 8 7 13 14 13h144l84 568h-1l-133 -110c-5 -4 -10 -4 -14 1l-13 17c-4 5 -2 9 4 15l180 153h20c5 0 9 -5 8 -12l-89 -632h130c7 0 12 -5 11 -13l-1 -11c-1 -7 -6 -13 -15 -13h-320z" />
    <glyph glyph-name="two.tf" horiz-adv-x="604" 
d="M73 12l2 18l273 266c82 79 128 144 128 220c0 66 -35 131 -128 131c-74 0 -129 -66 -142 -81c-6 -7 -13 -9 -19 -4l-15 12c-5 4 -5 11 1 18c0 0 71 99 179 99c117 0 172 -79 172 -168c0 -104 -63 -173 -146 -255l-231 -227h293c7 0 12 -6 11 -13l-2 -15
c-1 -7 -8 -13 -14 -13h-351c-7 0 -11 6 -11 12z" />
    <glyph glyph-name="three.tf" horiz-adv-x="604" 
d="M81 84c-3 6 -1 11 3 14l20 12c5 4 12 2 16 -5c12 -20 43 -75 136 -75c97 0 177 68 177 168c0 84 -73 128 -136 128h-85c-11 0 -12 5 -11 11l3 20c1 8 5 12 15 12h80c76 0 164 60 164 159c0 71 -47 120 -113 120c-82 0 -138 -62 -151 -75c-5 -5 -11 -5 -16 0l-13 12
c-5 4 -4 12 1 17c0 0 76 89 183 89c93 0 157 -63 157 -153c0 -94 -61 -162 -125 -190v-2c47 -18 94 -74 94 -144c0 -117 -94 -212 -230 -212c-110 0 -154 68 -169 94z" />
    <glyph glyph-name="four.tf" horiz-adv-x="604" 
d="M67 156c-11 0 -15 4 -14 12l2 20l438 504h16c5 0 9 -2 8 -12l-67 -485h69c7 0 12 -5 11 -12l-2 -13c-1 -7 -8 -13 -14 -13h-70l-20 -144c-1 -7 -5 -13 -14 -13h-20c-11 0 -11 7 -10 14l19 142h-332zM113 196h294l59 407z" />
    <glyph glyph-name="five.tf" horiz-adv-x="604" 
d="M90 84c-3 6 -1 11 3 14l20 12c5 4 12 2 16 -5c12 -20 43 -75 136 -75c109 0 195 105 195 219c0 81 -46 137 -143 137h-147c-12 0 -18 11 -16 21l36 261c1 7 7 13 15 13h281c6 0 11 -6 10 -13l-2 -16c-1 -7 -7 -13 -14 -13h-252l-30 -211h125c121 0 184 -64 184 -178
c0 -141 -111 -260 -247 -260c-110 0 -155 68 -170 94z" />
    <glyph glyph-name="six.tf" horiz-adv-x="604" 
d="M107 217c0 314 266 450 360 487c7 2 11 -1 14 -11l4 -11c3 -8 -2 -15 -13 -19c-54 -20 -240 -114 -297 -295h1c18 22 86 72 173 72c92 0 169 -75 169 -188c0 -144 -116 -262 -236 -262s-175 102 -175 227zM150 222c0 -99 42 -192 138 -192c94 0 185 99 185 215
c0 89 -57 153 -132 153c-104 0 -178 -96 -181 -100c0 0 -10 -29 -10 -76z" />
    <glyph glyph-name="seven.tf" horiz-adv-x="604" 
d="M126 16l343 623h-323c-9 0 -14 3 -12 15l2 15c1 9 8 12 15 12h364c9 0 12 -8 12 -14v-6l-353 -649c-4 -7 -7 -12 -16 -12h-27c-10 0 -8 10 -5 16z" />
    <glyph glyph-name="eight.tf" horiz-adv-x="604" 
d="M90 151c0 106 81 175 156 196c0 1 0 1 1 2c-51 18 -94 71 -94 139c0 106 81 201 211 201c107 0 164 -71 164 -157c0 -95 -71 -161 -139 -183v-2c57 -17 109 -70 109 -147c0 -129 -97 -210 -233 -210c-107 0 -175 61 -175 161zM321 373c99 8 162 65 162 154
c0 66 -44 124 -126 124c-97 0 -161 -78 -161 -156c0 -72 46 -116 125 -122zM133 158c0 -88 61 -130 138 -130c98 0 181 57 181 164c0 66 -51 124 -138 132c-108 -10 -181 -82 -181 -166z" />
    <glyph glyph-name="nine.tf" horiz-adv-x="604" 
d="M140 4c-4 11 2 15 13 19c54 20 240 114 297 295h-1c-18 -22 -86 -72 -173 -72c-92 0 -169 75 -169 188c0 144 116 262 236 262s175 -102 175 -227c0 -314 -266 -450 -360 -487c-7 -2 -11 1 -13 7zM284 288c104 0 178 96 181 100c0 0 10 29 10 76c0 99 -42 192 -138 192
c-94 0 -185 -99 -185 -215c0 -89 57 -153 132 -153z" />
    <glyph glyph-name="zerosuperior" unicode="&#x2070;" horiz-adv-x="345" 
d="M219 494c-69 0 -101 60 -88 157c14 99 64 159 133 159c70 0 102 -60 88 -159c-13 -97 -63 -157 -133 -157zM224 527c50 0 81 46 92 124c11 79 -7 127 -57 127c-49 0 -81 -48 -92 -127c-11 -78 8 -124 57 -124z" />
    <glyph glyph-name="foursuperior" unicode="&#x2074;" horiz-adv-x="342" 
d="M275 504c-4 0 -9 4 -8 9l8 60h-147c-4 0 -7 4 -6 9l1 9l199 209h13c4 0 9 -4 8 -9l-26 -185h35c4 0 8 -3 7 -8l-2 -16c-1 -5 -5 -8 -9 -8h-35l-9 -61c-1 -5 -6 -9 -10 -9h-19zM181 607h99l18 126z" />
    <glyph glyph-name="fivesuperior" unicode="&#x2075;" horiz-adv-x="348" 
d="M203 494c-45 0 -74 25 -84 38c-5 7 -3 9 2 15l10 11c3 4 8 4 11 0c2 -3 23 -33 66 -33s74 35 79 71s-14 62 -53 62h-70c-10 0 -13 6 -12 15l17 118c0 5 5 9 9 9h133c5 0 8 -4 7 -9l-3 -17c-1 -4 -4 -8 -9 -8h-108l-10 -75h50c61 0 95 -34 87 -93
c-8 -57 -53 -104 -122 -104z" />
    <glyph glyph-name="sixsuperior" unicode="&#x2076;" horiz-adv-x="324" 
d="M210 494c-65 0 -93 62 -83 134c17 121 131 174 170 187c5 2 9 -1 10 -6l3 -11c2 -6 1 -14 -8 -17c-46 -14 -103 -51 -133 -115c5 3 28 30 76 30c44 0 86 -37 77 -98c-8 -57 -53 -104 -112 -104zM215 525c36 0 64 29 70 73c6 40 -16 68 -52 68c-34 0 -61 -27 -72 -43
c-7 -47 8 -98 54 -98z" />
    <glyph glyph-name="sevensuperior" unicode="&#x2077;" horiz-adv-x="324" 
d="M151 504c-6 0 -13 1 -11 14l156 248h-141c-5 0 -8 4 -7 9l2 16c1 5 4 9 9 9h177c5 0 8 -4 7 -9l-2 -16l-162 -262c-4 -7 -7 -9 -13 -9h-15z" />
    <glyph glyph-name="eightsuperior" unicode="&#x2078;" horiz-adv-x="314" 
d="M207 494c-57 0 -96 37 -89 86c8 52 52 72 60 75v2c-21 11 -35 39 -31 71c7 51 49 82 105 82c50 0 88 -31 81 -82c-4 -32 -28 -60 -52 -71v-2c7 -3 47 -23 39 -75c-7 -49 -48 -86 -113 -86zM232 669c37 3 59 21 64 55c4 33 -14 54 -49 54s-59 -21 -63 -54
c-5 -34 11 -52 48 -55zM212 525c40 0 67 24 72 57c3 27 -8 54 -56 57c-51 -3 -69 -30 -72 -57c-5 -33 15 -57 56 -57z" />
    <glyph glyph-name="ninesuperior" unicode="&#x2079;" horiz-adv-x="325" 
d="M165 487c-5 -2 -9 1 -10 6l-3 11c-2 6 -1 14 8 17c46 14 103 51 133 115c-5 -3 -28 -30 -76 -30c-44 0 -86 38 -77 98c9 57 53 104 112 104c65 0 93 -62 83 -134c-17 -121 -131 -174 -170 -187zM229 636c34 0 61 27 72 43c7 47 -8 98 -54 98c-36 0 -64 -29 -70 -73
c-6 -40 16 -68 52 -68z" />
    <glyph glyph-name="zeroinferior" unicode="&#x2080;" horiz-adv-x="345" 
d="M31 -3c14 99 64 159 133 159c70 0 102 -60 88 -159c-13 -97 -63 -157 -133 -157c-69 0 -101 60 -88 157zM67 -3c-11 -78 8 -124 57 -124c50 0 81 46 92 124c11 79 -7 127 -57 127c-49 0 -81 -48 -92 -127z" />
    <glyph glyph-name="oneinferior" unicode="&#x2081;" horiz-adv-x="199" 
d="M38 73l-4 13c-1 4 -1 7 4 11l76 49h11c4 0 9 -2 8 -8l-39 -280c-1 -5 -5 -8 -8 -8h-21c-5 0 -7 3 -6 8l34 239l-47 -26c-4 -2 -7 -1 -8 2z" />
    <glyph glyph-name="twoinferior" unicode="&#x2082;" horiz-adv-x="311" 
d="M66 89l-12 12c-3 3 -2 6 1 10c0 0 36 45 91 45c58 0 89 -42 82 -90c-4 -32 -23 -62 -52 -88l-107 -97h125c4 0 7 -2 6 -8l-2 -15c0 -4 -3 -8 -8 -8h-173c-6 0 -7 4 -7 8l1 9l141 130c22 21 37 42 41 66c4 29 -11 60 -54 60c-33 0 -55 -26 -63 -34c-4 -4 -7 -4 -10 0z" />
    <glyph glyph-name="threeinferior" unicode="&#x2083;" horiz-adv-x="322" 
d="M75 -5l2 12c0 5 4 8 8 8h41c37 0 64 18 70 55c4 33 -16 54 -51 54c-39 0 -62 -25 -68 -30c-2 -3 -7 -4 -9 -1l-10 11c-3 4 -2 8 1 11c0 0 36 41 93 41c46 0 88 -31 81 -82c-4 -33 -33 -61 -57 -72c0 0 52 -19 44 -76c-7 -49 -48 -86 -115 -86c-56 0 -80 31 -88 41
c-3 3 -3 7 2 11l11 11c4 4 9 4 11 0c7 -7 22 -32 68 -32c41 0 70 24 75 57c4 30 -13 57 -62 57h-41c-5 0 -7 5 -6 10z" />
    <glyph glyph-name="fourinferior" unicode="&#x2084;" horiz-adv-x="342" 
d="M23 -63l199 209h13c4 0 9 -4 8 -9l-26 -185h35c4 0 8 -3 7 -8l-2 -16c-1 -5 -5 -8 -9 -8h-35l-9 -61c-1 -5 -6 -9 -10 -9h-19c-4 0 -9 4 -8 9l8 60h-147c-4 0 -7 4 -6 9zM81 -47h99l18 126z" />
    <glyph glyph-name="fiveinferior" unicode="&#x2085;" horiz-adv-x="348" 
d="M52 19l17 118c0 5 5 9 9 9h133c5 0 8 -4 7 -9l-3 -17c-1 -4 -4 -8 -9 -8h-108l-10 -75h50c61 0 95 -34 87 -93c-8 -57 -53 -104 -122 -104c-45 0 -74 25 -84 38c-5 7 -3 9 2 15l10 11c3 4 8 4 11 0c2 -3 23 -33 66 -33s74 35 79 71s-14 62 -53 62h-70c-10 0 -13 6 -12 15
z" />
    <glyph glyph-name="sixinferior" unicode="&#x2086;" horiz-adv-x="324" 
d="M27 -26c17 121 131 174 170 187c5 2 9 -1 10 -6l3 -11c2 -6 1 -14 -8 -17c-46 -14 -103 -51 -133 -115c5 3 28 30 76 30c44 0 86 -37 77 -98c-8 -57 -53 -104 -112 -104c-65 0 -93 62 -83 134zM61 -31c-7 -47 8 -98 54 -98c36 0 64 29 70 73c6 40 -16 68 -52 68
c-34 0 -61 -27 -72 -43z" />
    <glyph glyph-name="seveninferior" unicode="&#x2087;" horiz-adv-x="324" 
d="M55 112c-5 0 -8 4 -7 9l2 16c1 5 4 9 9 9h177c5 0 8 -4 7 -9l-2 -16l-162 -262c-4 -7 -7 -9 -13 -9h-15c-6 0 -13 1 -11 14l156 248h-141z" />
    <glyph glyph-name="eightinferior" unicode="&#x2088;" horiz-adv-x="314" 
d="M18 -74c8 52 52 72 60 75v2c-21 11 -35 39 -31 71c7 51 49 82 105 82c50 0 88 -31 81 -82c-4 -32 -28 -60 -52 -71v-2c7 -3 47 -23 39 -75c-7 -49 -48 -86 -113 -86c-57 0 -96 37 -89 86zM84 70c-5 -34 11 -52 48 -55c37 3 59 21 64 55c4 33 -14 54 -49 54
s-59 -21 -63 -54zM56 -72c-5 -33 15 -57 56 -57c40 0 67 24 72 57c3 27 -8 54 -56 57c-51 -3 -69 -30 -72 -57z" />
    <glyph glyph-name="nineinferior" unicode="&#x2089;" horiz-adv-x="325" 
d="M40 50c9 57 53 104 112 104c65 0 93 -62 83 -134c-17 -121 -131 -174 -170 -187c-5 -2 -9 1 -10 6l-3 11c-2 6 -1 14 8 17c46 14 103 51 133 115c-5 -3 -28 -30 -76 -30c-44 0 -86 38 -77 98zM77 50c-6 -40 16 -68 52 -68c34 0 61 27 72 43c7 47 -8 98 -54 98
c-36 0 -64 -29 -70 -73z" />
    <glyph glyph-name="zero.denom" horiz-adv-x="345" 
d="M149 -10c-69 0 -101 60 -88 157c14 99 64 159 133 159c70 0 102 -60 88 -159c-13 -97 -63 -157 -133 -157zM154 23c50 0 81 46 92 124c11 79 -7 127 -57 127c-49 0 -81 -48 -92 -127c-11 -78 8 -124 57 -124z" />
    <glyph glyph-name="one.denom" horiz-adv-x="199" 
d="M89 8l34 239l-47 -26c-4 -2 -7 -1 -8 2l-4 13c-1 4 -1 7 4 11l76 49h11c4 0 9 -2 8 -8l-39 -280c-1 -5 -5 -8 -8 -8h-21c-5 0 -7 3 -6 8z" />
    <glyph glyph-name="two.denom" horiz-adv-x="311" 
d="M40 8l1 9l141 130c22 21 37 42 41 66c4 29 -11 60 -54 60c-33 0 -55 -26 -63 -34c-4 -4 -7 -4 -10 0l-12 12c-3 3 -2 6 1 10c0 0 36 45 91 45c58 0 89 -42 82 -90c-4 -32 -23 -62 -52 -88l-107 -97h125c4 0 7 -2 6 -8l-2 -15c0 -4 -3 -8 -8 -8h-173c-6 0 -7 4 -7 8z" />
    <glyph glyph-name="three.denom" horiz-adv-x="322" 
d="M47 31c-3 3 -3 7 2 11l11 11c4 4 9 4 11 0c7 -7 22 -32 68 -32c41 0 70 24 75 57c4 30 -13 57 -62 57h-41c-5 0 -7 5 -6 10l2 12c0 5 4 8 8 8h41c37 0 64 18 70 55c4 33 -16 54 -51 54c-39 0 -62 -25 -68 -30c-2 -3 -7 -4 -9 -1l-10 11c-3 4 -2 8 1 11c0 0 36 41 93 41
c46 0 88 -31 81 -82c-4 -33 -33 -61 -57 -72c0 0 52 -19 44 -76c-7 -49 -48 -86 -115 -86c-56 0 -80 31 -88 41z" />
    <glyph glyph-name="four.denom" horiz-adv-x="342" 
d="M58 69c-4 0 -7 4 -6 9l1 9l199 209h13c4 0 9 -4 8 -9l-26 -185h35c4 0 8 -3 7 -8l-2 -16c-1 -5 -5 -8 -9 -8h-35l-9 -61c-1 -5 -6 -9 -10 -9h-19c-4 0 -9 4 -8 9l8 60h-147zM111 103h99l18 126z" />
    <glyph glyph-name="five.denom" horiz-adv-x="348" 
d="M49 28c-5 7 -3 9 2 15l10 11c3 4 8 4 11 0c2 -3 23 -33 66 -33s74 35 79 71s-14 62 -53 62h-70c-10 0 -13 6 -12 15l17 118c0 5 5 9 9 9h133c5 0 8 -4 7 -9l-3 -17c-1 -4 -4 -8 -9 -8h-108l-10 -75h50c61 0 95 -34 87 -93c-8 -57 -53 -104 -122 -104c-45 0 -74 25 -84 38
z" />
    <glyph glyph-name="six.denom" horiz-adv-x="324" 
d="M57 124c17 121 131 174 170 187c5 2 9 -1 10 -6l3 -11c2 -6 1 -14 -8 -17c-46 -14 -103 -51 -133 -115c5 3 28 30 76 30c44 0 86 -37 77 -98c-8 -57 -53 -104 -112 -104c-65 0 -93 62 -83 134zM145 21c36 0 64 29 70 73c6 40 -16 68 -52 68c-34 0 -61 -27 -72 -43
c-7 -47 8 -98 54 -98z" />
    <glyph glyph-name="seven.denom" horiz-adv-x="324" 
d="M70 14l156 248h-141c-5 0 -8 4 -7 9l2 16c1 5 4 9 9 9h177c5 0 8 -4 7 -9l-2 -16l-162 -262c-4 -7 -7 -9 -13 -9h-15c-6 0 -13 1 -11 14z" />
    <glyph glyph-name="eight.denom" horiz-adv-x="314" 
d="M48 76c8 52 52 72 60 75v2c-21 11 -35 39 -31 71c7 51 49 82 105 82c50 0 88 -31 81 -82c-4 -32 -28 -60 -52 -71v-2c7 -3 47 -23 39 -75c-7 -49 -48 -86 -113 -86c-57 0 -96 37 -89 86zM162 165c37 3 59 21 64 55c4 33 -14 54 -49 54s-59 -21 -63 -54
c-5 -34 11 -52 48 -55zM86 78c-5 -33 15 -57 56 -57c40 0 67 24 72 57c3 27 -8 54 -56 57c-51 -3 -69 -30 -72 -57z" />
    <glyph glyph-name="nine.denom" horiz-adv-x="325" 
d="M82 0c-2 6 -1 14 8 17c46 14 103 51 133 115c-5 -3 -28 -30 -76 -30c-44 0 -86 38 -77 98c9 57 53 104 112 104c65 0 93 -62 83 -134c-17 -121 -131 -174 -170 -187c-5 -2 -9 1 -10 6zM159 132c34 0 61 27 72 43c7 47 -8 98 -54 98c-36 0 -64 -29 -70 -73
c-6 -40 16 -68 52 -68z" />
    <glyph glyph-name="zero.num" horiz-adv-x="345" 
d="M199 394c-69 0 -101 60 -88 157c14 99 64 159 133 159c70 0 102 -60 88 -159c-13 -97 -63 -157 -133 -157zM204 427c50 0 81 46 92 124c11 79 -7 127 -57 127c-49 0 -81 -48 -92 -127c-11 -78 8 -124 57 -124z" />
    <glyph glyph-name="one.num" horiz-adv-x="199" 
d="M145 404c-5 0 -7 3 -6 8l34 239l-47 -26c-4 -2 -7 -1 -8 2l-4 13c-1 4 -1 7 4 11l76 49h11c4 0 9 -2 8 -8l-39 -280c-1 -5 -5 -8 -8 -8h-21z" />
    <glyph glyph-name="two.num" horiz-adv-x="311" 
d="M97 404c-6 0 -7 4 -7 8l1 9l141 130c22 21 37 42 41 66c4 29 -11 60 -54 60c-33 0 -55 -26 -63 -34c-4 -4 -7 -4 -10 0l-12 12c-3 3 -2 6 1 10c0 0 36 45 91 45c58 0 89 -42 82 -90c-4 -32 -23 -62 -52 -88l-107 -97h125c4 0 7 -2 6 -8l-2 -15c0 -4 -3 -8 -8 -8h-173z
" />
    <glyph glyph-name="three.num" horiz-adv-x="322" 
d="M185 394c-56 0 -80 31 -88 41c-3 3 -3 7 2 11l11 11c4 4 9 4 11 0c7 -7 22 -32 68 -32c41 0 70 24 75 57c4 30 -13 57 -62 57h-41c-5 0 -7 5 -6 10l2 12c0 5 4 8 8 8h41c37 0 64 18 70 55c4 33 -16 54 -51 54c-39 0 -62 -25 -68 -30c-2 -3 -7 -4 -9 -1l-10 11
c-3 4 -2 8 1 11c0 0 36 41 93 41c46 0 88 -31 81 -82c-4 -33 -33 -61 -57 -72c0 0 52 -19 44 -76c-7 -49 -48 -86 -115 -86z" />
    <glyph glyph-name="four.num" horiz-adv-x="342" 
d="M255 404c-4 0 -9 4 -8 9l8 60h-147c-4 0 -7 4 -6 9l1 9l199 209h13c4 0 9 -4 8 -9l-26 -185h35c4 0 8 -3 7 -8l-2 -16c-1 -5 -5 -8 -9 -8h-35l-9 -61c-1 -5 -6 -9 -10 -9h-19zM161 507h99l18 126z" />
    <glyph glyph-name="five.num" horiz-adv-x="348" 
d="M183 394c-45 0 -74 25 -84 38c-5 7 -3 9 2 15l10 11c3 4 8 4 11 0c2 -3 23 -33 66 -33s74 35 79 71s-14 62 -53 62h-70c-10 0 -13 6 -12 15l17 118c0 5 5 9 9 9h133c5 0 8 -4 7 -9l-3 -17c-1 -4 -4 -8 -9 -8h-108l-10 -75h50c61 0 95 -34 87 -93
c-8 -57 -53 -104 -122 -104z" />
    <glyph glyph-name="six.num" horiz-adv-x="324" 
d="M190 394c-65 0 -93 62 -83 134c17 121 131 174 170 187c5 2 9 -1 10 -6l3 -11c2 -6 1 -14 -8 -17c-46 -14 -103 -51 -133 -115c5 3 28 30 76 30c44 0 86 -37 77 -98c-8 -57 -53 -104 -112 -104zM195 425c36 0 64 29 70 73c6 40 -16 68 -52 68c-34 0 -61 -27 -72 -43
c-7 -47 8 -98 54 -98z" />
    <glyph glyph-name="seven.num" horiz-adv-x="324" 
d="M131 404c-6 0 -13 1 -11 14l156 248h-141c-5 0 -8 4 -7 9l2 16c1 5 4 9 9 9h177c5 0 8 -4 7 -9l-2 -16l-162 -262c-4 -7 -7 -9 -13 -9h-15z" />
    <glyph glyph-name="eight.num" horiz-adv-x="314" 
d="M187 394c-57 0 -96 37 -89 86c8 52 52 72 60 75v2c-21 11 -35 39 -31 71c7 51 49 82 105 82c50 0 88 -31 81 -82c-4 -32 -28 -60 -52 -71v-2c7 -3 47 -23 39 -75c-7 -49 -48 -86 -113 -86zM212 569c37 3 59 21 64 55c4 33 -14 54 -49 54s-59 -21 -63 -54
c-5 -34 11 -52 48 -55zM192 425c40 0 67 24 72 57c3 27 -8 54 -56 57c-51 -3 -69 -30 -72 -57c-5 -33 15 -57 56 -57z" />
    <glyph glyph-name="nine.num" horiz-adv-x="325" 
d="M145 387c-5 -2 -9 1 -10 6l-3 11c-2 6 -1 14 8 17c46 14 103 51 133 115c-5 -3 -28 -30 -76 -30c-44 0 -86 38 -77 98c9 57 53 104 112 104c65 0 93 -62 83 -134c-17 -121 -131 -174 -170 -187zM209 536c34 0 61 27 72 43c7 47 -8 98 -54 98c-36 0 -64 -29 -70 -73
c-6 -40 16 -68 52 -68z" />
    <glyph glyph-name="parenleft.case" horiz-adv-x="328" 
d="M86 237c0 370 153 496 280 503c7 0 11 -3 11 -9l-1 -15c0 -7 -5 -12 -9 -12c-143 -21 -237 -170 -237 -466c0 -158 52 -236 136 -249c5 -1 8 -5 6 -12l-4 -17c-1 -6 -6 -8 -12 -8c-87 6 -170 79 -170 285z" />
    <glyph glyph-name="parenright.case" horiz-adv-x="327" 
d="M13 -10c145 21 236 168 236 463c0 157 -51 238 -135 251c-6 0 -9 6 -7 13l3 14c1 6 6 9 14 9c86 -5 168 -81 168 -287c0 -370 -150 -496 -278 -501c-9 0 -12 2 -12 8l1 18c0 7 5 11 10 12z" />
    <glyph glyph-name="hyphen.case" horiz-adv-x="452" 
d="M137 321c-7 0 -11 6 -10 13l1 11c1 8 7 13 14 13h200c7 0 12 -5 11 -13l-1 -11c-1 -7 -6 -13 -15 -13h-200z" />
    <glyph glyph-name="bracketleft.case" horiz-adv-x="307" 
d="M68 -139h144c7 0 12 -6 11 -13l-2 -15c-1 -7 -7 -13 -15 -13h-174c-7 0 -12 6 -11 13l137 974c1 7 8 13 15 13h174c7 0 12 -6 11 -13l-2 -15c-1 -7 -7 -13 -15 -13h-144z" />
    <glyph glyph-name="bracketright.case" horiz-adv-x="307" 
d="M-16 -139h143l129 918h-143c-7 0 -12 6 -11 13l2 15c1 7 8 13 15 13h173c7 0 12 -6 11 -13l-137 -974c-1 -7 -8 -13 -15 -13h-173c-7 0 -12 6 -11 13l2 15c1 7 8 13 15 13z" />
    <glyph glyph-name="braceleft.case" horiz-adv-x="340" 
d="M72 52l23 164c9 64 -37 81 -53 89c-6 3 -8 8 -7 12l2 11c1 5 4 8 11 10c21 6 69 31 77 90l22 160c25 184 141 242 234 242c7 0 13 -3 12 -10l-3 -17c-1 -5 -4 -8 -10 -9c-99 -8 -171 -70 -190 -207l-22 -159c-10 -70 -65 -107 -73 -110v-1c5 -4 53 -33 43 -101l-23 -163
c-19 -137 35 -199 132 -207c5 -1 9 -5 8 -12l-2 -13c-1 -7 -7 -11 -15 -11c-94 0 -192 58 -166 242z" />
    <glyph glyph-name="bar.case" horiz-adv-x="190" 
d="M20 -168l145 1034c2 8 8 13 15 13h6c6 0 11 -5 9 -13l-145 -1034c-1 -7 -7 -12 -14 -12h-5c-7 0 -12 5 -11 12z" />
    <glyph glyph-name="braceright.case" horiz-adv-x="344" 
d="M170 53l23 166c9 68 63 99 70 103v1c-7 3 -50 38 -40 108l25 156c20 137 -35 198 -132 206c-5 1 -7 4 -7 9l3 18c1 7 8 10 15 10c93 0 192 -58 164 -242l-24 -160c-8 -59 32 -84 52 -90c6 -2 8 -5 8 -10l-1 -13c0 -4 -4 -7 -11 -10c-18 -7 -69 -25 -78 -89l-24 -164
c-27 -184 -142 -242 -236 -242c-8 0 -13 4 -12 11l2 15c1 7 6 11 12 12c99 8 172 77 191 205z" />
    <glyph glyph-name="guilsinglleft.case" horiz-adv-x="233" 
d="M127 162l-73 157c-2 5 -1 12 3 17l116 154c6 8 11 9 17 9h16c8 0 10 -8 3 -18l-103 -153l59 -157c4 -10 0 -18 -7 -18h-17c-5 0 -10 1 -14 9z" />
    <glyph glyph-name="guilsinglright.case" horiz-adv-x="232" 
d="M44 153c-8 0 -9 7 -2 18l103 157l-60 153c-4 10 0 18 8 18h16c6 0 10 -1 14 -9l73 -154c3 -5 2 -11 -2 -17l-117 -157c-6 -8 -10 -9 -17 -9h-16z" />
    <glyph glyph-name="guillemotleft.case" horiz-adv-x="377" 
d="M271 162l-73 157c-2 5 -1 12 3 17l116 154c6 8 11 9 17 9h16c8 0 10 -8 3 -18l-103 -153l59 -157c4 -10 0 -18 -7 -18h-17c-5 0 -10 1 -14 9zM127 162l-73 157c-2 5 -1 12 3 17l116 154c6 8 11 9 17 9h16c8 0 10 -8 3 -18l-103 -153l59 -157c4 -10 0 -18 -7 -18h-17
c-5 0 -10 1 -14 9z" />
    <glyph glyph-name="guillemotright.case" horiz-adv-x="376" 
d="M188 153c-8 0 -9 7 -2 18l103 157l-60 153c-4 10 0 18 8 18h16c6 0 10 -1 14 -9l73 -154c3 -5 2 -11 -2 -17l-117 -157c-6 -8 -10 -9 -17 -9h-16zM44 153c-8 0 -9 7 -2 18l103 157l-60 153c-4 10 0 18 8 18h16c6 0 10 -1 14 -9l73 -154c3 -5 2 -11 -2 -17l-117 -157
c-6 -8 -10 -9 -17 -9h-16z" />
    <glyph glyph-name="endash.case" horiz-adv-x="603" 
d="M147 323c-7 0 -12 5 -11 12l1 8c1 7 8 13 15 13h343c8 0 12 -6 11 -13l-1 -8c-1 -7 -7 -12 -15 -12h-343z" />
    <glyph glyph-name="emdash.case" horiz-adv-x="799" 
d="M147 323c-7 0 -12 5 -11 12l1 8c1 7 8 13 15 13h539c8 0 12 -6 11 -13l-1 -8c-1 -7 -6 -12 -14 -12h-540z" />
    <glyph glyph-name="bullet.case" horiz-adv-x="318" 
d="M168 244c-34 0 -60 28 -60 62c0 46 39 83 81 83c36 0 62 -29 62 -65c0 -44 -39 -80 -83 -80z" />
    <glyph glyph-name="periodcentered.case" horiz-adv-x="231" 
d="M134 311c-20 0 -35 16 -35 35c0 26 23 45 46 45c20 0 33 -15 33 -35c0 -25 -20 -45 -44 -45z" />
    <glyph glyph-name="brokenbar" unicode="&#xa6;" horiz-adv-x="364" 
d="M198 388c-7 0 -12 6 -11 13l48 345c2 8 8 13 15 13h6c6 0 11 -5 9 -13l-48 -345c-1 -7 -8 -13 -15 -13h-4zM139 58c1 7 7 13 14 13h6c7 0 11 -6 10 -13l-49 -346c-1 -7 -7 -12 -14 -12h-5c-7 0 -12 5 -11 12z" />
    </font>
</defs>
</svg>
